{
	"patcher" : 	{
		"fileversion" : 1,
		"appversion" : 		{
			"major" : 8,
			"minor" : 0,
			"revision" : 3,
			"architecture" : "x64",
			"modernui" : 1
		}
,
		"classnamespace" : "box",
		"rect" : [ 145.0, 79.0, 1661.0, 1065.0 ],
		"bglocked" : 0,
		"openinpresentation" : 0,
		"default_fontsize" : 12.0,
		"default_fontface" : 0,
		"default_fontname" : "Arial",
		"gridonopen" : 1,
		"gridsize" : [ 15.0, 15.0 ],
		"gridsnaponopen" : 1,
		"objectsnaponopen" : 1,
		"statusbarvisible" : 2,
		"toolbarvisible" : 1,
		"lefttoolbarpinned" : 0,
		"toptoolbarpinned" : 0,
		"righttoolbarpinned" : 0,
		"bottomtoolbarpinned" : 0,
		"toolbars_unpinned_last_save" : 0,
		"tallnewobj" : 0,
		"boxanimatetime" : 200,
		"enablehscroll" : 1,
		"enablevscroll" : 1,
		"devicewidth" : 0.0,
		"description" : "",
		"digest" : "",
		"tags" : "",
		"style" : "",
		"subpatcher_template" : "",
		"boxes" : [ 			{
				"box" : 				{
					"fontface" : 0,
					"fontname" : "Arial",
					"fontsize" : 12.0,
					"id" : "obj-162",
					"maxclass" : "jit.fpsgui",
					"numinlets" : 1,
					"numoutlets" : 2,
					"outlettype" : [ "", "" ],
					"patching_rect" : [ 1464.0, 589.0, 80.0, 35.0 ]
				}

			}
, 			{
				"box" : 				{
					"id" : "obj-161",
					"maxclass" : "newobj",
					"numinlets" : 3,
					"numoutlets" : 2,
					"outlettype" : [ "jit_matrix", "" ],
					"patching_rect" : [ 1114.5, 549.0, 164.0, 22.0 ],
					"text" : "jit.glue @rows 3 @columns 1"
				}

			}
, 			{
				"box" : 				{
					"id" : "obj-160",
					"maxclass" : "jit.pwindow",
					"numinlets" : 1,
					"numoutlets" : 2,
					"outlettype" : [ "", "" ],
					"patching_rect" : [ 1148.0, 613.0, 260.0, 165.0 ]
				}

			}
, 			{
				"box" : 				{
					"id" : "obj-159",
					"maxclass" : "newobj",
					"numinlets" : 1,
					"numoutlets" : 1,
					"outlettype" : [ "jit_matrix" ],
					"patcher" : 					{
						"fileversion" : 1,
						"appversion" : 						{
							"major" : 8,
							"minor" : 0,
							"revision" : 3,
							"architecture" : "x64",
							"modernui" : 1
						}
,
						"classnamespace" : "box",
						"rect" : [ 119.0, 172.0, 915.0, 711.0 ],
						"bglocked" : 0,
						"openinpresentation" : 0,
						"default_fontsize" : 12.0,
						"default_fontface" : 0,
						"default_fontname" : "Arial",
						"gridonopen" : 1,
						"gridsize" : [ 15.0, 15.0 ],
						"gridsnaponopen" : 1,
						"objectsnaponopen" : 1,
						"statusbarvisible" : 2,
						"toolbarvisible" : 1,
						"lefttoolbarpinned" : 0,
						"toptoolbarpinned" : 0,
						"righttoolbarpinned" : 0,
						"bottomtoolbarpinned" : 0,
						"toolbars_unpinned_last_save" : 0,
						"tallnewobj" : 0,
						"boxanimatetime" : 200,
						"enablehscroll" : 1,
						"enablevscroll" : 1,
						"devicewidth" : 0.0,
						"description" : "",
						"digest" : "",
						"tags" : "",
						"style" : "",
						"subpatcher_template" : "",
						"visible" : 1,
						"boxes" : [ 							{
								"box" : 								{
									"comment" : "",
									"id" : "obj-2",
									"index" : 1,
									"maxclass" : "outlet",
									"numinlets" : 1,
									"numoutlets" : 0,
									"patching_rect" : [ 578.0, 665.0, 30.0, 30.0 ]
								}

							}
, 							{
								"box" : 								{
									"comment" : "",
									"id" : "obj-1",
									"index" : 1,
									"maxclass" : "inlet",
									"numinlets" : 0,
									"numoutlets" : 1,
									"outlettype" : [ "jit_matrix" ],
									"patching_rect" : [ 389.0, 19.0, 30.0, 30.0 ]
								}

							}
, 							{
								"box" : 								{
									"id" : "obj-152",
									"maxclass" : "newobj",
									"numinlets" : 2,
									"numoutlets" : 2,
									"outlettype" : [ "jit_matrix", "" ],
									"patching_rect" : [ 578.0, 624.0, 29.5, 22.0 ],
									"text" : "jit.+"
								}

							}
, 							{
								"box" : 								{
									"id" : "obj-151",
									"maxclass" : "newobj",
									"numinlets" : 2,
									"numoutlets" : 2,
									"outlettype" : [ "jit_matrix", "" ],
									"patching_rect" : [ 391.75, 656.0, 29.5, 22.0 ],
									"text" : "jit.*"
								}

							}
, 							{
								"box" : 								{
									"id" : "obj-150",
									"maxclass" : "newobj",
									"numinlets" : 2,
									"numoutlets" : 2,
									"outlettype" : [ "jit_matrix", "" ],
									"patching_rect" : [ 391.75, 615.0, 29.5, 22.0 ],
									"text" : "jit.*"
								}

							}
, 							{
								"box" : 								{
									"id" : "obj-149",
									"maxclass" : "newobj",
									"numinlets" : 2,
									"numoutlets" : 2,
									"outlettype" : [ "jit_matrix", "" ],
									"patching_rect" : [ 253.0, 615.0, 72.0, 22.0 ],
									"text" : "jit.!- @val 1."
								}

							}
, 							{
								"box" : 								{
									"id" : "obj-118",
									"maxclass" : "message",
									"numinlets" : 2,
									"numoutlets" : 1,
									"outlettype" : [ "" ],
									"patching_rect" : [ 237.5, 446.5, 97.0, 22.0 ],
									"text" : "setall 1 $1 $2 $3"
								}

							}
, 							{
								"box" : 								{
									"id" : "obj-119",
									"maxclass" : "jit.pwindow",
									"numinlets" : 1,
									"numoutlets" : 2,
									"outlettype" : [ "", "" ],
									"patching_rect" : [ 271.5, 506.5, 80.0, 60.0 ]
								}

							}
, 							{
								"box" : 								{
									"id" : "obj-120",
									"maxclass" : "newobj",
									"numinlets" : 1,
									"numoutlets" : 2,
									"outlettype" : [ "jit_matrix", "" ],
									"patching_rect" : [ 237.5, 482.5, 110.0, 22.0 ],
									"text" : "jit.matrix 4 char 1 1"
								}

							}
, 							{
								"box" : 								{
									"id" : "obj-116",
									"maxclass" : "newobj",
									"numinlets" : 3,
									"numoutlets" : 1,
									"outlettype" : [ "" ],
									"patching_rect" : [ 253.0, 408.0, 74.0, 22.0 ],
									"text" : "pack 0. 0. 0."
								}

							}
, 							{
								"box" : 								{
									"annotation" : "## Single-color video generator ##",
									"bgmode" : 1,
									"border" : 0,
									"clickthrough" : 0,
									"enablehscroll" : 0,
									"enablevscroll" : 0,
									"id" : "obj-117",
									"lockeddragscroll" : 0,
									"maxclass" : "bpatcher",
									"name" : "vz.primr.maxpat",
									"numinlets" : 3,
									"numoutlets" : 4,
									"offset" : [ 0.0, 0.0 ],
									"outlettype" : [ "", "", "", "" ],
									"patching_rect" : [ 224.0, 249.0, 127.0, 144.0 ],
									"prototypename" : "pixl",
									"varname" : "primr[1]",
									"viewvisibility" : 1
								}

							}
, 							{
								"box" : 								{
									"id" : "obj-101",
									"maxclass" : "toggle",
									"numinlets" : 1,
									"numoutlets" : 1,
									"outlettype" : [ "int" ],
									"parameter_enable" : 0,
									"patching_rect" : [ 87.0, 214.0, 24.0, 24.0 ]
								}

							}
, 							{
								"box" : 								{
									"id" : "obj-98",
									"maxclass" : "newobj",
									"numinlets" : 2,
									"numoutlets" : 1,
									"outlettype" : [ "bang" ],
									"patching_rect" : [ 52.0, 574.0, 119.0, 22.0 ],
									"text" : "qmetro 50 @active 1"
								}

							}
, 							{
								"box" : 								{
									"id" : "obj-97",
									"maxclass" : "message",
									"numinlets" : 2,
									"numoutlets" : 1,
									"outlettype" : [ "" ],
									"patching_rect" : [ 94.0, 446.5, 97.0, 22.0 ],
									"text" : "setall 1 $1 $2 $3"
								}

							}
, 							{
								"box" : 								{
									"id" : "obj-95",
									"maxclass" : "jit.pwindow",
									"numinlets" : 1,
									"numoutlets" : 2,
									"outlettype" : [ "", "" ],
									"patching_rect" : [ 128.0, 506.5, 80.0, 60.0 ]
								}

							}
, 							{
								"box" : 								{
									"id" : "obj-94",
									"maxclass" : "newobj",
									"numinlets" : 1,
									"numoutlets" : 2,
									"outlettype" : [ "jit_matrix", "" ],
									"patching_rect" : [ 94.0, 482.5, 110.0, 22.0 ],
									"text" : "jit.matrix 4 char 1 1"
								}

							}
, 							{
								"box" : 								{
									"id" : "obj-93",
									"maxclass" : "newobj",
									"numinlets" : 3,
									"numoutlets" : 1,
									"outlettype" : [ "" ],
									"patching_rect" : [ 116.0, 408.0, 74.0, 22.0 ],
									"text" : "pack 0. 0. 0."
								}

							}
, 							{
								"box" : 								{
									"annotation" : "## Single-color video generator ##",
									"bgmode" : 1,
									"border" : 0,
									"clickthrough" : 0,
									"enablehscroll" : 0,
									"enablevscroll" : 0,
									"id" : "obj-92",
									"lockeddragscroll" : 0,
									"maxclass" : "bpatcher",
									"name" : "vz.primr.maxpat",
									"numinlets" : 3,
									"numoutlets" : 4,
									"offset" : [ 0.0, 0.0 ],
									"outlettype" : [ "", "", "", "" ],
									"patching_rect" : [ 87.0, 249.0, 127.0, 144.0 ],
									"prototypename" : "pixl",
									"varname" : "primr",
									"viewvisibility" : 1
								}

							}
, 							{
								"box" : 								{
									"annotation" : "## Interpolate and resample video input ##",
									"bgmode" : 1,
									"border" : 0,
									"clickthrough" : 0,
									"enablehscroll" : 0,
									"enablevscroll" : 0,
									"id" : "obj-56",
									"lockeddragscroll" : 0,
									"maxclass" : "bpatcher",
									"name" : "vz.resamplr.maxpat",
									"numinlets" : 4,
									"numoutlets" : 1,
									"offset" : [ 0.0, 0.0 ],
									"outlettype" : [ "" ],
									"patching_rect" : [ 406.0, 414.0, 188.0, 130.0 ],
									"prototypename" : "pixl",
									"varname" : "zamplr",
									"viewvisibility" : 1
								}

							}
, 							{
								"box" : 								{
									"annotation" : "## Divide a video and scramble the pieces ##",
									"bgmode" : 1,
									"border" : 0,
									"clickthrough" : 0,
									"enablehscroll" : 0,
									"enablevscroll" : 0,
									"id" : "obj-51",
									"lockeddragscroll" : 0,
									"maxclass" : "bpatcher",
									"name" : "vz.scramblr.maxpat",
									"numinlets" : 6,
									"numoutlets" : 1,
									"offset" : [ 0.0, 0.0 ],
									"outlettype" : [ "" ],
									"patching_rect" : [ 389.0, 107.5, 228.0, 140.0 ],
									"prototypename" : "pixl",
									"varname" : "scramblr",
									"viewvisibility" : 1
								}

							}
, 							{
								"box" : 								{
									"annotation" : "## Create video \"meta images\"## ",
									"bgmode" : 1,
									"border" : 0,
									"clickthrough" : 0,
									"enablehscroll" : 0,
									"enablevscroll" : 0,
									"id" : "obj-50",
									"lockeddragscroll" : 0,
									"maxclass" : "bpatcher",
									"name" : "vz.fractalizr.maxpat",
									"numinlets" : 5,
									"numoutlets" : 1,
									"offset" : [ 0.0, 0.0 ],
									"outlettype" : [ "" ],
									"patching_rect" : [ 371.0, 270.0, 258.0, 130.0 ],
									"prototypename" : "pixl",
									"varname" : "fractalizr",
									"viewvisibility" : 1
								}

							}
, 							{
								"box" : 								{
									"id" : "obj-36",
									"maxclass" : "newobj",
									"numinlets" : 1,
									"numoutlets" : 2,
									"outlettype" : [ "jit_matrix", "" ],
									"patching_rect" : [ 389.0, 65.0, 137.0, 22.0 ],
									"text" : "jit.matrix 4 char 432 100"
								}

							}
 ],
						"lines" : [ 							{
								"patchline" : 								{
									"destination" : [ "obj-36", 0 ],
									"source" : [ "obj-1", 0 ]
								}

							}
, 							{
								"patchline" : 								{
									"destination" : [ "obj-117", 0 ],
									"order" : 0,
									"source" : [ "obj-101", 0 ]
								}

							}
, 							{
								"patchline" : 								{
									"destination" : [ "obj-92", 0 ],
									"order" : 1,
									"source" : [ "obj-101", 0 ]
								}

							}
, 							{
								"patchline" : 								{
									"destination" : [ "obj-118", 0 ],
									"source" : [ "obj-116", 0 ]
								}

							}
, 							{
								"patchline" : 								{
									"destination" : [ "obj-116", 2 ],
									"source" : [ "obj-117", 3 ]
								}

							}
, 							{
								"patchline" : 								{
									"destination" : [ "obj-116", 1 ],
									"source" : [ "obj-117", 2 ]
								}

							}
, 							{
								"patchline" : 								{
									"destination" : [ "obj-116", 0 ],
									"source" : [ "obj-117", 1 ]
								}

							}
, 							{
								"patchline" : 								{
									"destination" : [ "obj-120", 0 ],
									"source" : [ "obj-118", 0 ]
								}

							}
, 							{
								"patchline" : 								{
									"destination" : [ "obj-119", 0 ],
									"order" : 1,
									"source" : [ "obj-120", 0 ]
								}

							}
, 							{
								"patchline" : 								{
									"destination" : [ "obj-150", 1 ],
									"order" : 0,
									"source" : [ "obj-120", 0 ]
								}

							}
, 							{
								"patchline" : 								{
									"destination" : [ "obj-151", 0 ],
									"source" : [ "obj-149", 0 ]
								}

							}
, 							{
								"patchline" : 								{
									"destination" : [ "obj-152", 0 ],
									"source" : [ "obj-150", 0 ]
								}

							}
, 							{
								"patchline" : 								{
									"destination" : [ "obj-152", 1 ],
									"source" : [ "obj-151", 0 ]
								}

							}
, 							{
								"patchline" : 								{
									"destination" : [ "obj-2", 0 ],
									"source" : [ "obj-152", 0 ]
								}

							}
, 							{
								"patchline" : 								{
									"destination" : [ "obj-51", 0 ],
									"source" : [ "obj-36", 0 ]
								}

							}
, 							{
								"patchline" : 								{
									"destination" : [ "obj-56", 0 ],
									"source" : [ "obj-50", 0 ]
								}

							}
, 							{
								"patchline" : 								{
									"destination" : [ "obj-50", 0 ],
									"source" : [ "obj-51", 0 ]
								}

							}
, 							{
								"patchline" : 								{
									"destination" : [ "obj-149", 0 ],
									"order" : 1,
									"source" : [ "obj-56", 0 ]
								}

							}
, 							{
								"patchline" : 								{
									"destination" : [ "obj-150", 0 ],
									"order" : 0,
									"source" : [ "obj-56", 0 ]
								}

							}
, 							{
								"patchline" : 								{
									"destination" : [ "obj-93", 2 ],
									"source" : [ "obj-92", 3 ]
								}

							}
, 							{
								"patchline" : 								{
									"destination" : [ "obj-93", 1 ],
									"source" : [ "obj-92", 2 ]
								}

							}
, 							{
								"patchline" : 								{
									"destination" : [ "obj-93", 0 ],
									"source" : [ "obj-92", 1 ]
								}

							}
, 							{
								"patchline" : 								{
									"destination" : [ "obj-97", 0 ],
									"source" : [ "obj-93", 0 ]
								}

							}
, 							{
								"patchline" : 								{
									"destination" : [ "obj-151", 1 ],
									"order" : 0,
									"source" : [ "obj-94", 0 ]
								}

							}
, 							{
								"patchline" : 								{
									"destination" : [ "obj-95", 0 ],
									"order" : 1,
									"source" : [ "obj-94", 0 ]
								}

							}
, 							{
								"patchline" : 								{
									"destination" : [ "obj-94", 0 ],
									"source" : [ "obj-97", 0 ]
								}

							}
, 							{
								"patchline" : 								{
									"destination" : [ "obj-120", 0 ],
									"midpoints" : [ 61.5, 606.0, 233.0, 606.0, 233.0, 477.0, 247.0, 477.0 ],
									"order" : 0,
									"source" : [ "obj-98", 0 ]
								}

							}
, 							{
								"patchline" : 								{
									"destination" : [ "obj-94", 0 ],
									"order" : 1,
									"source" : [ "obj-98", 0 ]
								}

							}
 ],
						"styles" : [ 							{
								"name" : "AudioStatus_Menu",
								"default" : 								{
									"bgfillcolor" : 									{
										"type" : "color",
										"color" : [ 0.294118, 0.313726, 0.337255, 1 ],
										"color1" : [ 0.454902, 0.462745, 0.482353, 0.0 ],
										"color2" : [ 0.290196, 0.309804, 0.301961, 1.0 ],
										"angle" : 270.0,
										"proportion" : 0.39,
										"autogradient" : 0
									}

								}
,
								"parentstyle" : "",
								"multi" : 0
							}
, 							{
								"name" : "newobjBlue-1",
								"default" : 								{
									"accentcolor" : [ 0.317647, 0.654902, 0.976471, 1.0 ]
								}
,
								"parentstyle" : "",
								"multi" : 0
							}
, 							{
								"name" : "newobjBronze",
								"default" : 								{
									"accentcolor" : [ 0.654902, 0.572549, 0.376471, 1.0 ]
								}
,
								"parentstyle" : "newobjYellow",
								"multi" : 0
							}
, 							{
								"name" : "newobjCyan-1",
								"default" : 								{
									"accentcolor" : [ 0.022882, 0.848654, 0.85423, 1.0 ]
								}
,
								"parentstyle" : "",
								"multi" : 0
							}
, 							{
								"name" : "newobjGold-1",
								"default" : 								{
									"accentcolor" : [ 0.764706, 0.592157, 0.101961, 1.0 ]
								}
,
								"parentstyle" : "",
								"multi" : 0
							}
, 							{
								"name" : "newobjMagenta-1",
								"default" : 								{
									"accentcolor" : [ 0.840663, 0.060168, 0.769195, 1.0 ]
								}
,
								"parentstyle" : "",
								"multi" : 0
							}
, 							{
								"name" : "newobjRed-1",
								"default" : 								{
									"accentcolor" : [ 0.784314, 0.145098, 0.023529, 1.0 ]
								}
,
								"parentstyle" : "",
								"multi" : 0
							}
, 							{
								"name" : "newobjYellow-1",
								"default" : 								{
									"accentcolor" : [ 0.82517, 0.78181, 0.059545, 1.0 ],
									"fontsize" : [ 12.059008 ]
								}
,
								"parentstyle" : "",
								"multi" : 0
							}
, 							{
								"name" : "numberB-1",
								"default" : 								{
									"accentcolor" : [ 0.011765, 0.396078, 0.752941, 1.0 ]
								}
,
								"parentstyle" : "",
								"multi" : 0
							}
, 							{
								"name" : "numberG-1",
								"default" : 								{
									"accentcolor" : [ 0.0, 0.533333, 0.168627, 1.0 ]
								}
,
								"parentstyle" : "",
								"multi" : 0
							}
, 							{
								"name" : "numberGold-1",
								"default" : 								{
									"accentcolor" : [ 0.764706, 0.592157, 0.101961, 1.0 ]
								}
,
								"parentstyle" : "",
								"multi" : 0
							}
, 							{
								"name" : "numberR-1",
								"default" : 								{
									"accentcolor" : [ 0.784314, 0.145098, 0.023529, 1.0 ]
								}
,
								"parentstyle" : "",
								"multi" : 0
							}
 ]
					}
,
					"patching_rect" : [ 471.0, 1235.0, 68.0, 22.0 ],
					"saved_object_attributes" : 					{
						"description" : "",
						"digest" : "",
						"globalpatchername" : "",
						"tags" : ""
					}
,
					"text" : "patcher fx3",
					"varname" : "fx1[2]"
				}

			}
, 			{
				"box" : 				{
					"id" : "obj-158",
					"maxclass" : "newobj",
					"numinlets" : 1,
					"numoutlets" : 1,
					"outlettype" : [ "jit_matrix" ],
					"patcher" : 					{
						"fileversion" : 1,
						"appversion" : 						{
							"major" : 8,
							"minor" : 0,
							"revision" : 3,
							"architecture" : "x64",
							"modernui" : 1
						}
,
						"classnamespace" : "box",
						"rect" : [ 65.0, 168.0, 915.0, 711.0 ],
						"bglocked" : 0,
						"openinpresentation" : 0,
						"default_fontsize" : 12.0,
						"default_fontface" : 0,
						"default_fontname" : "Arial",
						"gridonopen" : 1,
						"gridsize" : [ 15.0, 15.0 ],
						"gridsnaponopen" : 1,
						"objectsnaponopen" : 1,
						"statusbarvisible" : 2,
						"toolbarvisible" : 1,
						"lefttoolbarpinned" : 0,
						"toptoolbarpinned" : 0,
						"righttoolbarpinned" : 0,
						"bottomtoolbarpinned" : 0,
						"toolbars_unpinned_last_save" : 0,
						"tallnewobj" : 0,
						"boxanimatetime" : 200,
						"enablehscroll" : 1,
						"enablevscroll" : 1,
						"devicewidth" : 0.0,
						"description" : "",
						"digest" : "",
						"tags" : "",
						"style" : "",
						"subpatcher_template" : "",
						"boxes" : [ 							{
								"box" : 								{
									"comment" : "",
									"id" : "obj-2",
									"index" : 1,
									"maxclass" : "outlet",
									"numinlets" : 1,
									"numoutlets" : 0,
									"patching_rect" : [ 578.0, 665.0, 30.0, 30.0 ]
								}

							}
, 							{
								"box" : 								{
									"comment" : "",
									"id" : "obj-1",
									"index" : 1,
									"maxclass" : "inlet",
									"numinlets" : 0,
									"numoutlets" : 1,
									"outlettype" : [ "jit_matrix" ],
									"patching_rect" : [ 389.0, 19.0, 30.0, 30.0 ]
								}

							}
, 							{
								"box" : 								{
									"id" : "obj-152",
									"maxclass" : "newobj",
									"numinlets" : 2,
									"numoutlets" : 2,
									"outlettype" : [ "jit_matrix", "" ],
									"patching_rect" : [ 578.0, 624.0, 29.5, 22.0 ],
									"text" : "jit.+"
								}

							}
, 							{
								"box" : 								{
									"id" : "obj-151",
									"maxclass" : "newobj",
									"numinlets" : 2,
									"numoutlets" : 2,
									"outlettype" : [ "jit_matrix", "" ],
									"patching_rect" : [ 391.75, 656.0, 29.5, 22.0 ],
									"text" : "jit.*"
								}

							}
, 							{
								"box" : 								{
									"id" : "obj-150",
									"maxclass" : "newobj",
									"numinlets" : 2,
									"numoutlets" : 2,
									"outlettype" : [ "jit_matrix", "" ],
									"patching_rect" : [ 391.75, 615.0, 29.5, 22.0 ],
									"text" : "jit.*"
								}

							}
, 							{
								"box" : 								{
									"id" : "obj-149",
									"maxclass" : "newobj",
									"numinlets" : 2,
									"numoutlets" : 2,
									"outlettype" : [ "jit_matrix", "" ],
									"patching_rect" : [ 253.0, 615.0, 72.0, 22.0 ],
									"text" : "jit.!- @val 1."
								}

							}
, 							{
								"box" : 								{
									"id" : "obj-118",
									"maxclass" : "message",
									"numinlets" : 2,
									"numoutlets" : 1,
									"outlettype" : [ "" ],
									"patching_rect" : [ 237.5, 446.5, 97.0, 22.0 ],
									"text" : "setall 1 $1 $2 $3"
								}

							}
, 							{
								"box" : 								{
									"id" : "obj-119",
									"maxclass" : "jit.pwindow",
									"numinlets" : 1,
									"numoutlets" : 2,
									"outlettype" : [ "", "" ],
									"patching_rect" : [ 271.5, 506.5, 80.0, 60.0 ]
								}

							}
, 							{
								"box" : 								{
									"id" : "obj-120",
									"maxclass" : "newobj",
									"numinlets" : 1,
									"numoutlets" : 2,
									"outlettype" : [ "jit_matrix", "" ],
									"patching_rect" : [ 237.5, 482.5, 110.0, 22.0 ],
									"text" : "jit.matrix 4 char 1 1"
								}

							}
, 							{
								"box" : 								{
									"id" : "obj-116",
									"maxclass" : "newobj",
									"numinlets" : 3,
									"numoutlets" : 1,
									"outlettype" : [ "" ],
									"patching_rect" : [ 253.0, 408.0, 74.0, 22.0 ],
									"text" : "pack 0. 0. 0."
								}

							}
, 							{
								"box" : 								{
									"annotation" : "## Single-color video generator ##",
									"bgmode" : 1,
									"border" : 0,
									"clickthrough" : 0,
									"enablehscroll" : 0,
									"enablevscroll" : 0,
									"id" : "obj-117",
									"lockeddragscroll" : 0,
									"maxclass" : "bpatcher",
									"name" : "vz.primr.maxpat",
									"numinlets" : 3,
									"numoutlets" : 4,
									"offset" : [ 0.0, 0.0 ],
									"outlettype" : [ "", "", "", "" ],
									"patching_rect" : [ 224.0, 249.0, 127.0, 144.0 ],
									"prototypename" : "pixl",
									"varname" : "primr[1]",
									"viewvisibility" : 1
								}

							}
, 							{
								"box" : 								{
									"id" : "obj-101",
									"maxclass" : "toggle",
									"numinlets" : 1,
									"numoutlets" : 1,
									"outlettype" : [ "int" ],
									"parameter_enable" : 0,
									"patching_rect" : [ 87.0, 214.0, 24.0, 24.0 ]
								}

							}
, 							{
								"box" : 								{
									"id" : "obj-98",
									"maxclass" : "newobj",
									"numinlets" : 2,
									"numoutlets" : 1,
									"outlettype" : [ "bang" ],
									"patching_rect" : [ 52.0, 574.0, 119.0, 22.0 ],
									"text" : "qmetro 50 @active 1"
								}

							}
, 							{
								"box" : 								{
									"id" : "obj-97",
									"maxclass" : "message",
									"numinlets" : 2,
									"numoutlets" : 1,
									"outlettype" : [ "" ],
									"patching_rect" : [ 94.0, 446.5, 97.0, 22.0 ],
									"text" : "setall 1 $1 $2 $3"
								}

							}
, 							{
								"box" : 								{
									"id" : "obj-95",
									"maxclass" : "jit.pwindow",
									"numinlets" : 1,
									"numoutlets" : 2,
									"outlettype" : [ "", "" ],
									"patching_rect" : [ 128.0, 506.5, 80.0, 60.0 ]
								}

							}
, 							{
								"box" : 								{
									"id" : "obj-94",
									"maxclass" : "newobj",
									"numinlets" : 1,
									"numoutlets" : 2,
									"outlettype" : [ "jit_matrix", "" ],
									"patching_rect" : [ 94.0, 482.5, 110.0, 22.0 ],
									"text" : "jit.matrix 4 char 1 1"
								}

							}
, 							{
								"box" : 								{
									"id" : "obj-93",
									"maxclass" : "newobj",
									"numinlets" : 3,
									"numoutlets" : 1,
									"outlettype" : [ "" ],
									"patching_rect" : [ 116.0, 408.0, 74.0, 22.0 ],
									"text" : "pack 0. 0. 0."
								}

							}
, 							{
								"box" : 								{
									"annotation" : "## Single-color video generator ##",
									"bgmode" : 1,
									"border" : 0,
									"clickthrough" : 0,
									"enablehscroll" : 0,
									"enablevscroll" : 0,
									"id" : "obj-92",
									"lockeddragscroll" : 0,
									"maxclass" : "bpatcher",
									"name" : "vz.primr.maxpat",
									"numinlets" : 3,
									"numoutlets" : 4,
									"offset" : [ 0.0, 0.0 ],
									"outlettype" : [ "", "", "", "" ],
									"patching_rect" : [ 87.0, 249.0, 127.0, 144.0 ],
									"prototypename" : "pixl",
									"varname" : "primr",
									"viewvisibility" : 1
								}

							}
, 							{
								"box" : 								{
									"annotation" : "## Interpolate and resample video input ##",
									"bgmode" : 1,
									"border" : 0,
									"clickthrough" : 0,
									"enablehscroll" : 0,
									"enablevscroll" : 0,
									"id" : "obj-56",
									"lockeddragscroll" : 0,
									"maxclass" : "bpatcher",
									"name" : "vz.resamplr.maxpat",
									"numinlets" : 4,
									"numoutlets" : 1,
									"offset" : [ 0.0, 0.0 ],
									"outlettype" : [ "" ],
									"patching_rect" : [ 406.0, 414.0, 188.0, 130.0 ],
									"prototypename" : "pixl",
									"varname" : "zamplr",
									"viewvisibility" : 1
								}

							}
, 							{
								"box" : 								{
									"annotation" : "## Divide a video and scramble the pieces ##",
									"bgmode" : 1,
									"border" : 0,
									"clickthrough" : 0,
									"enablehscroll" : 0,
									"enablevscroll" : 0,
									"id" : "obj-51",
									"lockeddragscroll" : 0,
									"maxclass" : "bpatcher",
									"name" : "vz.scramblr.maxpat",
									"numinlets" : 6,
									"numoutlets" : 1,
									"offset" : [ 0.0, 0.0 ],
									"outlettype" : [ "" ],
									"patching_rect" : [ 389.0, 107.5, 228.0, 140.0 ],
									"prototypename" : "pixl",
									"varname" : "scramblr",
									"viewvisibility" : 1
								}

							}
, 							{
								"box" : 								{
									"annotation" : "## Create video \"meta images\"## ",
									"bgmode" : 1,
									"border" : 0,
									"clickthrough" : 0,
									"enablehscroll" : 0,
									"enablevscroll" : 0,
									"id" : "obj-50",
									"lockeddragscroll" : 0,
									"maxclass" : "bpatcher",
									"name" : "vz.fractalizr.maxpat",
									"numinlets" : 5,
									"numoutlets" : 1,
									"offset" : [ 0.0, 0.0 ],
									"outlettype" : [ "" ],
									"patching_rect" : [ 371.0, 270.0, 258.0, 130.0 ],
									"prototypename" : "pixl",
									"varname" : "fractalizr",
									"viewvisibility" : 1
								}

							}
, 							{
								"box" : 								{
									"id" : "obj-36",
									"maxclass" : "newobj",
									"numinlets" : 1,
									"numoutlets" : 2,
									"outlettype" : [ "jit_matrix", "" ],
									"patching_rect" : [ 389.0, 65.0, 137.0, 22.0 ],
									"text" : "jit.matrix 4 char 432 100"
								}

							}
 ],
						"lines" : [ 							{
								"patchline" : 								{
									"destination" : [ "obj-36", 0 ],
									"source" : [ "obj-1", 0 ]
								}

							}
, 							{
								"patchline" : 								{
									"destination" : [ "obj-117", 0 ],
									"order" : 0,
									"source" : [ "obj-101", 0 ]
								}

							}
, 							{
								"patchline" : 								{
									"destination" : [ "obj-92", 0 ],
									"order" : 1,
									"source" : [ "obj-101", 0 ]
								}

							}
, 							{
								"patchline" : 								{
									"destination" : [ "obj-118", 0 ],
									"source" : [ "obj-116", 0 ]
								}

							}
, 							{
								"patchline" : 								{
									"destination" : [ "obj-116", 2 ],
									"source" : [ "obj-117", 3 ]
								}

							}
, 							{
								"patchline" : 								{
									"destination" : [ "obj-116", 1 ],
									"source" : [ "obj-117", 2 ]
								}

							}
, 							{
								"patchline" : 								{
									"destination" : [ "obj-116", 0 ],
									"source" : [ "obj-117", 1 ]
								}

							}
, 							{
								"patchline" : 								{
									"destination" : [ "obj-120", 0 ],
									"source" : [ "obj-118", 0 ]
								}

							}
, 							{
								"patchline" : 								{
									"destination" : [ "obj-119", 0 ],
									"order" : 1,
									"source" : [ "obj-120", 0 ]
								}

							}
, 							{
								"patchline" : 								{
									"destination" : [ "obj-150", 1 ],
									"order" : 0,
									"source" : [ "obj-120", 0 ]
								}

							}
, 							{
								"patchline" : 								{
									"destination" : [ "obj-151", 0 ],
									"source" : [ "obj-149", 0 ]
								}

							}
, 							{
								"patchline" : 								{
									"destination" : [ "obj-152", 0 ],
									"source" : [ "obj-150", 0 ]
								}

							}
, 							{
								"patchline" : 								{
									"destination" : [ "obj-152", 1 ],
									"source" : [ "obj-151", 0 ]
								}

							}
, 							{
								"patchline" : 								{
									"destination" : [ "obj-2", 0 ],
									"source" : [ "obj-152", 0 ]
								}

							}
, 							{
								"patchline" : 								{
									"destination" : [ "obj-51", 0 ],
									"source" : [ "obj-36", 0 ]
								}

							}
, 							{
								"patchline" : 								{
									"destination" : [ "obj-56", 0 ],
									"source" : [ "obj-50", 0 ]
								}

							}
, 							{
								"patchline" : 								{
									"destination" : [ "obj-50", 0 ],
									"source" : [ "obj-51", 0 ]
								}

							}
, 							{
								"patchline" : 								{
									"destination" : [ "obj-149", 0 ],
									"order" : 1,
									"source" : [ "obj-56", 0 ]
								}

							}
, 							{
								"patchline" : 								{
									"destination" : [ "obj-150", 0 ],
									"order" : 0,
									"source" : [ "obj-56", 0 ]
								}

							}
, 							{
								"patchline" : 								{
									"destination" : [ "obj-93", 2 ],
									"source" : [ "obj-92", 3 ]
								}

							}
, 							{
								"patchline" : 								{
									"destination" : [ "obj-93", 1 ],
									"source" : [ "obj-92", 2 ]
								}

							}
, 							{
								"patchline" : 								{
									"destination" : [ "obj-93", 0 ],
									"source" : [ "obj-92", 1 ]
								}

							}
, 							{
								"patchline" : 								{
									"destination" : [ "obj-97", 0 ],
									"source" : [ "obj-93", 0 ]
								}

							}
, 							{
								"patchline" : 								{
									"destination" : [ "obj-151", 1 ],
									"order" : 0,
									"source" : [ "obj-94", 0 ]
								}

							}
, 							{
								"patchline" : 								{
									"destination" : [ "obj-95", 0 ],
									"order" : 1,
									"source" : [ "obj-94", 0 ]
								}

							}
, 							{
								"patchline" : 								{
									"destination" : [ "obj-94", 0 ],
									"source" : [ "obj-97", 0 ]
								}

							}
, 							{
								"patchline" : 								{
									"destination" : [ "obj-120", 0 ],
									"midpoints" : [ 61.5, 606.0, 233.0, 606.0, 233.0, 477.0, 247.0, 477.0 ],
									"order" : 0,
									"source" : [ "obj-98", 0 ]
								}

							}
, 							{
								"patchline" : 								{
									"destination" : [ "obj-94", 0 ],
									"order" : 1,
									"source" : [ "obj-98", 0 ]
								}

							}
 ],
						"styles" : [ 							{
								"name" : "AudioStatus_Menu",
								"default" : 								{
									"bgfillcolor" : 									{
										"type" : "color",
										"color" : [ 0.294118, 0.313726, 0.337255, 1 ],
										"color1" : [ 0.454902, 0.462745, 0.482353, 0.0 ],
										"color2" : [ 0.290196, 0.309804, 0.301961, 1.0 ],
										"angle" : 270.0,
										"proportion" : 0.39,
										"autogradient" : 0
									}

								}
,
								"parentstyle" : "",
								"multi" : 0
							}
, 							{
								"name" : "newobjBlue-1",
								"default" : 								{
									"accentcolor" : [ 0.317647, 0.654902, 0.976471, 1.0 ]
								}
,
								"parentstyle" : "",
								"multi" : 0
							}
, 							{
								"name" : "newobjBronze",
								"default" : 								{
									"accentcolor" : [ 0.654902, 0.572549, 0.376471, 1.0 ]
								}
,
								"parentstyle" : "newobjYellow",
								"multi" : 0
							}
, 							{
								"name" : "newobjCyan-1",
								"default" : 								{
									"accentcolor" : [ 0.022882, 0.848654, 0.85423, 1.0 ]
								}
,
								"parentstyle" : "",
								"multi" : 0
							}
, 							{
								"name" : "newobjGold-1",
								"default" : 								{
									"accentcolor" : [ 0.764706, 0.592157, 0.101961, 1.0 ]
								}
,
								"parentstyle" : "",
								"multi" : 0
							}
, 							{
								"name" : "newobjMagenta-1",
								"default" : 								{
									"accentcolor" : [ 0.840663, 0.060168, 0.769195, 1.0 ]
								}
,
								"parentstyle" : "",
								"multi" : 0
							}
, 							{
								"name" : "newobjRed-1",
								"default" : 								{
									"accentcolor" : [ 0.784314, 0.145098, 0.023529, 1.0 ]
								}
,
								"parentstyle" : "",
								"multi" : 0
							}
, 							{
								"name" : "newobjYellow-1",
								"default" : 								{
									"accentcolor" : [ 0.82517, 0.78181, 0.059545, 1.0 ],
									"fontsize" : [ 12.059008 ]
								}
,
								"parentstyle" : "",
								"multi" : 0
							}
, 							{
								"name" : "numberB-1",
								"default" : 								{
									"accentcolor" : [ 0.011765, 0.396078, 0.752941, 1.0 ]
								}
,
								"parentstyle" : "",
								"multi" : 0
							}
, 							{
								"name" : "numberG-1",
								"default" : 								{
									"accentcolor" : [ 0.0, 0.533333, 0.168627, 1.0 ]
								}
,
								"parentstyle" : "",
								"multi" : 0
							}
, 							{
								"name" : "numberGold-1",
								"default" : 								{
									"accentcolor" : [ 0.764706, 0.592157, 0.101961, 1.0 ]
								}
,
								"parentstyle" : "",
								"multi" : 0
							}
, 							{
								"name" : "numberR-1",
								"default" : 								{
									"accentcolor" : [ 0.784314, 0.145098, 0.023529, 1.0 ]
								}
,
								"parentstyle" : "",
								"multi" : 0
							}
 ]
					}
,
					"patching_rect" : [ 487.0, 973.0, 68.0, 22.0 ],
					"saved_object_attributes" : 					{
						"description" : "",
						"digest" : "",
						"globalpatchername" : "",
						"tags" : ""
					}
,
					"text" : "patcher fx2",
					"varname" : "fx1[1]"
				}

			}
, 			{
				"box" : 				{
					"fontface" : 0,
					"fontname" : "Arial",
					"fontsize" : 12.0,
					"id" : "obj-156",
					"maxclass" : "jit.fpsgui",
					"numinlets" : 1,
					"numoutlets" : 2,
					"outlettype" : [ "", "" ],
					"patching_rect" : [ 636.0, 1419.0, 80.0, 35.0 ]
				}

			}
, 			{
				"box" : 				{
					"id" : "obj-157",
					"maxclass" : "jit.pwindow",
					"numinlets" : 1,
					"numoutlets" : 2,
					"outlettype" : [ "", "" ],
					"patching_rect" : [ 726.0, 1252.0, 898.0, 202.0 ]
				}

			}
, 			{
				"box" : 				{
					"fontface" : 0,
					"fontname" : "Arial",
					"fontsize" : 12.0,
					"id" : "obj-154",
					"maxclass" : "jit.fpsgui",
					"numinlets" : 1,
					"numoutlets" : 2,
					"outlettype" : [ "", "" ],
					"patching_rect" : [ 636.0, 1206.0, 80.0, 35.0 ]
				}

			}
, 			{
				"box" : 				{
					"id" : "obj-155",
					"maxclass" : "jit.pwindow",
					"numinlets" : 1,
					"numoutlets" : 2,
					"outlettype" : [ "", "" ],
					"patching_rect" : [ 726.0, 1039.0, 898.0, 202.0 ]
				}

			}
, 			{
				"box" : 				{
					"id" : "obj-153",
					"maxclass" : "newobj",
					"numinlets" : 1,
					"numoutlets" : 1,
					"outlettype" : [ "jit_matrix" ],
					"patcher" : 					{
						"fileversion" : 1,
						"appversion" : 						{
							"major" : 8,
							"minor" : 0,
							"revision" : 3,
							"architecture" : "x64",
							"modernui" : 1
						}
,
						"classnamespace" : "box",
						"rect" : [ 659.0, 171.0, 915.0, 711.0 ],
						"bglocked" : 0,
						"openinpresentation" : 0,
						"default_fontsize" : 12.0,
						"default_fontface" : 0,
						"default_fontname" : "Arial",
						"gridonopen" : 1,
						"gridsize" : [ 15.0, 15.0 ],
						"gridsnaponopen" : 1,
						"objectsnaponopen" : 1,
						"statusbarvisible" : 2,
						"toolbarvisible" : 1,
						"lefttoolbarpinned" : 0,
						"toptoolbarpinned" : 0,
						"righttoolbarpinned" : 0,
						"bottomtoolbarpinned" : 0,
						"toolbars_unpinned_last_save" : 0,
						"tallnewobj" : 0,
						"boxanimatetime" : 200,
						"enablehscroll" : 1,
						"enablevscroll" : 1,
						"devicewidth" : 0.0,
						"description" : "",
						"digest" : "",
						"tags" : "",
						"style" : "",
						"subpatcher_template" : "",
						"boxes" : [ 							{
								"box" : 								{
									"comment" : "",
									"id" : "obj-2",
									"index" : 1,
									"maxclass" : "outlet",
									"numinlets" : 1,
									"numoutlets" : 0,
									"patching_rect" : [ 578.0, 665.0, 30.0, 30.0 ]
								}

							}
, 							{
								"box" : 								{
									"comment" : "",
									"id" : "obj-1",
									"index" : 1,
									"maxclass" : "inlet",
									"numinlets" : 0,
									"numoutlets" : 1,
									"outlettype" : [ "jit_matrix" ],
									"patching_rect" : [ 389.0, 19.0, 30.0, 30.0 ]
								}

							}
, 							{
								"box" : 								{
									"id" : "obj-152",
									"maxclass" : "newobj",
									"numinlets" : 2,
									"numoutlets" : 2,
									"outlettype" : [ "jit_matrix", "" ],
									"patching_rect" : [ 578.0, 624.0, 29.5, 22.0 ],
									"text" : "jit.+"
								}

							}
, 							{
								"box" : 								{
									"id" : "obj-151",
									"maxclass" : "newobj",
									"numinlets" : 2,
									"numoutlets" : 2,
									"outlettype" : [ "jit_matrix", "" ],
									"patching_rect" : [ 391.75, 656.0, 29.5, 22.0 ],
									"text" : "jit.*"
								}

							}
, 							{
								"box" : 								{
									"id" : "obj-150",
									"maxclass" : "newobj",
									"numinlets" : 2,
									"numoutlets" : 2,
									"outlettype" : [ "jit_matrix", "" ],
									"patching_rect" : [ 391.75, 615.0, 29.5, 22.0 ],
									"text" : "jit.*"
								}

							}
, 							{
								"box" : 								{
									"id" : "obj-149",
									"maxclass" : "newobj",
									"numinlets" : 2,
									"numoutlets" : 2,
									"outlettype" : [ "jit_matrix", "" ],
									"patching_rect" : [ 253.0, 615.0, 72.0, 22.0 ],
									"text" : "jit.!- @val 1."
								}

							}
, 							{
								"box" : 								{
									"id" : "obj-118",
									"maxclass" : "message",
									"numinlets" : 2,
									"numoutlets" : 1,
									"outlettype" : [ "" ],
									"patching_rect" : [ 237.5, 446.5, 97.0, 22.0 ],
									"text" : "setall 1 $1 $2 $3"
								}

							}
, 							{
								"box" : 								{
									"id" : "obj-119",
									"maxclass" : "jit.pwindow",
									"numinlets" : 1,
									"numoutlets" : 2,
									"outlettype" : [ "", "" ],
									"patching_rect" : [ 271.5, 506.5, 80.0, 60.0 ]
								}

							}
, 							{
								"box" : 								{
									"id" : "obj-120",
									"maxclass" : "newobj",
									"numinlets" : 1,
									"numoutlets" : 2,
									"outlettype" : [ "jit_matrix", "" ],
									"patching_rect" : [ 237.5, 482.5, 110.0, 22.0 ],
									"text" : "jit.matrix 4 char 1 1"
								}

							}
, 							{
								"box" : 								{
									"id" : "obj-116",
									"maxclass" : "newobj",
									"numinlets" : 3,
									"numoutlets" : 1,
									"outlettype" : [ "" ],
									"patching_rect" : [ 253.0, 408.0, 74.0, 22.0 ],
									"text" : "pack 0. 0. 0."
								}

							}
, 							{
								"box" : 								{
									"annotation" : "## Single-color video generator ##",
									"bgmode" : 1,
									"border" : 0,
									"clickthrough" : 0,
									"enablehscroll" : 0,
									"enablevscroll" : 0,
									"id" : "obj-117",
									"lockeddragscroll" : 0,
									"maxclass" : "bpatcher",
									"name" : "vz.primr.maxpat",
									"numinlets" : 3,
									"numoutlets" : 4,
									"offset" : [ 0.0, 0.0 ],
									"outlettype" : [ "", "", "", "" ],
									"patching_rect" : [ 224.0, 249.0, 127.0, 144.0 ],
									"prototypename" : "pixl",
									"varname" : "primr[1]",
									"viewvisibility" : 1
								}

							}
, 							{
								"box" : 								{
									"id" : "obj-101",
									"maxclass" : "toggle",
									"numinlets" : 1,
									"numoutlets" : 1,
									"outlettype" : [ "int" ],
									"parameter_enable" : 0,
									"patching_rect" : [ 87.0, 214.0, 24.0, 24.0 ]
								}

							}
, 							{
								"box" : 								{
									"id" : "obj-98",
									"maxclass" : "newobj",
									"numinlets" : 2,
									"numoutlets" : 1,
									"outlettype" : [ "bang" ],
									"patching_rect" : [ 52.0, 574.0, 119.0, 22.0 ],
									"text" : "qmetro 50 @active 1"
								}

							}
, 							{
								"box" : 								{
									"id" : "obj-97",
									"maxclass" : "message",
									"numinlets" : 2,
									"numoutlets" : 1,
									"outlettype" : [ "" ],
									"patching_rect" : [ 94.0, 446.5, 97.0, 22.0 ],
									"text" : "setall 1 $1 $2 $3"
								}

							}
, 							{
								"box" : 								{
									"id" : "obj-95",
									"maxclass" : "jit.pwindow",
									"numinlets" : 1,
									"numoutlets" : 2,
									"outlettype" : [ "", "" ],
									"patching_rect" : [ 128.0, 506.5, 80.0, 60.0 ]
								}

							}
, 							{
								"box" : 								{
									"id" : "obj-94",
									"maxclass" : "newobj",
									"numinlets" : 1,
									"numoutlets" : 2,
									"outlettype" : [ "jit_matrix", "" ],
									"patching_rect" : [ 94.0, 482.5, 110.0, 22.0 ],
									"text" : "jit.matrix 4 char 1 1"
								}

							}
, 							{
								"box" : 								{
									"id" : "obj-93",
									"maxclass" : "newobj",
									"numinlets" : 3,
									"numoutlets" : 1,
									"outlettype" : [ "" ],
									"patching_rect" : [ 116.0, 408.0, 74.0, 22.0 ],
									"text" : "pack 0. 0. 0."
								}

							}
, 							{
								"box" : 								{
									"annotation" : "## Single-color video generator ##",
									"bgmode" : 1,
									"border" : 0,
									"clickthrough" : 0,
									"enablehscroll" : 0,
									"enablevscroll" : 0,
									"id" : "obj-92",
									"lockeddragscroll" : 0,
									"maxclass" : "bpatcher",
									"name" : "vz.primr.maxpat",
									"numinlets" : 3,
									"numoutlets" : 4,
									"offset" : [ 0.0, 0.0 ],
									"outlettype" : [ "", "", "", "" ],
									"patching_rect" : [ 87.0, 249.0, 127.0, 144.0 ],
									"prototypename" : "pixl",
									"varname" : "primr",
									"viewvisibility" : 1
								}

							}
, 							{
								"box" : 								{
									"annotation" : "## Interpolate and resample video input ##",
									"bgmode" : 1,
									"border" : 0,
									"clickthrough" : 0,
									"enablehscroll" : 0,
									"enablevscroll" : 0,
									"id" : "obj-56",
									"lockeddragscroll" : 0,
									"maxclass" : "bpatcher",
									"name" : "vz.resamplr.maxpat",
									"numinlets" : 4,
									"numoutlets" : 1,
									"offset" : [ 0.0, 0.0 ],
									"outlettype" : [ "" ],
									"patching_rect" : [ 406.0, 414.0, 188.0, 130.0 ],
									"prototypename" : "pixl",
									"varname" : "zamplr",
									"viewvisibility" : 1
								}

							}
, 							{
								"box" : 								{
									"annotation" : "## Divide a video and scramble the pieces ##",
									"bgmode" : 1,
									"border" : 0,
									"clickthrough" : 0,
									"enablehscroll" : 0,
									"enablevscroll" : 0,
									"id" : "obj-51",
									"lockeddragscroll" : 0,
									"maxclass" : "bpatcher",
									"name" : "vz.scramblr.maxpat",
									"numinlets" : 6,
									"numoutlets" : 1,
									"offset" : [ 0.0, 0.0 ],
									"outlettype" : [ "" ],
									"patching_rect" : [ 389.0, 107.5, 228.0, 140.0 ],
									"prototypename" : "pixl",
									"varname" : "scramblr",
									"viewvisibility" : 1
								}

							}
, 							{
								"box" : 								{
									"annotation" : "## Create video \"meta images\"## ",
									"bgmode" : 1,
									"border" : 0,
									"clickthrough" : 0,
									"enablehscroll" : 0,
									"enablevscroll" : 0,
									"id" : "obj-50",
									"lockeddragscroll" : 0,
									"maxclass" : "bpatcher",
									"name" : "vz.fractalizr.maxpat",
									"numinlets" : 5,
									"numoutlets" : 1,
									"offset" : [ 0.0, 0.0 ],
									"outlettype" : [ "" ],
									"patching_rect" : [ 371.0, 270.0, 258.0, 130.0 ],
									"prototypename" : "pixl",
									"varname" : "fractalizr",
									"viewvisibility" : 1
								}

							}
, 							{
								"box" : 								{
									"id" : "obj-36",
									"maxclass" : "newobj",
									"numinlets" : 1,
									"numoutlets" : 2,
									"outlettype" : [ "jit_matrix", "" ],
									"patching_rect" : [ 389.0, 65.0, 137.0, 22.0 ],
									"text" : "jit.matrix 4 char 432 100"
								}

							}
 ],
						"lines" : [ 							{
								"patchline" : 								{
									"destination" : [ "obj-36", 0 ],
									"source" : [ "obj-1", 0 ]
								}

							}
, 							{
								"patchline" : 								{
									"destination" : [ "obj-117", 0 ],
									"order" : 1,
									"source" : [ "obj-101", 0 ]
								}

							}
, 							{
								"patchline" : 								{
									"destination" : [ "obj-92", 0 ],
									"order" : 0,
									"source" : [ "obj-101", 0 ]
								}

							}
, 							{
								"patchline" : 								{
									"destination" : [ "obj-118", 0 ],
									"source" : [ "obj-116", 0 ]
								}

							}
, 							{
								"patchline" : 								{
									"destination" : [ "obj-116", 2 ],
									"source" : [ "obj-117", 3 ]
								}

							}
, 							{
								"patchline" : 								{
									"destination" : [ "obj-116", 1 ],
									"source" : [ "obj-117", 2 ]
								}

							}
, 							{
								"patchline" : 								{
									"destination" : [ "obj-116", 0 ],
									"source" : [ "obj-117", 1 ]
								}

							}
, 							{
								"patchline" : 								{
									"destination" : [ "obj-120", 0 ],
									"source" : [ "obj-118", 0 ]
								}

							}
, 							{
								"patchline" : 								{
									"destination" : [ "obj-119", 0 ],
									"order" : 1,
									"source" : [ "obj-120", 0 ]
								}

							}
, 							{
								"patchline" : 								{
									"destination" : [ "obj-150", 1 ],
									"order" : 0,
									"source" : [ "obj-120", 0 ]
								}

							}
, 							{
								"patchline" : 								{
									"destination" : [ "obj-151", 0 ],
									"source" : [ "obj-149", 0 ]
								}

							}
, 							{
								"patchline" : 								{
									"destination" : [ "obj-152", 0 ],
									"source" : [ "obj-150", 0 ]
								}

							}
, 							{
								"patchline" : 								{
									"destination" : [ "obj-152", 1 ],
									"source" : [ "obj-151", 0 ]
								}

							}
, 							{
								"patchline" : 								{
									"destination" : [ "obj-2", 0 ],
									"source" : [ "obj-152", 0 ]
								}

							}
, 							{
								"patchline" : 								{
									"destination" : [ "obj-51", 0 ],
									"source" : [ "obj-36", 0 ]
								}

							}
, 							{
								"patchline" : 								{
									"destination" : [ "obj-56", 0 ],
									"source" : [ "obj-50", 0 ]
								}

							}
, 							{
								"patchline" : 								{
									"destination" : [ "obj-50", 0 ],
									"source" : [ "obj-51", 0 ]
								}

							}
, 							{
								"patchline" : 								{
									"destination" : [ "obj-149", 0 ],
									"order" : 1,
									"source" : [ "obj-56", 0 ]
								}

							}
, 							{
								"patchline" : 								{
									"destination" : [ "obj-150", 0 ],
									"order" : 0,
									"source" : [ "obj-56", 0 ]
								}

							}
, 							{
								"patchline" : 								{
									"destination" : [ "obj-93", 2 ],
									"source" : [ "obj-92", 3 ]
								}

							}
, 							{
								"patchline" : 								{
									"destination" : [ "obj-93", 1 ],
									"source" : [ "obj-92", 2 ]
								}

							}
, 							{
								"patchline" : 								{
									"destination" : [ "obj-93", 0 ],
									"source" : [ "obj-92", 1 ]
								}

							}
, 							{
								"patchline" : 								{
									"destination" : [ "obj-97", 0 ],
									"source" : [ "obj-93", 0 ]
								}

							}
, 							{
								"patchline" : 								{
									"destination" : [ "obj-151", 1 ],
									"order" : 0,
									"source" : [ "obj-94", 0 ]
								}

							}
, 							{
								"patchline" : 								{
									"destination" : [ "obj-95", 0 ],
									"order" : 1,
									"source" : [ "obj-94", 0 ]
								}

							}
, 							{
								"patchline" : 								{
									"destination" : [ "obj-94", 0 ],
									"source" : [ "obj-97", 0 ]
								}

							}
, 							{
								"patchline" : 								{
									"destination" : [ "obj-120", 0 ],
									"midpoints" : [ 61.5, 606.0, 233.0, 606.0, 233.0, 477.0, 247.0, 477.0 ],
									"order" : 0,
									"source" : [ "obj-98", 0 ]
								}

							}
, 							{
								"patchline" : 								{
									"destination" : [ "obj-94", 0 ],
									"order" : 1,
									"source" : [ "obj-98", 0 ]
								}

							}
 ],
						"styles" : [ 							{
								"name" : "AudioStatus_Menu",
								"default" : 								{
									"bgfillcolor" : 									{
										"type" : "color",
										"color" : [ 0.294118, 0.313726, 0.337255, 1 ],
										"color1" : [ 0.454902, 0.462745, 0.482353, 0.0 ],
										"color2" : [ 0.290196, 0.309804, 0.301961, 1.0 ],
										"angle" : 270.0,
										"proportion" : 0.39,
										"autogradient" : 0
									}

								}
,
								"parentstyle" : "",
								"multi" : 0
							}
, 							{
								"name" : "newobjBlue-1",
								"default" : 								{
									"accentcolor" : [ 0.317647, 0.654902, 0.976471, 1.0 ]
								}
,
								"parentstyle" : "",
								"multi" : 0
							}
, 							{
								"name" : "newobjBronze",
								"default" : 								{
									"accentcolor" : [ 0.654902, 0.572549, 0.376471, 1.0 ]
								}
,
								"parentstyle" : "newobjYellow",
								"multi" : 0
							}
, 							{
								"name" : "newobjCyan-1",
								"default" : 								{
									"accentcolor" : [ 0.022882, 0.848654, 0.85423, 1.0 ]
								}
,
								"parentstyle" : "",
								"multi" : 0
							}
, 							{
								"name" : "newobjGold-1",
								"default" : 								{
									"accentcolor" : [ 0.764706, 0.592157, 0.101961, 1.0 ]
								}
,
								"parentstyle" : "",
								"multi" : 0
							}
, 							{
								"name" : "newobjMagenta-1",
								"default" : 								{
									"accentcolor" : [ 0.840663, 0.060168, 0.769195, 1.0 ]
								}
,
								"parentstyle" : "",
								"multi" : 0
							}
, 							{
								"name" : "newobjRed-1",
								"default" : 								{
									"accentcolor" : [ 0.784314, 0.145098, 0.023529, 1.0 ]
								}
,
								"parentstyle" : "",
								"multi" : 0
							}
, 							{
								"name" : "newobjYellow-1",
								"default" : 								{
									"accentcolor" : [ 0.82517, 0.78181, 0.059545, 1.0 ],
									"fontsize" : [ 12.059008 ]
								}
,
								"parentstyle" : "",
								"multi" : 0
							}
, 							{
								"name" : "numberB-1",
								"default" : 								{
									"accentcolor" : [ 0.011765, 0.396078, 0.752941, 1.0 ]
								}
,
								"parentstyle" : "",
								"multi" : 0
							}
, 							{
								"name" : "numberG-1",
								"default" : 								{
									"accentcolor" : [ 0.0, 0.533333, 0.168627, 1.0 ]
								}
,
								"parentstyle" : "",
								"multi" : 0
							}
, 							{
								"name" : "numberGold-1",
								"default" : 								{
									"accentcolor" : [ 0.764706, 0.592157, 0.101961, 1.0 ]
								}
,
								"parentstyle" : "",
								"multi" : 0
							}
, 							{
								"name" : "numberR-1",
								"default" : 								{
									"accentcolor" : [ 0.784314, 0.145098, 0.023529, 1.0 ]
								}
,
								"parentstyle" : "",
								"multi" : 0
							}
 ]
					}
,
					"patching_rect" : [ 522.0, 691.0, 68.0, 22.0 ],
					"saved_object_attributes" : 					{
						"description" : "",
						"digest" : "",
						"globalpatchername" : "",
						"tags" : ""
					}
,
					"text" : "patcher fx1",
					"varname" : "fx1"
				}

			}
, 			{
				"box" : 				{
					"id" : "obj-103",
					"maxclass" : "newobj",
					"numinlets" : 2,
					"numoutlets" : 2,
					"outlettype" : [ "jit_matrix", "" ],
					"patching_rect" : [ 1140.0, 476.0, 44.0, 22.0 ],
					"text" : "jit.expr"
				}

			}
, 			{
				"box" : 				{
					"fontface" : 0,
					"fontname" : "Arial",
					"fontsize" : 12.0,
					"id" : "obj-59",
					"maxclass" : "jit.fpsgui",
					"numinlets" : 1,
					"numoutlets" : 2,
					"outlettype" : [ "", "" ],
					"patching_rect" : [ 636.0, 991.0, 80.0, 35.0 ]
				}

			}
, 			{
				"box" : 				{
					"id" : "obj-42",
					"maxclass" : "jit.pwindow",
					"numinlets" : 1,
					"numoutlets" : 2,
					"outlettype" : [ "", "" ],
					"patching_rect" : [ 726.0, 824.0, 898.0, 202.0 ]
				}

			}
, 			{
				"box" : 				{
					"attr" : "y_range",
					"attrfilter" : [ "y_range" ],
					"fontface" : 0,
					"fontname" : "Arial",
					"fontsize" : 13.0,
					"id" : "obj-24",
					"lock" : 1,
					"maxclass" : "attrui",
					"numinlets" : 1,
					"numoutlets" : 1,
					"outlettype" : [ "" ],
					"patching_rect" : [ 1003.5, 368.0, 115.0, 23.0 ],
					"text_width" : 71.0
				}

			}
, 			{
				"box" : 				{
					"attr" : "x_range",
					"attrfilter" : [ "x_range" ],
					"fontface" : 0,
					"fontname" : "Arial",
					"fontsize" : 13.0,
					"id" : "obj-39",
					"lock" : 1,
					"maxclass" : "attrui",
					"numinlets" : 1,
					"numoutlets" : 1,
					"outlettype" : [ "" ],
					"patching_rect" : [ 1003.5, 326.0, 115.0, 23.0 ],
					"text_width" : 62.0
				}

			}
, 			{
				"box" : 				{
					"attr" : "prob",
					"attrfilter" : [ "prob" ],
					"fontface" : 0,
					"fontname" : "Arial",
					"fontsize" : 13.0,
					"id" : "obj-41",
					"lock" : 1,
					"maxclass" : "attrui",
					"numinlets" : 1,
					"numoutlets" : 1,
					"outlettype" : [ "" ],
					"patching_rect" : [ 1003.5, 279.0, 115.0, 23.0 ],
					"text_width" : 78.0
				}

			}
, 			{
				"box" : 				{
					"id" : "obj-22",
					"maxclass" : "newobj",
					"numinlets" : 1,
					"numoutlets" : 2,
					"outlettype" : [ "bang", "" ],
					"patching_rect" : [ 882.0, 519.0, 61.0, 22.0 ],
					"text" : "jit.window"
				}

			}
, 			{
				"box" : 				{
					"id" : "obj-15",
					"maxclass" : "jit.pwindow",
					"numinlets" : 1,
					"numoutlets" : 2,
					"outlettype" : [ "", "" ],
					"patching_rect" : [ 662.0, 599.0, 260.0, 165.0 ]
				}

			}
, 			{
				"box" : 				{
					"id" : "obj-9",
					"maxclass" : "newobj",
					"numinlets" : 2,
					"numoutlets" : 1,
					"outlettype" : [ "bang" ],
					"patching_rect" : [ 447.0, 443.0, 41.0, 22.0 ],
					"text" : "del 20"
				}

			}
, 			{
				"box" : 				{
					"id" : "obj-12",
					"maxclass" : "button",
					"numinlets" : 1,
					"numoutlets" : 1,
					"outlettype" : [ "bang" ],
					"parameter_enable" : 0,
					"patching_rect" : [ 447.0, 403.0, 24.0, 24.0 ]
				}

			}
, 			{
				"box" : 				{
					"id" : "obj-6",
					"maxclass" : "newobj",
					"numinlets" : 1,
					"numoutlets" : 1,
					"outlettype" : [ "" ],
					"patching_rect" : [ 3.0, 393.0, 105.0, 22.0 ],
					"text" : "loadmess compile"
				}

			}
, 			{
				"box" : 				{
					"id" : "obj-35",
					"maxclass" : "jit.pwindow",
					"numinlets" : 1,
					"numoutlets" : 2,
					"outlettype" : [ "", "" ],
					"patching_rect" : [ 11.0, 678.0, 258.0, 55.0 ]
				}

			}
, 			{
				"box" : 				{
					"id" : "obj-34",
					"maxclass" : "jit.pwindow",
					"numinlets" : 1,
					"numoutlets" : 2,
					"outlettype" : [ "", "" ],
					"patching_rect" : [ 11.0, 613.0, 258.0, 55.0 ]
				}

			}
, 			{
				"box" : 				{
					"id" : "obj-33",
					"maxclass" : "jit.pwindow",
					"numinlets" : 1,
					"numoutlets" : 2,
					"outlettype" : [ "", "" ],
					"patching_rect" : [ 11.0, 549.0, 258.0, 55.0 ]
				}

			}
, 			{
				"box" : 				{
					"id" : "obj-32",
					"maxclass" : "newobj",
					"numinlets" : 4,
					"numoutlets" : 4,
					"outlettype" : [ "", "", "", "" ],
					"patching_rect" : [ 317.5, 393.0, 66.0, 22.0 ],
					"text" : "route 1 2 3"
				}

			}
, 			{
				"box" : 				{
					"id" : "obj-31",
					"maxclass" : "newobj",
					"numinlets" : 0,
					"numoutlets" : 1,
					"outlettype" : [ "" ],
					"patching_rect" : [ 323.0, 359.0, 55.0, 22.0 ],
					"text" : "r phases"
				}

			}
, 			{
				"box" : 				{
					"id" : "obj-30",
					"maxclass" : "newobj",
					"numinlets" : 3,
					"numoutlets" : 1,
					"outlettype" : [ "jit_matrix" ],
					"patching_rect" : [ 304.0, 469.0, 71.0, 22.0 ],
					"text" : "repositioner"
				}

			}
, 			{
				"box" : 				{
					"id" : "obj-29",
					"maxclass" : "newobj",
					"numinlets" : 3,
					"numoutlets" : 1,
					"outlettype" : [ "jit_matrix" ],
					"patching_rect" : [ 209.0, 469.0, 71.0, 22.0 ],
					"text" : "repositioner"
				}

			}
, 			{
				"box" : 				{
					"id" : "obj-28",
					"maxclass" : "newobj",
					"numinlets" : 1,
					"numoutlets" : 0,
					"patching_rect" : [ 122.666664123535156, 165.0, 57.0, 22.0 ],
					"text" : "s phases"
				}

			}
, 			{
				"box" : 				{
					"id" : "obj-27",
					"maxclass" : "newobj",
					"numinlets" : 3,
					"numoutlets" : 1,
					"outlettype" : [ "jit_matrix" ],
					"patching_rect" : [ 117.0, 465.0, 71.0, 22.0 ],
					"text" : "repositioner"
				}

			}
, 			{
				"box" : 				{
					"id" : "obj-26",
					"maxclass" : "newobj",
					"numinlets" : 3,
					"numoutlets" : 2,
					"outlettype" : [ "jit_matrix", "" ],
					"patching_rect" : [ 649.5, 528.0, 164.0, 22.0 ],
					"text" : "jit.glue @rows 3 @columns 1"
				}

			}
, 			{
				"box" : 				{
					"id" : "obj-25",
					"maxclass" : "newobj",
					"numinlets" : 1,
					"numoutlets" : 4,
					"outlettype" : [ "jit_matrix", "jit_matrix", "jit_matrix", "" ],
					"patching_rect" : [ 126.0, 379.0, 115.0, 22.0 ],
					"text" : "jit.scissors @rows 3"
				}

			}
, 			{
				"box" : 				{
					"id" : "obj-20",
					"maxclass" : "newobj",
					"numinlets" : 1,
					"numoutlets" : 2,
					"outlettype" : [ "jit_matrix", "" ],
					"patching_rect" : [ 1022.0, 410.0, 41.0, 22.0 ],
					"text" : "jit.plur"
				}

			}
, 			{
				"box" : 				{
					"id" : "obj-5",
					"maxclass" : "newobj",
					"numinlets" : 1,
					"numoutlets" : 1,
					"outlettype" : [ "bang" ],
					"patching_rect" : [ 828.0, 74.0, 60.0, 22.0 ],
					"text" : "loadbang"
				}

			}
, 			{
				"box" : 				{
					"id" : "obj-21",
					"maxclass" : "message",
					"numinlets" : 2,
					"numoutlets" : 1,
					"outlettype" : [ "" ],
					"patching_rect" : [ 363.0, 208.0, 52.0, 22.0 ],
					"text" : "logData"
				}

			}
, 			{
				"box" : 				{
					"id" : "obj-19",
					"maxclass" : "newobj",
					"numinlets" : 1,
					"numoutlets" : 2,
					"outlettype" : [ "jit_matrix", "" ],
					"patching_rect" : [ 60.0, 335.0, 125.0, 22.0 ],
					"text" : "jit.matrix 1 char 432 3"
				}

			}
, 			{
				"box" : 				{
					"id" : "obj-17",
					"maxclass" : "toggle",
					"numinlets" : 1,
					"numoutlets" : 1,
					"outlettype" : [ "int" ],
					"parameter_enable" : 0,
					"patching_rect" : [ 300.0, 223.0, 24.0, 24.0 ]
				}

			}
, 			{
				"box" : 				{
					"id" : "obj-16",
					"maxclass" : "newobj",
					"numinlets" : 2,
					"numoutlets" : 1,
					"outlettype" : [ "bang" ],
					"patching_rect" : [ 300.0, 268.0, 63.0, 22.0 ],
					"text" : "qmetro 33"
				}

			}
, 			{
				"box" : 				{
					"id" : "obj-13",
					"maxclass" : "newobj",
					"numinlets" : 1,
					"numoutlets" : 1,
					"outlettype" : [ "" ],
					"patching_rect" : [ 247.0, 183.0, 95.0, 22.0 ],
					"text" : "prepend pattern"
				}

			}
, 			{
				"box" : 				{
					"id" : "obj-11",
					"maxclass" : "newobj",
					"numinlets" : 1,
					"numoutlets" : 1,
					"outlettype" : [ "" ],
					"patching_rect" : [ 17.0, 183.0, 91.0, 22.0 ],
					"text" : "prepend hitInfo"
				}

			}
, 			{
				"box" : 				{
					"id" : "obj-8",
					"maxclass" : "newobj",
					"numinlets" : 1,
					"numoutlets" : 4,
					"outlettype" : [ "", "", "", "" ],
					"patching_rect" : [ 60.0, 112.0, 207.0, 22.0 ],
					"text" : "OSC-route /hitInfo /phaseVal /pattern"
				}

			}
, 			{
				"box" : 				{
					"fontsize" : 11.0,
					"id" : "obj-52",
					"maxclass" : "newobj",
					"numinlets" : 1,
					"numoutlets" : 3,
					"outlettype" : [ "", "", "OSCTimeTag" ],
					"patching_rect" : [ 67.5, 48.500061000000002, 132.0, 21.0 ],
					"text" : "OpenSoundControl 6000"
				}

			}
, 			{
				"box" : 				{
					"fontsize" : 11.0,
					"id" : "obj-53",
					"maxclass" : "newobj",
					"numinlets" : 1,
					"numoutlets" : 1,
					"outlettype" : [ "" ],
					"patching_rect" : [ 67.5, 14.5, 149.0, 21.0 ],
					"text" : "udpreceive 5432 cnmat"
				}

			}
, 			{
				"box" : 				{
					"id" : "obj-7",
					"maxclass" : "message",
					"numinlets" : 2,
					"numoutlets" : 1,
					"outlettype" : [ "" ],
					"patching_rect" : [ 859.0, 276.0, 85.0, 22.0 ],
					"text" : "fillplane 0 128"
				}

			}
, 			{
				"box" : 				{
					"id" : "obj-4",
					"maxclass" : "jit.pwindow",
					"numinlets" : 1,
					"numoutlets" : 2,
					"outlettype" : [ "", "" ],
					"patching_rect" : [ 516.0, 335.0, 80.0, 60.0 ]
				}

			}
, 			{
				"box" : 				{
					"id" : "obj-3",
					"maxclass" : "newobj",
					"numinlets" : 1,
					"numoutlets" : 2,
					"outlettype" : [ "jit_matrix", "" ],
					"patching_rect" : [ 642.0, 304.0, 179.0, 22.0 ],
					"text" : "jit.matrix grey 1 char 1000 1000"
				}

			}
, 			{
				"box" : 				{
					"id" : "obj-140",
					"maxclass" : "jit.pwindow",
					"numinlets" : 1,
					"numoutlets" : 2,
					"outlettype" : [ "", "" ],
					"patching_rect" : [ 516.0, 255.0, 80.0, 60.0 ]
				}

			}
, 			{
				"box" : 				{
					"id" : "obj-139",
					"maxclass" : "jit.pwindow",
					"numinlets" : 1,
					"numoutlets" : 2,
					"outlettype" : [ "", "" ],
					"patching_rect" : [ 511.0, 187.0, 80.0, 60.0 ]
				}

			}
, 			{
				"box" : 				{
					"id" : "obj-138",
					"maxclass" : "button",
					"numinlets" : 1,
					"numoutlets" : 1,
					"outlettype" : [ "bang" ],
					"parameter_enable" : 0,
					"patching_rect" : [ 840.0, 144.0, 24.0, 24.0 ]
				}

			}
, 			{
				"box" : 				{
					"id" : "obj-136",
					"maxclass" : "message",
					"numinlets" : 2,
					"numoutlets" : 1,
					"outlettype" : [ "" ],
					"patching_rect" : [ 878.0, 229.0, 86.0, 22.0 ],
					"text" : "fillplane 0 255"
				}

			}
, 			{
				"box" : 				{
					"id" : "obj-129",
					"maxclass" : "message",
					"numinlets" : 2,
					"numoutlets" : 1,
					"outlettype" : [ "" ],
					"patching_rect" : [ 878.0, 183.0, 69.0, 22.0 ],
					"text" : "fillplane 0 0"
				}

			}
, 			{
				"box" : 				{
					"id" : "obj-126",
					"maxclass" : "newobj",
					"numinlets" : 1,
					"numoutlets" : 2,
					"outlettype" : [ "jit_matrix", "" ],
					"patching_rect" : [ 638.0, 255.0, 181.0, 22.0 ],
					"text" : "jit.matrix white 1 char 1000 1000"
				}

			}
, 			{
				"box" : 				{
					"id" : "obj-125",
					"maxclass" : "newobj",
					"numinlets" : 1,
					"numoutlets" : 2,
					"outlettype" : [ "jit_matrix", "" ],
					"patching_rect" : [ 638.0, 210.0, 177.0, 22.0 ],
					"text" : "jit.matrix black 1 char 1000 100"
				}

			}
, 			{
				"box" : 				{
					"id" : "obj-2",
					"maxclass" : "newobj",
					"numinlets" : 1,
					"numoutlets" : 1,
					"outlettype" : [ "" ],
					"patching_rect" : [ 60.0, 293.0, 195.0, 22.0 ],
					"saved_object_attributes" : 					{
						"filename" : "phaseVisuals2.js",
						"parameter_enable" : 0
					}
,
					"text" : "js phaseVisuals2.js phaseTemplate"
				}

			}
, 			{
				"box" : 				{
					"id" : "obj-1",
					"maxclass" : "newobj",
					"numinlets" : 1,
					"numoutlets" : 2,
					"outlettype" : [ "jit_matrix", "" ],
					"patching_rect" : [ 539.0, 107.0, 217.0, 22.0 ],
					"text" : "jit.matrix phaseTemplate 1 char 1000 3"
				}

			}
 ],
		"lines" : [ 			{
				"patchline" : 				{
					"destination" : [ "obj-2", 0 ],
					"source" : [ "obj-11", 0 ]
				}

			}
, 			{
				"patchline" : 				{
					"destination" : [ "obj-9", 0 ],
					"source" : [ "obj-12", 0 ]
				}

			}
, 			{
				"patchline" : 				{
					"destination" : [ "obj-139", 0 ],
					"source" : [ "obj-125", 0 ]
				}

			}
, 			{
				"patchline" : 				{
					"destination" : [ "obj-140", 0 ],
					"source" : [ "obj-126", 0 ]
				}

			}
, 			{
				"patchline" : 				{
					"destination" : [ "obj-125", 0 ],
					"source" : [ "obj-129", 0 ]
				}

			}
, 			{
				"patchline" : 				{
					"destination" : [ "obj-2", 0 ],
					"source" : [ "obj-13", 0 ]
				}

			}
, 			{
				"patchline" : 				{
					"destination" : [ "obj-126", 0 ],
					"source" : [ "obj-136", 0 ]
				}

			}
, 			{
				"patchline" : 				{
					"destination" : [ "obj-125", 0 ],
					"order" : 2,
					"source" : [ "obj-138", 0 ]
				}

			}
, 			{
				"patchline" : 				{
					"destination" : [ "obj-126", 0 ],
					"order" : 1,
					"source" : [ "obj-138", 0 ]
				}

			}
, 			{
				"patchline" : 				{
					"destination" : [ "obj-3", 0 ],
					"order" : 0,
					"source" : [ "obj-138", 0 ]
				}

			}
, 			{
				"patchline" : 				{
					"destination" : [ "obj-161", 0 ],
					"source" : [ "obj-153", 0 ]
				}

			}
, 			{
				"patchline" : 				{
					"destination" : [ "obj-154", 0 ],
					"source" : [ "obj-155", 0 ]
				}

			}
, 			{
				"patchline" : 				{
					"destination" : [ "obj-156", 0 ],
					"source" : [ "obj-157", 0 ]
				}

			}
, 			{
				"patchline" : 				{
					"destination" : [ "obj-161", 1 ],
					"source" : [ "obj-158", 0 ]
				}

			}
, 			{
				"patchline" : 				{
					"destination" : [ "obj-161", 2 ],
					"source" : [ "obj-159", 0 ]
				}

			}
, 			{
				"patchline" : 				{
					"destination" : [ "obj-2", 0 ],
					"source" : [ "obj-16", 0 ]
				}

			}
, 			{
				"patchline" : 				{
					"destination" : [ "obj-162", 0 ],
					"source" : [ "obj-160", 0 ]
				}

			}
, 			{
				"patchline" : 				{
					"destination" : [ "obj-160", 0 ],
					"order" : 0,
					"source" : [ "obj-161", 0 ]
				}

			}
, 			{
				"patchline" : 				{
					"destination" : [ "obj-22", 0 ],
					"order" : 1,
					"source" : [ "obj-161", 0 ]
				}

			}
, 			{
				"patchline" : 				{
					"destination" : [ "obj-12", 0 ],
					"order" : 0,
					"source" : [ "obj-17", 0 ]
				}

			}
, 			{
				"patchline" : 				{
					"destination" : [ "obj-16", 0 ],
					"order" : 1,
					"source" : [ "obj-17", 0 ]
				}

			}
, 			{
				"patchline" : 				{
					"destination" : [ "obj-25", 0 ],
					"source" : [ "obj-19", 0 ]
				}

			}
, 			{
				"patchline" : 				{
					"destination" : [ "obj-19", 0 ],
					"source" : [ "obj-2", 0 ]
				}

			}
, 			{
				"patchline" : 				{
					"destination" : [ "obj-2", 0 ],
					"source" : [ "obj-21", 0 ]
				}

			}
, 			{
				"patchline" : 				{
					"destination" : [ "obj-27", 0 ],
					"source" : [ "obj-25", 0 ]
				}

			}
, 			{
				"patchline" : 				{
					"destination" : [ "obj-29", 0 ],
					"source" : [ "obj-25", 1 ]
				}

			}
, 			{
				"patchline" : 				{
					"destination" : [ "obj-30", 0 ],
					"source" : [ "obj-25", 2 ]
				}

			}
, 			{
				"patchline" : 				{
					"destination" : [ "obj-15", 0 ],
					"source" : [ "obj-26", 0 ]
				}

			}
, 			{
				"patchline" : 				{
					"destination" : [ "obj-153", 0 ],
					"order" : 0,
					"source" : [ "obj-27", 0 ]
				}

			}
, 			{
				"patchline" : 				{
					"destination" : [ "obj-33", 0 ],
					"midpoints" : [ 126.5, 517.5, 20.5, 517.5 ],
					"order" : 1,
					"source" : [ "obj-27", 0 ]
				}

			}
, 			{
				"patchline" : 				{
					"destination" : [ "obj-158", 0 ],
					"order" : 0,
					"source" : [ "obj-29", 0 ]
				}

			}
, 			{
				"patchline" : 				{
					"destination" : [ "obj-34", 0 ],
					"midpoints" : [ 218.5, 529.5, 20.5, 529.5 ],
					"order" : 1,
					"source" : [ "obj-29", 0 ]
				}

			}
, 			{
				"patchline" : 				{
					"destination" : [ "obj-4", 0 ],
					"source" : [ "obj-3", 0 ]
				}

			}
, 			{
				"patchline" : 				{
					"destination" : [ "obj-159", 0 ],
					"order" : 0,
					"source" : [ "obj-30", 0 ]
				}

			}
, 			{
				"patchline" : 				{
					"destination" : [ "obj-35", 0 ],
					"midpoints" : [ 313.5, 541.0, 20.5, 541.0 ],
					"order" : 1,
					"source" : [ "obj-30", 0 ]
				}

			}
, 			{
				"patchline" : 				{
					"destination" : [ "obj-32", 0 ],
					"source" : [ "obj-31", 0 ]
				}

			}
, 			{
				"patchline" : 				{
					"destination" : [ "obj-27", 1 ],
					"source" : [ "obj-32", 0 ]
				}

			}
, 			{
				"patchline" : 				{
					"destination" : [ "obj-29", 1 ],
					"source" : [ "obj-32", 1 ]
				}

			}
, 			{
				"patchline" : 				{
					"destination" : [ "obj-30", 1 ],
					"source" : [ "obj-32", 2 ]
				}

			}
, 			{
				"patchline" : 				{
					"destination" : [ "obj-59", 0 ],
					"source" : [ "obj-42", 0 ]
				}

			}
, 			{
				"patchline" : 				{
					"destination" : [ "obj-129", 0 ],
					"order" : 1,
					"source" : [ "obj-5", 0 ]
				}

			}
, 			{
				"patchline" : 				{
					"destination" : [ "obj-136", 0 ],
					"order" : 0,
					"source" : [ "obj-5", 0 ]
				}

			}
, 			{
				"patchline" : 				{
					"destination" : [ "obj-138", 0 ],
					"order" : 3,
					"source" : [ "obj-5", 0 ]
				}

			}
, 			{
				"patchline" : 				{
					"destination" : [ "obj-7", 0 ],
					"order" : 2,
					"source" : [ "obj-5", 0 ]
				}

			}
, 			{
				"patchline" : 				{
					"destination" : [ "obj-8", 0 ],
					"source" : [ "obj-52", 1 ]
				}

			}
, 			{
				"patchline" : 				{
					"destination" : [ "obj-52", 0 ],
					"source" : [ "obj-53", 0 ]
				}

			}
, 			{
				"patchline" : 				{
					"destination" : [ "obj-2", 0 ],
					"source" : [ "obj-6", 0 ]
				}

			}
, 			{
				"patchline" : 				{
					"destination" : [ "obj-3", 0 ],
					"source" : [ "obj-7", 0 ]
				}

			}
, 			{
				"patchline" : 				{
					"destination" : [ "obj-11", 0 ],
					"source" : [ "obj-8", 0 ]
				}

			}
, 			{
				"patchline" : 				{
					"destination" : [ "obj-13", 0 ],
					"source" : [ "obj-8", 2 ]
				}

			}
, 			{
				"patchline" : 				{
					"destination" : [ "obj-28", 0 ],
					"source" : [ "obj-8", 1 ]
				}

			}
, 			{
				"patchline" : 				{
					"destination" : [ "obj-27", 2 ],
					"order" : 2,
					"source" : [ "obj-9", 0 ]
				}

			}
, 			{
				"patchline" : 				{
					"destination" : [ "obj-29", 2 ],
					"order" : 1,
					"source" : [ "obj-9", 0 ]
				}

			}
, 			{
				"patchline" : 				{
					"destination" : [ "obj-30", 2 ],
					"order" : 0,
					"source" : [ "obj-9", 0 ]
				}

			}
 ],
		"parameters" : 		{
			"obj-159::obj-56::obj-28" : [ "pictctrl[79]", "pictctrl[1]", 0 ],
			"obj-158::obj-50::obj-47" : [ "pictctrl[212]", "pictctrl[1]", 0 ],
			"obj-153::obj-51::obj-110" : [ "pictctrl[9]", "pictctrl[1]", 0 ],
			"obj-158::obj-92::obj-276" : [ "FreqMode[6]", "FreqMode", 0 ],
			"obj-158::obj-51::obj-13" : [ "pictctrl[52]", "pictctrl[1]", 0 ],
			"obj-159::obj-51::obj-13" : [ "pictctrl[81]", "pictctrl[1]", 0 ],
			"obj-153::obj-117::obj-31" : [ "pictctrl[32]", "pictctrl[1]", 0 ],
			"obj-159::obj-50::obj-53" : [ "pictctrl[51]", "pictctrl[1]", 0 ],
			"obj-153::obj-51::obj-14" : [ "range[5]", "range", 0 ],
			"obj-159::obj-117::obj-36" : [ "pictctrl[62]", "pictctrl[1]", 0 ],
			"obj-159::obj-51::obj-116" : [ "tilingprob[2]", "tiling probatility", 0 ],
			"obj-158::obj-51::obj-29" : [ "vertical", "vertical", 0 ],
			"obj-158::obj-51::obj-68" : [ "horizontal", "horizontal", 0 ],
			"obj-153::obj-56::obj-79" : [ "pictctrl[58]", "pictctrl[1]", 0 ],
			"obj-158::obj-51::obj-14" : [ "range[3]", "range", 0 ],
			"obj-159::obj-117::obj-85" : [ "pictctrl[63]", "pictctrl[1]", 0 ],
			"obj-159::obj-50::obj-54" : [ "umenu[10]", "umenu", 0 ],
			"obj-158::obj-51::obj-100" : [ "pictctrl[56]", "pictctrl[1]", 0 ],
			"obj-153::obj-117::obj-8" : [ "pictctrl[30]", "pictctrl[1]", 0 ],
			"obj-159::obj-51::obj-107" : [ "pictctrl[80]", "pictctrl[1]", 0 ],
			"obj-153::obj-56::obj-28" : [ "pictctrl[40]", "pictctrl[1]", 0 ],
			"obj-159::obj-51::obj-110" : [ "pictctrl[84]", "pictctrl[1]", 0 ],
			"obj-153::obj-92::obj-37" : [ "pictctrl[34]", "pictctrl[1]", 0 ],
			"obj-159::obj-51::obj-68" : [ "horizontal[7]", "horizontal", 0 ],
			"obj-159::obj-50::obj-94" : [ "umenu[11]", "umenu", 0 ],
			"obj-158::obj-117::obj-85" : [ "pictctrl[4]", "pictctrl[1]", 0 ],
			"obj-158::obj-50::obj-41" : [ "pictctrl[213]", "pictctrl[1]", 0 ],
			"obj-159::obj-92::obj-36" : [ "pictctrl[73]", "pictctrl[1]", 0 ],
			"obj-159::obj-50::obj-41" : [ "pictctrl[85]", "pictctrl[1]", 0 ],
			"obj-158::obj-117::obj-276" : [ "FreqMode[4]", "FreqMode", 0 ],
			"obj-158::obj-92::obj-82" : [ "pictctrl[45]", "pictctrl[1]", 0 ],
			"obj-159::obj-51::obj-29" : [ "vertical[7]", "vertical", 0 ],
			"obj-153::obj-56::obj-98" : [ "vertical[2]", "vertical", 0 ],
			"obj-158::obj-50::obj-53" : [ "pictctrl[214]", "pictctrl[1]", 0 ],
			"obj-153::obj-51::obj-13" : [ "pictctrl[60]", "pictctrl[1]", 0 ],
			"obj-158::obj-51::obj-115" : [ "pictctrl[54]", "pictctrl[1]", 0 ],
			"obj-159::obj-50::obj-16" : [ "horizontal[8]", "horizontal", 0 ],
			"obj-153::obj-92::obj-82" : [ "pictctrl[37]", "pictctrl[1]", 0 ],
			"obj-158::obj-51::obj-121" : [ "offsetprob", "offset probability", 0 ],
			"obj-153::obj-51::obj-68" : [ "horizontal[3]", "horizontal", 0 ],
			"obj-159::obj-51::obj-14" : [ "range[8]", "range", 0 ],
			"obj-158::obj-51::obj-8" : [ "FreqMode[15]", "FreqMode", 0 ],
			"obj-153::obj-117::obj-276" : [ "FreqMode[2]", "FreqMode", 0 ],
			"obj-153::obj-117::obj-117" : [ "textbutton[2]", "textbutton[1]", 0 ],
			"obj-153::obj-51::obj-121" : [ "offsetprob[1]", "offset probability", 0 ],
			"obj-159::obj-50::obj-2" : [ "range[9]", "range", 0 ],
			"obj-153::obj-50::obj-41" : [ "pictctrl[43]", "pictctrl[1]", 0 ],
			"obj-158::obj-50::obj-94" : [ "umenu[8]", "umenu", 0 ],
			"obj-158::obj-50::obj-54" : [ "umenu[3]", "umenu", 0 ],
			"obj-159::obj-117::obj-31" : [ "pictctrl[26]", "pictctrl[1]", 0 ],
			"obj-153::obj-117::obj-93" : [ "swatch[2]", "swatch", 0 ],
			"obj-158::obj-92::obj-8" : [ "pictctrl[24]", "pictctrl[1]", 0 ],
			"obj-159::obj-51::obj-100" : [ "pictctrl[83]", "pictctrl[1]", 0 ],
			"obj-158::obj-117::obj-31" : [ "pictctrl[23]", "pictctrl[1]", 0 ],
			"obj-159::obj-117::obj-37" : [ "pictctrl[50]", "pictctrl[1]", 0 ],
			"obj-153::obj-117::obj-82" : [ "pictctrl[28]", "pictctrl[1]", 0 ],
			"obj-153::obj-117::obj-85" : [ "pictctrl[33]", "pictctrl[1]", 0 ],
			"obj-158::obj-117::obj-37" : [ "pictctrl[19]", "pictctrl[1]", 0 ],
			"obj-159::obj-117::obj-82" : [ "pictctrl[49]", "pictctrl[1]", 0 ],
			"obj-159::obj-51::obj-115" : [ "pictctrl[82]", "pictctrl[1]", 0 ],
			"obj-153::obj-92::obj-36" : [ "pictctrl[36]", "pictctrl[1]", 0 ],
			"obj-153::obj-51::obj-115" : [ "pictctrl[72]", "pictctrl[1]", 0 ],
			"obj-153::obj-50::obj-17" : [ "vertical[5]", "vertical", 0 ],
			"obj-158::obj-51::obj-110" : [ "pictctrl[53]", "pictctrl[1]", 0 ],
			"obj-159::obj-50::obj-47" : [ "pictctrl[68]", "pictctrl[1]", 0 ],
			"obj-153::obj-92::obj-8" : [ "pictctrl[35]", "pictctrl[1]", 0 ],
			"obj-159::obj-117::obj-276" : [ "FreqMode[7]", "FreqMode", 0 ],
			"obj-158::obj-92::obj-85" : [ "pictctrl[48]", "pictctrl[1]", 0 ],
			"obj-153::obj-92::obj-31" : [ "pictctrl[39]", "pictctrl[1]", 0 ],
			"obj-153::obj-51::obj-116" : [ "tilingprob[1]", "tiling probatility", 0 ],
			"obj-153::obj-50::obj-2" : [ "range[6]", "range", 0 ],
			"obj-153::obj-50::obj-94" : [ "umenu[6]", "umenu", 0 ],
			"obj-158::obj-117::obj-117" : [ "textbutton[14]", "textbutton[1]", 0 ],
			"obj-159::obj-50::obj-51" : [ "pictctrl[86]", "pictctrl[1]", 0 ],
			"obj-159::obj-92::obj-93" : [ "swatch[6]", "swatch", 0 ],
			"obj-159::obj-56::obj-37" : [ "umenu[9]", "umenu", 0 ],
			"obj-158::obj-56::obj-16" : [ "range[24]", "range", 0 ],
			"obj-158::obj-56::obj-28" : [ "pictctrl[71]", "pictctrl[1]", 0 ],
			"obj-159::obj-117::obj-8" : [ "pictctrl[64]", "pictctrl[1]", 0 ],
			"obj-159::obj-92::obj-82" : [ "pictctrl[76]", "pictctrl[1]", 0 ],
			"obj-158::obj-50::obj-51" : [ "pictctrl[211]", "pictctrl[1]", 0 ],
			"obj-159::obj-117::obj-93" : [ "swatch[5]", "swatch", 0 ],
			"obj-158::obj-117::obj-36" : [ "pictctrl[22]", "pictctrl[1]", 0 ],
			"obj-159::obj-92::obj-276" : [ "FreqMode[16]", "FreqMode", 0 ],
			"obj-153::obj-92::obj-276" : [ "FreqMode[5]", "FreqMode", 0 ],
			"obj-158::obj-92::obj-31" : [ "pictctrl[46]", "pictctrl[1]", 0 ],
			"obj-158::obj-51::obj-116" : [ "tilingprob", "tiling probatility", 0 ],
			"obj-159::obj-92::obj-117" : [ "textbutton[16]", "textbutton[1]", 0 ],
			"obj-153::obj-56::obj-50" : [ "pictctrl[57]", "pictctrl[1]", 0 ],
			"obj-153::obj-50::obj-47" : [ "pictctrl[41]", "pictctrl[1]", 0 ],
			"obj-158::obj-117::obj-8" : [ "pictctrl[6]", "pictctrl[1]", 0 ],
			"obj-158::obj-56::obj-50" : [ "pictctrl[70]", "pictctrl[1]", 0 ],
			"obj-153::obj-56::obj-16" : [ "range[4]", "range", 0 ],
			"obj-153::obj-51::obj-107" : [ "pictctrl[61]", "pictctrl[1]", 0 ],
			"obj-159::obj-92::obj-85" : [ "pictctrl[66]", "pictctrl[1]", 0 ],
			"obj-153::obj-56::obj-37" : [ "umenu[5]", "umenu", 0 ],
			"obj-153::obj-56::obj-99" : [ "horizontal[2]", "horizontal", 0 ],
			"obj-153::obj-51::obj-8" : [ "FreqMode[3]", "FreqMode", 0 ],
			"obj-158::obj-56::obj-37" : [ "umenu[1]", "umenu", 0 ],
			"obj-159::obj-50::obj-17" : [ "vertical[8]", "vertical", 0 ],
			"obj-158::obj-51::obj-107" : [ "pictctrl[55]", "pictctrl[1]", 0 ],
			"obj-158::obj-56::obj-98" : [ "vertical[1]", "vertical", 0 ],
			"obj-158::obj-92::obj-117" : [ "textbutton[4]", "textbutton[1]", 0 ],
			"obj-158::obj-56::obj-99" : [ "horizontal[1]", "horizontal", 0 ],
			"obj-159::obj-92::obj-31" : [ "pictctrl[67]", "pictctrl[1]", 0 ],
			"obj-158::obj-92::obj-93" : [ "swatch[4]", "swatch", 0 ],
			"obj-159::obj-117::obj-117" : [ "textbutton[15]", "textbutton[1]", 0 ],
			"obj-159::obj-56::obj-79" : [ "pictctrl[78]", "pictctrl[1]", 0 ],
			"obj-159::obj-56::obj-98" : [ "vertical[6]", "vertical", 0 ],
			"obj-153::obj-51::obj-100" : [ "pictctrl[59]", "pictctrl[1]", 0 ],
			"obj-153::obj-50::obj-51" : [ "pictctrl[44]", "pictctrl[1]", 0 ],
			"obj-159::obj-56::obj-99" : [ "horizontal[6]", "horizontal", 0 ],
			"obj-153::obj-117::obj-37" : [ "pictctrl[31]", "pictctrl[1]", 0 ],
			"obj-153::obj-51::obj-29" : [ "vertical[3]", "vertical", 0 ],
			"obj-158::obj-50::obj-17" : [ "vertical[4]", "vertical", 0 ],
			"obj-159::obj-56::obj-50" : [ "pictctrl[77]", "pictctrl[1]", 0 ],
			"obj-153::obj-50::obj-16" : [ "horizontal[5]", "horizontal", 0 ],
			"obj-158::obj-92::obj-36" : [ "pictctrl[47]", "pictctrl[1]", 0 ],
			"obj-158::obj-56::obj-79" : [ "pictctrl[74]", "pictctrl[1]", 0 ],
			"obj-158::obj-50::obj-16" : [ "horizontal[4]", "horizontal", 0 ],
			"obj-159::obj-92::obj-8" : [ "pictctrl[65]", "pictctrl[1]", 0 ],
			"obj-159::obj-51::obj-8" : [ "FreqMode[17]", "FreqMode", 0 ],
			"obj-159::obj-56::obj-16" : [ "range[7]", "range", 0 ],
			"obj-153::obj-50::obj-53" : [ "pictctrl[42]", "pictctrl[1]", 0 ],
			"obj-153::obj-117::obj-36" : [ "pictctrl[29]", "pictctrl[1]", 0 ],
			"obj-158::obj-117::obj-82" : [ "pictctrl[5]", "pictctrl[1]", 0 ],
			"obj-159::obj-51::obj-121" : [ "offsetprob[2]", "offset probability", 0 ],
			"obj-153::obj-50::obj-54" : [ "umenu[7]", "umenu", 0 ],
			"obj-153::obj-92::obj-85" : [ "pictctrl[38]", "pictctrl[1]", 0 ],
			"obj-153::obj-92::obj-93" : [ "swatch[3]", "swatch", 0 ],
			"obj-158::obj-92::obj-37" : [ "pictctrl[25]", "pictctrl[1]", 0 ],
			"obj-158::obj-50::obj-2" : [ "range[27]", "range", 0 ],
			"obj-153::obj-92::obj-117" : [ "textbutton[3]", "textbutton[1]", 0 ],
			"obj-158::obj-117::obj-93" : [ "swatch", "swatch", 0 ],
			"obj-159::obj-92::obj-37" : [ "pictctrl[75]", "pictctrl[1]", 0 ],
			"parameterbanks" : 			{

			}

		}
,
		"dependency_cache" : [ 			{
				"name" : "phaseVisuals2.js",
				"bootpath" : "~/MUS7100_Fall_2017/Interface-2/hyperphase",
				"patcherrelativepath" : ".",
				"type" : "TEXT",
				"implicit" : 1
			}
, 			{
				"name" : "repositioner.maxpat",
				"bootpath" : "~/MUS7100_Fall_2017/Interface-2/hyperphase",
				"patcherrelativepath" : ".",
				"type" : "JSON",
				"implicit" : 1
			}
, 			{
				"name" : "helpargs.js",
				"bootpath" : "C74:/help/resources",
				"type" : "TEXT",
				"implicit" : 1
			}
, 			{
				"name" : "vz.fractalizr.maxpat",
				"bootpath" : "~/Documents/Max 8/Packages/Vizzie/patchers",
				"patcherrelativepath" : "../../../Documents/Max 8/Packages/Vizzie/patchers",
				"type" : "JSON",
				"implicit" : 1
			}
, 			{
				"name" : "data-handler.maxpat",
				"bootpath" : "~/Documents/Max 8/Packages/Vizzie/patchers",
				"patcherrelativepath" : "../../../Documents/Max 8/Packages/Vizzie/patchers",
				"type" : "JSON",
				"implicit" : 1
			}
, 			{
				"name" : "vzgl-object.maxpat",
				"bootpath" : "~/Documents/Max 8/Packages/Vizzie/patchers",
				"patcherrelativepath" : "../../../Documents/Max 8/Packages/Vizzie/patchers",
				"type" : "JSON",
				"implicit" : 1
			}
, 			{
				"name" : "vizzie-global.js",
				"bootpath" : "~/Documents/Max 8/Packages/Vizzie/code",
				"patcherrelativepath" : "../../../Documents/Max 8/Packages/Vizzie/code",
				"type" : "TEXT",
				"implicit" : 1
			}
, 			{
				"name" : "video-handler.maxpat",
				"bootpath" : "~/Documents/Max 8/Packages/Vizzie/patchers",
				"patcherrelativepath" : "../../../Documents/Max 8/Packages/Vizzie/patchers",
				"type" : "JSON",
				"implicit" : 1
			}
, 			{
				"name" : "eclipse.genjit",
				"bootpath" : "~/Library/Application Support/Cycling '74/Max 8/Examples/jitter-examples/gen",
				"patcherrelativepath" : "../../../Library/Application Support/Cycling '74/Max 8/Examples/jitter-examples/gen",
				"type" : "gJIT",
				"implicit" : 1
			}
, 			{
				"name" : "vzgl-routemat.maxpat",
				"bootpath" : "~/Documents/Max 8/Packages/Vizzie/patchers",
				"patcherrelativepath" : "../../../Documents/Max 8/Packages/Vizzie/patchers",
				"type" : "JSON",
				"implicit" : 1
			}
, 			{
				"name" : "vzgl-disable.maxpat",
				"bootpath" : "~/Documents/Max 8/Packages/Vizzie/patchers",
				"patcherrelativepath" : "../../../Documents/Max 8/Packages/Vizzie/patchers",
				"type" : "JSON",
				"implicit" : 1
			}
, 			{
				"name" : "vz.scramblr.maxpat",
				"bootpath" : "~/Documents/Max 8/Packages/Vizzie/patchers",
				"patcherrelativepath" : "../../../Documents/Max 8/Packages/Vizzie/patchers",
				"type" : "JSON",
				"implicit" : 1
			}
, 			{
				"name" : "vzgl-routegl.maxpat",
				"bootpath" : "~/Documents/Max 8/Packages/Vizzie/patchers",
				"patcherrelativepath" : "../../../Documents/Max 8/Packages/Vizzie/patchers",
				"type" : "JSON",
				"implicit" : 1
			}
, 			{
				"name" : "vz.resamplr.maxpat",
				"bootpath" : "~/Documents/Max 8/Packages/Vizzie/patchers",
				"patcherrelativepath" : "../../../Documents/Max 8/Packages/Vizzie/patchers",
				"type" : "JSON",
				"implicit" : 1
			}
, 			{
				"name" : "vz.primr.maxpat",
				"bootpath" : "~/Documents/Max 8/Packages/Vizzie/patchers",
				"patcherrelativepath" : "../../../Documents/Max 8/Packages/Vizzie/patchers",
				"type" : "JSON",
				"implicit" : 1
			}
, 			{
				"name" : "data-handler-L.maxpat",
				"bootpath" : "~/Documents/Max 8/Packages/Vizzie/patchers",
				"patcherrelativepath" : "../../../Documents/Max 8/Packages/Vizzie/patchers",
				"type" : "JSON",
				"implicit" : 1
			}
, 			{
				"name" : "OpenSoundControl.mxo",
				"type" : "iLaX"
			}
, 			{
				"name" : "OSC-route.mxo",
				"type" : "iLaX"
			}
 ],
		"autosave" : 0,
		"styles" : [ 			{
				"name" : "AudioStatus_Menu",
				"default" : 				{
					"bgfillcolor" : 					{
						"type" : "color",
						"color" : [ 0.294118, 0.313726, 0.337255, 1 ],
						"color1" : [ 0.454902, 0.462745, 0.482353, 0.0 ],
						"color2" : [ 0.290196, 0.309804, 0.301961, 1.0 ],
						"angle" : 270.0,
						"proportion" : 0.39,
						"autogradient" : 0
					}

				}
,
				"parentstyle" : "",
				"multi" : 0
			}
, 			{
				"name" : "newobjBlue-1",
				"default" : 				{
					"accentcolor" : [ 0.317647, 0.654902, 0.976471, 1.0 ]
				}
,
				"parentstyle" : "",
				"multi" : 0
			}
, 			{
				"name" : "newobjBronze",
				"default" : 				{
					"accentcolor" : [ 0.654902, 0.572549, 0.376471, 1.0 ]
				}
,
				"parentstyle" : "newobjYellow",
				"multi" : 0
			}
, 			{
				"name" : "newobjCyan-1",
				"default" : 				{
					"accentcolor" : [ 0.022882, 0.848654, 0.85423, 1.0 ]
				}
,
				"parentstyle" : "",
				"multi" : 0
			}
, 			{
				"name" : "newobjGold-1",
				"default" : 				{
					"accentcolor" : [ 0.764706, 0.592157, 0.101961, 1.0 ]
				}
,
				"parentstyle" : "",
				"multi" : 0
			}
, 			{
				"name" : "newobjMagenta-1",
				"default" : 				{
					"accentcolor" : [ 0.840663, 0.060168, 0.769195, 1.0 ]
				}
,
				"parentstyle" : "",
				"multi" : 0
			}
, 			{
				"name" : "newobjRed-1",
				"default" : 				{
					"accentcolor" : [ 0.784314, 0.145098, 0.023529, 1.0 ]
				}
,
				"parentstyle" : "",
				"multi" : 0
			}
, 			{
				"name" : "newobjYellow-1",
				"default" : 				{
					"accentcolor" : [ 0.82517, 0.78181, 0.059545, 1.0 ],
					"fontsize" : [ 12.059008 ]
				}
,
				"parentstyle" : "",
				"multi" : 0
			}
, 			{
				"name" : "numberB-1",
				"default" : 				{
					"accentcolor" : [ 0.011765, 0.396078, 0.752941, 1.0 ]
				}
,
				"parentstyle" : "",
				"multi" : 0
			}
, 			{
				"name" : "numberG-1",
				"default" : 				{
					"accentcolor" : [ 0.0, 0.533333, 0.168627, 1.0 ]
				}
,
				"parentstyle" : "",
				"multi" : 0
			}
, 			{
				"name" : "numberGold-1",
				"default" : 				{
					"accentcolor" : [ 0.764706, 0.592157, 0.101961, 1.0 ]
				}
,
				"parentstyle" : "",
				"multi" : 0
			}
, 			{
				"name" : "numberR-1",
				"default" : 				{
					"accentcolor" : [ 0.784314, 0.145098, 0.023529, 1.0 ]
				}
,
				"parentstyle" : "",
				"multi" : 0
			}
 ]
	}

}
