{
	"patcher" : 	{
		"fileversion" : 1,
		"appversion" : 		{
			"major" : 8,
			"minor" : 0,
			"revision" : 3,
			"architecture" : "x64",
			"modernui" : 1
		}
,
		"classnamespace" : "box",
		"rect" : [ 145.0, 79.0, 1515.0, 1065.0 ],
		"bglocked" : 0,
		"openinpresentation" : 0,
		"default_fontsize" : 12.0,
		"default_fontface" : 0,
		"default_fontname" : "Arial",
		"gridonopen" : 1,
		"gridsize" : [ 15.0, 15.0 ],
		"gridsnaponopen" : 1,
		"objectsnaponopen" : 1,
		"statusbarvisible" : 2,
		"toolbarvisible" : 1,
		"lefttoolbarpinned" : 0,
		"toptoolbarpinned" : 0,
		"righttoolbarpinned" : 0,
		"bottomtoolbarpinned" : 0,
		"toolbars_unpinned_last_save" : 0,
		"tallnewobj" : 0,
		"boxanimatetime" : 200,
		"enablehscroll" : 1,
		"enablevscroll" : 1,
		"devicewidth" : 0.0,
		"description" : "",
		"digest" : "",
		"tags" : "",
		"style" : "",
		"subpatcher_template" : "",
		"boxes" : [ 			{
				"box" : 				{
					"id" : "obj-45",
					"maxclass" : "message",
					"numinlets" : 2,
					"numoutlets" : 1,
					"outlettype" : [ "" ],
					"patching_rect" : [ 1059.0, 399.0, 50.0, 22.0 ],
					"text" : "82"
				}

			}
, 			{
				"box" : 				{
					"id" : "obj-43",
					"linecount" : 3,
					"maxclass" : "message",
					"numinlets" : 2,
					"numoutlets" : 1,
					"outlettype" : [ "" ],
					"patching_rect" : [ 1169.0, 443.0, 50.0, 49.0 ],
					"text" : "3 0.645669"
				}

			}
, 			{
				"box" : 				{
					"id" : "obj-41",
					"maxclass" : "newobj",
					"numinlets" : 2,
					"numoutlets" : 2,
					"outlettype" : [ "", "" ],
					"patching_rect" : [ 921.0, 499.0, 47.0, 22.0 ],
					"text" : "zl.rev 2"
				}

			}
, 			{
				"box" : 				{
					"id" : "obj-40",
					"maxclass" : "newobj",
					"numinlets" : 2,
					"numoutlets" : 1,
					"outlettype" : [ "" ],
					"patching_rect" : [ 924.0, 469.0, 57.0, 22.0 ],
					"text" : "pack 0. 0"
				}

			}
, 			{
				"box" : 				{
					"id" : "obj-39",
					"maxclass" : "newobj",
					"numinlets" : 2,
					"numoutlets" : 1,
					"outlettype" : [ "float" ],
					"patching_rect" : [ 895.0, 435.0, 39.0, 22.0 ],
					"text" : "/ 127."
				}

			}
, 			{
				"box" : 				{
					"id" : "obj-38",
					"maxclass" : "newobj",
					"numinlets" : 1,
					"numoutlets" : 3,
					"outlettype" : [ "int", "int", "int" ],
					"patching_rect" : [ 924.0, 403.0, 40.0, 22.0 ],
					"text" : "ctlin"
				}

			}
, 			{
				"box" : 				{
					"id" : "obj-37",
					"maxclass" : "newobj",
					"numinlets" : 1,
					"numoutlets" : 0,
					"patching_rect" : [ 909.0, 541.0, 61.0, 22.0 ],
					"text" : "s noteInfo"
				}

			}
, 			{
				"box" : 				{
					"id" : "obj-24",
					"maxclass" : "message",
					"numinlets" : 2,
					"numoutlets" : 1,
					"outlettype" : [ "" ],
					"patching_rect" : [ 828.0, 469.0, 31.0, 22.0 ],
					"text" : "stuff"
				}

			}
, 			{
				"box" : 				{
					"id" : "obj-15",
					"maxclass" : "newobj",
					"numinlets" : 1,
					"numoutlets" : 1,
					"outlettype" : [ "" ],
					"patcher" : 					{
						"fileversion" : 1,
						"appversion" : 						{
							"major" : 8,
							"minor" : 0,
							"revision" : 3,
							"architecture" : "x64",
							"modernui" : 1
						}
,
						"classnamespace" : "box",
						"rect" : [ 34.0, 162.0, 1264.0, 909.0 ],
						"bglocked" : 0,
						"openinpresentation" : 0,
						"default_fontsize" : 12.0,
						"default_fontface" : 0,
						"default_fontname" : "Arial",
						"gridonopen" : 1,
						"gridsize" : [ 15.0, 15.0 ],
						"gridsnaponopen" : 1,
						"objectsnaponopen" : 1,
						"statusbarvisible" : 2,
						"toolbarvisible" : 1,
						"lefttoolbarpinned" : 0,
						"toptoolbarpinned" : 0,
						"righttoolbarpinned" : 0,
						"bottomtoolbarpinned" : 0,
						"toolbars_unpinned_last_save" : 0,
						"tallnewobj" : 0,
						"boxanimatetime" : 200,
						"enablehscroll" : 1,
						"enablevscroll" : 1,
						"devicewidth" : 0.0,
						"description" : "",
						"digest" : "",
						"tags" : "",
						"style" : "",
						"subpatcher_template" : "",
						"boxes" : [ 							{
								"box" : 								{
									"id" : "obj-8",
									"maxclass" : "newobj",
									"numinlets" : 1,
									"numoutlets" : 2,
									"outlettype" : [ "jit_gl_texture", "" ],
									"patching_rect" : [ 928.0, 324.0, 70.0, 22.0 ],
									"text" : "jit.gl.texture"
								}

							}
, 							{
								"box" : 								{
									"id" : "obj-6",
									"maxclass" : "newobj",
									"numinlets" : 1,
									"numoutlets" : 2,
									"outlettype" : [ "jit_matrix", "" ],
									"patching_rect" : [ 191.0, 636.0, 53.0, 22.0 ],
									"text" : "jit.matrix"
								}

							}
, 							{
								"box" : 								{
									"annotation" : "## Create a dutone image ##",
									"bgmode" : 1,
									"border" : 0,
									"clickthrough" : 0,
									"enablehscroll" : 0,
									"enablevscroll" : 0,
									"id" : "obj-33",
									"lockeddragscroll" : 0,
									"maxclass" : "bpatcher",
									"name" : "vz.2tonr.maxpat",
									"numinlets" : 9,
									"numoutlets" : 1,
									"offset" : [ 0.0, 0.0 ],
									"outlettype" : [ "" ],
									"patching_rect" : [ 547.0, 542.0, 228.0, 130.0 ],
									"prototypename" : "pixl",
									"varname" : "2toner",
									"viewvisibility" : 1
								}

							}
, 							{
								"box" : 								{
									"comment" : "",
									"id" : "obj-2",
									"index" : 1,
									"maxclass" : "outlet",
									"numinlets" : 1,
									"numoutlets" : 0,
									"patching_rect" : [ 740.0, 790.0, 30.0, 30.0 ]
								}

							}
, 							{
								"box" : 								{
									"comment" : "",
									"id" : "obj-1",
									"index" : 1,
									"maxclass" : "inlet",
									"numinlets" : 0,
									"numoutlets" : 1,
									"outlettype" : [ "jit_matrix" ],
									"patching_rect" : [ 535.0, -22.0, 30.0, 30.0 ]
								}

							}
, 							{
								"box" : 								{
									"id" : "obj-152",
									"maxclass" : "newobj",
									"numinlets" : 2,
									"numoutlets" : 2,
									"outlettype" : [ "jit_matrix", "" ],
									"patching_rect" : [ 244.75, 768.0, 29.5, 22.0 ],
									"text" : "jit.+"
								}

							}
, 							{
								"box" : 								{
									"id" : "obj-151",
									"maxclass" : "newobj",
									"numinlets" : 2,
									"numoutlets" : 2,
									"outlettype" : [ "jit_matrix", "" ],
									"patching_rect" : [ 193.75, 728.0, 29.5, 22.0 ],
									"text" : "jit.*"
								}

							}
, 							{
								"box" : 								{
									"id" : "obj-150",
									"maxclass" : "newobj",
									"numinlets" : 2,
									"numoutlets" : 2,
									"outlettype" : [ "jit_matrix", "" ],
									"patching_rect" : [ 193.75, 687.0, 29.5, 22.0 ],
									"text" : "jit.*"
								}

							}
, 							{
								"box" : 								{
									"id" : "obj-149",
									"maxclass" : "newobj",
									"numinlets" : 2,
									"numoutlets" : 2,
									"outlettype" : [ "jit_matrix", "" ],
									"patching_rect" : [ 94.0, 687.0, 72.0, 22.0 ],
									"text" : "jit.!- @val 1."
								}

							}
, 							{
								"box" : 								{
									"id" : "obj-118",
									"maxclass" : "message",
									"numinlets" : 2,
									"numoutlets" : 1,
									"outlettype" : [ "" ],
									"patching_rect" : [ 237.5, 446.5, 97.0, 22.0 ],
									"text" : "setall 1 $1 $2 $3"
								}

							}
, 							{
								"box" : 								{
									"id" : "obj-119",
									"maxclass" : "jit.pwindow",
									"numinlets" : 1,
									"numoutlets" : 2,
									"outlettype" : [ "", "" ],
									"patching_rect" : [ 271.5, 506.5, 80.0, 60.0 ]
								}

							}
, 							{
								"box" : 								{
									"id" : "obj-120",
									"maxclass" : "newobj",
									"numinlets" : 1,
									"numoutlets" : 2,
									"outlettype" : [ "jit_matrix", "" ],
									"patching_rect" : [ 237.5, 482.5, 110.0, 22.0 ],
									"text" : "jit.matrix 4 char 1 1"
								}

							}
, 							{
								"box" : 								{
									"id" : "obj-116",
									"maxclass" : "newobj",
									"numinlets" : 3,
									"numoutlets" : 1,
									"outlettype" : [ "" ],
									"patching_rect" : [ 253.0, 408.0, 74.0, 22.0 ],
									"text" : "pack 0. 0. 0."
								}

							}
, 							{
								"box" : 								{
									"annotation" : "## Single-color video generator ##",
									"bgmode" : 1,
									"border" : 0,
									"clickthrough" : 0,
									"enablehscroll" : 0,
									"enablevscroll" : 0,
									"id" : "obj-117",
									"lockeddragscroll" : 0,
									"maxclass" : "bpatcher",
									"name" : "vz.primr.maxpat",
									"numinlets" : 3,
									"numoutlets" : 4,
									"offset" : [ 0.0, 0.0 ],
									"outlettype" : [ "", "", "", "" ],
									"patching_rect" : [ 224.0, 249.0, 127.0, 144.0 ],
									"prototypename" : "pixl",
									"varname" : "primr[1]",
									"viewvisibility" : 1
								}

							}
, 							{
								"box" : 								{
									"id" : "obj-101",
									"maxclass" : "toggle",
									"numinlets" : 1,
									"numoutlets" : 1,
									"outlettype" : [ "int" ],
									"parameter_enable" : 0,
									"patching_rect" : [ 87.0, 214.0, 24.0, 24.0 ]
								}

							}
, 							{
								"box" : 								{
									"id" : "obj-98",
									"maxclass" : "newobj",
									"numinlets" : 2,
									"numoutlets" : 1,
									"outlettype" : [ "bang" ],
									"patching_rect" : [ 52.0, 574.0, 119.0, 22.0 ],
									"text" : "qmetro 50 @active 1"
								}

							}
, 							{
								"box" : 								{
									"id" : "obj-97",
									"maxclass" : "message",
									"numinlets" : 2,
									"numoutlets" : 1,
									"outlettype" : [ "" ],
									"patching_rect" : [ 94.0, 446.5, 97.0, 22.0 ],
									"text" : "setall 1 $1 $2 $3"
								}

							}
, 							{
								"box" : 								{
									"id" : "obj-95",
									"maxclass" : "jit.pwindow",
									"numinlets" : 1,
									"numoutlets" : 2,
									"outlettype" : [ "", "" ],
									"patching_rect" : [ 128.0, 506.5, 80.0, 60.0 ]
								}

							}
, 							{
								"box" : 								{
									"id" : "obj-94",
									"maxclass" : "newobj",
									"numinlets" : 1,
									"numoutlets" : 2,
									"outlettype" : [ "jit_matrix", "" ],
									"patching_rect" : [ 94.0, 482.5, 110.0, 22.0 ],
									"text" : "jit.matrix 4 char 1 1"
								}

							}
, 							{
								"box" : 								{
									"id" : "obj-93",
									"maxclass" : "newobj",
									"numinlets" : 3,
									"numoutlets" : 1,
									"outlettype" : [ "" ],
									"patching_rect" : [ 116.0, 408.0, 74.0, 22.0 ],
									"text" : "pack 0. 0. 0."
								}

							}
, 							{
								"box" : 								{
									"annotation" : "## Single-color video generator ##",
									"bgmode" : 1,
									"border" : 0,
									"clickthrough" : 0,
									"enablehscroll" : 0,
									"enablevscroll" : 0,
									"id" : "obj-92",
									"lockeddragscroll" : 0,
									"maxclass" : "bpatcher",
									"name" : "vz.primr.maxpat",
									"numinlets" : 3,
									"numoutlets" : 4,
									"offset" : [ 0.0, 0.0 ],
									"outlettype" : [ "", "", "", "" ],
									"patching_rect" : [ 87.0, 249.0, 127.0, 144.0 ],
									"prototypename" : "pixl",
									"varname" : "primr",
									"viewvisibility" : 1
								}

							}
, 							{
								"box" : 								{
									"annotation" : "## Interpolate and resample video input ##",
									"bgmode" : 1,
									"border" : 0,
									"clickthrough" : 0,
									"enablehscroll" : 0,
									"enablevscroll" : 0,
									"id" : "obj-56",
									"lockeddragscroll" : 0,
									"maxclass" : "bpatcher",
									"name" : "vz.resamplr.maxpat",
									"numinlets" : 4,
									"numoutlets" : 1,
									"offset" : [ 0.0, 0.0 ],
									"outlettype" : [ "" ],
									"patching_rect" : [ 552.0, 393.0, 188.0, 130.0 ],
									"prototypename" : "pixl",
									"varname" : "zamplr",
									"viewvisibility" : 1
								}

							}
, 							{
								"box" : 								{
									"annotation" : "## Divide a video and scramble the pieces ##",
									"bgmode" : 1,
									"border" : 0,
									"clickthrough" : 0,
									"enablehscroll" : 0,
									"enablevscroll" : 0,
									"id" : "obj-51",
									"lockeddragscroll" : 0,
									"maxclass" : "bpatcher",
									"name" : "vz.scramblr.maxpat",
									"numinlets" : 6,
									"numoutlets" : 1,
									"offset" : [ 0.0, 0.0 ],
									"outlettype" : [ "" ],
									"patching_rect" : [ 535.0, 94.5, 228.0, 140.0 ],
									"prototypename" : "pixl",
									"varname" : "scramblr",
									"viewvisibility" : 1
								}

							}
, 							{
								"box" : 								{
									"annotation" : "## Create video \"meta images\"## ",
									"bgmode" : 1,
									"border" : 0,
									"clickthrough" : 0,
									"enablehscroll" : 0,
									"enablevscroll" : 0,
									"id" : "obj-50",
									"lockeddragscroll" : 0,
									"maxclass" : "bpatcher",
									"name" : "vz.fractalizr.maxpat",
									"numinlets" : 5,
									"numoutlets" : 1,
									"offset" : [ 0.0, 0.0 ],
									"outlettype" : [ "" ],
									"patching_rect" : [ 517.0, 249.0, 258.0, 130.0 ],
									"prototypename" : "pixl",
									"varname" : "fractalizr",
									"viewvisibility" : 1
								}

							}
, 							{
								"box" : 								{
									"id" : "obj-36",
									"maxclass" : "newobj",
									"numinlets" : 1,
									"numoutlets" : 2,
									"outlettype" : [ "jit_matrix", "" ],
									"patching_rect" : [ 535.0, 24.0, 137.0, 22.0 ],
									"text" : "jit.matrix 4 char 432 100"
								}

							}
 ],
						"lines" : [ 							{
								"patchline" : 								{
									"destination" : [ "obj-36", 0 ],
									"source" : [ "obj-1", 0 ]
								}

							}
, 							{
								"patchline" : 								{
									"destination" : [ "obj-117", 0 ],
									"order" : 1,
									"source" : [ "obj-101", 0 ]
								}

							}
, 							{
								"patchline" : 								{
									"destination" : [ "obj-92", 0 ],
									"order" : 0,
									"source" : [ "obj-101", 0 ]
								}

							}
, 							{
								"patchline" : 								{
									"destination" : [ "obj-118", 0 ],
									"source" : [ "obj-116", 0 ]
								}

							}
, 							{
								"patchline" : 								{
									"destination" : [ "obj-116", 2 ],
									"source" : [ "obj-117", 3 ]
								}

							}
, 							{
								"patchline" : 								{
									"destination" : [ "obj-116", 1 ],
									"source" : [ "obj-117", 2 ]
								}

							}
, 							{
								"patchline" : 								{
									"destination" : [ "obj-116", 0 ],
									"source" : [ "obj-117", 1 ]
								}

							}
, 							{
								"patchline" : 								{
									"destination" : [ "obj-120", 0 ],
									"source" : [ "obj-118", 0 ]
								}

							}
, 							{
								"patchline" : 								{
									"destination" : [ "obj-119", 0 ],
									"order" : 0,
									"source" : [ "obj-120", 0 ]
								}

							}
, 							{
								"patchline" : 								{
									"destination" : [ "obj-150", 1 ],
									"order" : 1,
									"source" : [ "obj-120", 0 ]
								}

							}
, 							{
								"patchline" : 								{
									"destination" : [ "obj-151", 0 ],
									"source" : [ "obj-149", 0 ]
								}

							}
, 							{
								"patchline" : 								{
									"destination" : [ "obj-152", 0 ],
									"source" : [ "obj-150", 0 ]
								}

							}
, 							{
								"patchline" : 								{
									"destination" : [ "obj-152", 1 ],
									"source" : [ "obj-151", 0 ]
								}

							}
, 							{
								"patchline" : 								{
									"destination" : [ "obj-2", 0 ],
									"source" : [ "obj-33", 0 ]
								}

							}
, 							{
								"patchline" : 								{
									"destination" : [ "obj-51", 0 ],
									"source" : [ "obj-36", 0 ]
								}

							}
, 							{
								"patchline" : 								{
									"destination" : [ "obj-56", 0 ],
									"source" : [ "obj-50", 0 ]
								}

							}
, 							{
								"patchline" : 								{
									"destination" : [ "obj-50", 0 ],
									"source" : [ "obj-51", 0 ]
								}

							}
, 							{
								"patchline" : 								{
									"destination" : [ "obj-33", 0 ],
									"source" : [ "obj-56", 0 ]
								}

							}
, 							{
								"patchline" : 								{
									"destination" : [ "obj-149", 0 ],
									"order" : 1,
									"source" : [ "obj-6", 0 ]
								}

							}
, 							{
								"patchline" : 								{
									"destination" : [ "obj-150", 0 ],
									"order" : 0,
									"source" : [ "obj-6", 0 ]
								}

							}
, 							{
								"patchline" : 								{
									"destination" : [ "obj-93", 2 ],
									"source" : [ "obj-92", 3 ]
								}

							}
, 							{
								"patchline" : 								{
									"destination" : [ "obj-93", 1 ],
									"source" : [ "obj-92", 2 ]
								}

							}
, 							{
								"patchline" : 								{
									"destination" : [ "obj-93", 0 ],
									"source" : [ "obj-92", 1 ]
								}

							}
, 							{
								"patchline" : 								{
									"destination" : [ "obj-97", 0 ],
									"source" : [ "obj-93", 0 ]
								}

							}
, 							{
								"patchline" : 								{
									"destination" : [ "obj-151", 1 ],
									"order" : 0,
									"source" : [ "obj-94", 0 ]
								}

							}
, 							{
								"patchline" : 								{
									"destination" : [ "obj-95", 0 ],
									"order" : 1,
									"source" : [ "obj-94", 0 ]
								}

							}
, 							{
								"patchline" : 								{
									"destination" : [ "obj-94", 0 ],
									"source" : [ "obj-97", 0 ]
								}

							}
, 							{
								"patchline" : 								{
									"destination" : [ "obj-120", 0 ],
									"midpoints" : [ 61.5, 606.0, 233.0, 606.0, 233.0, 477.0, 247.0, 477.0 ],
									"order" : 0,
									"source" : [ "obj-98", 0 ]
								}

							}
, 							{
								"patchline" : 								{
									"destination" : [ "obj-94", 0 ],
									"order" : 1,
									"source" : [ "obj-98", 0 ]
								}

							}
 ],
						"styles" : [ 							{
								"name" : "AudioStatus_Menu",
								"default" : 								{
									"bgfillcolor" : 									{
										"type" : "color",
										"color" : [ 0.294118, 0.313726, 0.337255, 1 ],
										"color1" : [ 0.454902, 0.462745, 0.482353, 0.0 ],
										"color2" : [ 0.290196, 0.309804, 0.301961, 1.0 ],
										"angle" : 270.0,
										"proportion" : 0.39,
										"autogradient" : 0
									}

								}
,
								"parentstyle" : "",
								"multi" : 0
							}
, 							{
								"name" : "newobjBlue-1",
								"default" : 								{
									"accentcolor" : [ 0.317647, 0.654902, 0.976471, 1.0 ]
								}
,
								"parentstyle" : "",
								"multi" : 0
							}
, 							{
								"name" : "newobjBronze",
								"default" : 								{
									"accentcolor" : [ 0.654902, 0.572549, 0.376471, 1.0 ]
								}
,
								"parentstyle" : "newobjYellow",
								"multi" : 0
							}
, 							{
								"name" : "newobjCyan-1",
								"default" : 								{
									"accentcolor" : [ 0.022882, 0.848654, 0.85423, 1.0 ]
								}
,
								"parentstyle" : "",
								"multi" : 0
							}
, 							{
								"name" : "newobjGold-1",
								"default" : 								{
									"accentcolor" : [ 0.764706, 0.592157, 0.101961, 1.0 ]
								}
,
								"parentstyle" : "",
								"multi" : 0
							}
, 							{
								"name" : "newobjMagenta-1",
								"default" : 								{
									"accentcolor" : [ 0.840663, 0.060168, 0.769195, 1.0 ]
								}
,
								"parentstyle" : "",
								"multi" : 0
							}
, 							{
								"name" : "newobjRed-1",
								"default" : 								{
									"accentcolor" : [ 0.784314, 0.145098, 0.023529, 1.0 ]
								}
,
								"parentstyle" : "",
								"multi" : 0
							}
, 							{
								"name" : "newobjYellow-1",
								"default" : 								{
									"accentcolor" : [ 0.82517, 0.78181, 0.059545, 1.0 ],
									"fontsize" : [ 12.059008 ]
								}
,
								"parentstyle" : "",
								"multi" : 0
							}
, 							{
								"name" : "numberB-1",
								"default" : 								{
									"accentcolor" : [ 0.011765, 0.396078, 0.752941, 1.0 ]
								}
,
								"parentstyle" : "",
								"multi" : 0
							}
, 							{
								"name" : "numberG-1",
								"default" : 								{
									"accentcolor" : [ 0.0, 0.533333, 0.168627, 1.0 ]
								}
,
								"parentstyle" : "",
								"multi" : 0
							}
, 							{
								"name" : "numberGold-1",
								"default" : 								{
									"accentcolor" : [ 0.764706, 0.592157, 0.101961, 1.0 ]
								}
,
								"parentstyle" : "",
								"multi" : 0
							}
, 							{
								"name" : "numberR-1",
								"default" : 								{
									"accentcolor" : [ 0.784314, 0.145098, 0.023529, 1.0 ]
								}
,
								"parentstyle" : "",
								"multi" : 0
							}
 ]
					}
,
					"patching_rect" : [ 522.0, 771.0, 68.0, 22.0 ],
					"saved_object_attributes" : 					{
						"description" : "",
						"digest" : "",
						"globalpatchername" : "",
						"tags" : ""
					}
,
					"text" : "patcher fx3",
					"varname" : "fx1[3]"
				}

			}
, 			{
				"box" : 				{
					"id" : "obj-14",
					"maxclass" : "newobj",
					"numinlets" : 1,
					"numoutlets" : 1,
					"outlettype" : [ "" ],
					"patcher" : 					{
						"fileversion" : 1,
						"appversion" : 						{
							"major" : 8,
							"minor" : 0,
							"revision" : 3,
							"architecture" : "x64",
							"modernui" : 1
						}
,
						"classnamespace" : "box",
						"rect" : [ 34.0, 162.0, 1264.0, 909.0 ],
						"bglocked" : 0,
						"openinpresentation" : 0,
						"default_fontsize" : 12.0,
						"default_fontface" : 0,
						"default_fontname" : "Arial",
						"gridonopen" : 1,
						"gridsize" : [ 15.0, 15.0 ],
						"gridsnaponopen" : 1,
						"objectsnaponopen" : 1,
						"statusbarvisible" : 2,
						"toolbarvisible" : 1,
						"lefttoolbarpinned" : 0,
						"toptoolbarpinned" : 0,
						"righttoolbarpinned" : 0,
						"bottomtoolbarpinned" : 0,
						"toolbars_unpinned_last_save" : 0,
						"tallnewobj" : 0,
						"boxanimatetime" : 200,
						"enablehscroll" : 1,
						"enablevscroll" : 1,
						"devicewidth" : 0.0,
						"description" : "",
						"digest" : "",
						"tags" : "",
						"style" : "",
						"subpatcher_template" : "",
						"boxes" : [ 							{
								"box" : 								{
									"id" : "obj-6",
									"maxclass" : "newobj",
									"numinlets" : 1,
									"numoutlets" : 2,
									"outlettype" : [ "jit_matrix", "" ],
									"patching_rect" : [ 191.0, 636.0, 53.0, 22.0 ],
									"text" : "jit.matrix"
								}

							}
, 							{
								"box" : 								{
									"annotation" : "## Create a dutone image ##",
									"bgmode" : 1,
									"border" : 0,
									"clickthrough" : 0,
									"enablehscroll" : 0,
									"enablevscroll" : 0,
									"id" : "obj-33",
									"lockeddragscroll" : 0,
									"maxclass" : "bpatcher",
									"name" : "vz.2tonr.maxpat",
									"numinlets" : 9,
									"numoutlets" : 1,
									"offset" : [ 0.0, 0.0 ],
									"outlettype" : [ "" ],
									"patching_rect" : [ 547.0, 542.0, 228.0, 130.0 ],
									"prototypename" : "pixl",
									"varname" : "2toner",
									"viewvisibility" : 1
								}

							}
, 							{
								"box" : 								{
									"comment" : "",
									"id" : "obj-2",
									"index" : 1,
									"maxclass" : "outlet",
									"numinlets" : 1,
									"numoutlets" : 0,
									"patching_rect" : [ 740.0, 790.0, 30.0, 30.0 ]
								}

							}
, 							{
								"box" : 								{
									"comment" : "",
									"id" : "obj-1",
									"index" : 1,
									"maxclass" : "inlet",
									"numinlets" : 0,
									"numoutlets" : 1,
									"outlettype" : [ "jit_matrix" ],
									"patching_rect" : [ 535.0, -22.0, 30.0, 30.0 ]
								}

							}
, 							{
								"box" : 								{
									"id" : "obj-152",
									"maxclass" : "newobj",
									"numinlets" : 2,
									"numoutlets" : 2,
									"outlettype" : [ "jit_matrix", "" ],
									"patching_rect" : [ 244.75, 768.0, 29.5, 22.0 ],
									"text" : "jit.+"
								}

							}
, 							{
								"box" : 								{
									"id" : "obj-151",
									"maxclass" : "newobj",
									"numinlets" : 2,
									"numoutlets" : 2,
									"outlettype" : [ "jit_matrix", "" ],
									"patching_rect" : [ 193.75, 728.0, 29.5, 22.0 ],
									"text" : "jit.*"
								}

							}
, 							{
								"box" : 								{
									"id" : "obj-150",
									"maxclass" : "newobj",
									"numinlets" : 2,
									"numoutlets" : 2,
									"outlettype" : [ "jit_matrix", "" ],
									"patching_rect" : [ 193.75, 687.0, 29.5, 22.0 ],
									"text" : "jit.*"
								}

							}
, 							{
								"box" : 								{
									"id" : "obj-149",
									"maxclass" : "newobj",
									"numinlets" : 2,
									"numoutlets" : 2,
									"outlettype" : [ "jit_matrix", "" ],
									"patching_rect" : [ 94.0, 687.0, 72.0, 22.0 ],
									"text" : "jit.!- @val 1."
								}

							}
, 							{
								"box" : 								{
									"id" : "obj-118",
									"maxclass" : "message",
									"numinlets" : 2,
									"numoutlets" : 1,
									"outlettype" : [ "" ],
									"patching_rect" : [ 237.5, 446.5, 97.0, 22.0 ],
									"text" : "setall 1 $1 $2 $3"
								}

							}
, 							{
								"box" : 								{
									"id" : "obj-119",
									"maxclass" : "jit.pwindow",
									"numinlets" : 1,
									"numoutlets" : 2,
									"outlettype" : [ "", "" ],
									"patching_rect" : [ 271.5, 506.5, 80.0, 60.0 ]
								}

							}
, 							{
								"box" : 								{
									"id" : "obj-120",
									"maxclass" : "newobj",
									"numinlets" : 1,
									"numoutlets" : 2,
									"outlettype" : [ "jit_matrix", "" ],
									"patching_rect" : [ 237.5, 482.5, 110.0, 22.0 ],
									"text" : "jit.matrix 4 char 1 1"
								}

							}
, 							{
								"box" : 								{
									"id" : "obj-116",
									"maxclass" : "newobj",
									"numinlets" : 3,
									"numoutlets" : 1,
									"outlettype" : [ "" ],
									"patching_rect" : [ 253.0, 408.0, 74.0, 22.0 ],
									"text" : "pack 0. 0. 0."
								}

							}
, 							{
								"box" : 								{
									"annotation" : "## Single-color video generator ##",
									"bgmode" : 1,
									"border" : 0,
									"clickthrough" : 0,
									"enablehscroll" : 0,
									"enablevscroll" : 0,
									"id" : "obj-117",
									"lockeddragscroll" : 0,
									"maxclass" : "bpatcher",
									"name" : "vz.primr.maxpat",
									"numinlets" : 3,
									"numoutlets" : 4,
									"offset" : [ 0.0, 0.0 ],
									"outlettype" : [ "", "", "", "" ],
									"patching_rect" : [ 224.0, 249.0, 127.0, 144.0 ],
									"prototypename" : "pixl",
									"varname" : "primr[1]",
									"viewvisibility" : 1
								}

							}
, 							{
								"box" : 								{
									"id" : "obj-101",
									"maxclass" : "toggle",
									"numinlets" : 1,
									"numoutlets" : 1,
									"outlettype" : [ "int" ],
									"parameter_enable" : 0,
									"patching_rect" : [ 87.0, 214.0, 24.0, 24.0 ]
								}

							}
, 							{
								"box" : 								{
									"id" : "obj-98",
									"maxclass" : "newobj",
									"numinlets" : 2,
									"numoutlets" : 1,
									"outlettype" : [ "bang" ],
									"patching_rect" : [ 52.0, 574.0, 119.0, 22.0 ],
									"text" : "qmetro 50 @active 1"
								}

							}
, 							{
								"box" : 								{
									"id" : "obj-97",
									"maxclass" : "message",
									"numinlets" : 2,
									"numoutlets" : 1,
									"outlettype" : [ "" ],
									"patching_rect" : [ 94.0, 446.5, 97.0, 22.0 ],
									"text" : "setall 1 $1 $2 $3"
								}

							}
, 							{
								"box" : 								{
									"id" : "obj-95",
									"maxclass" : "jit.pwindow",
									"numinlets" : 1,
									"numoutlets" : 2,
									"outlettype" : [ "", "" ],
									"patching_rect" : [ 128.0, 506.5, 80.0, 60.0 ]
								}

							}
, 							{
								"box" : 								{
									"id" : "obj-94",
									"maxclass" : "newobj",
									"numinlets" : 1,
									"numoutlets" : 2,
									"outlettype" : [ "jit_matrix", "" ],
									"patching_rect" : [ 94.0, 482.5, 110.0, 22.0 ],
									"text" : "jit.matrix 4 char 1 1"
								}

							}
, 							{
								"box" : 								{
									"id" : "obj-93",
									"maxclass" : "newobj",
									"numinlets" : 3,
									"numoutlets" : 1,
									"outlettype" : [ "" ],
									"patching_rect" : [ 116.0, 408.0, 74.0, 22.0 ],
									"text" : "pack 0. 0. 0."
								}

							}
, 							{
								"box" : 								{
									"annotation" : "## Single-color video generator ##",
									"bgmode" : 1,
									"border" : 0,
									"clickthrough" : 0,
									"enablehscroll" : 0,
									"enablevscroll" : 0,
									"id" : "obj-92",
									"lockeddragscroll" : 0,
									"maxclass" : "bpatcher",
									"name" : "vz.primr.maxpat",
									"numinlets" : 3,
									"numoutlets" : 4,
									"offset" : [ 0.0, 0.0 ],
									"outlettype" : [ "", "", "", "" ],
									"patching_rect" : [ 87.0, 249.0, 127.0, 144.0 ],
									"prototypename" : "pixl",
									"varname" : "primr",
									"viewvisibility" : 1
								}

							}
, 							{
								"box" : 								{
									"annotation" : "## Interpolate and resample video input ##",
									"bgmode" : 1,
									"border" : 0,
									"clickthrough" : 0,
									"enablehscroll" : 0,
									"enablevscroll" : 0,
									"id" : "obj-56",
									"lockeddragscroll" : 0,
									"maxclass" : "bpatcher",
									"name" : "vz.resamplr.maxpat",
									"numinlets" : 4,
									"numoutlets" : 1,
									"offset" : [ 0.0, 0.0 ],
									"outlettype" : [ "" ],
									"patching_rect" : [ 552.0, 393.0, 188.0, 130.0 ],
									"prototypename" : "pixl",
									"varname" : "zamplr",
									"viewvisibility" : 1
								}

							}
, 							{
								"box" : 								{
									"annotation" : "## Divide a video and scramble the pieces ##",
									"bgmode" : 1,
									"border" : 0,
									"clickthrough" : 0,
									"enablehscroll" : 0,
									"enablevscroll" : 0,
									"id" : "obj-51",
									"lockeddragscroll" : 0,
									"maxclass" : "bpatcher",
									"name" : "vz.scramblr.maxpat",
									"numinlets" : 6,
									"numoutlets" : 1,
									"offset" : [ 0.0, 0.0 ],
									"outlettype" : [ "" ],
									"patching_rect" : [ 535.0, 94.5, 228.0, 140.0 ],
									"prototypename" : "pixl",
									"varname" : "scramblr",
									"viewvisibility" : 1
								}

							}
, 							{
								"box" : 								{
									"annotation" : "## Create video \"meta images\"## ",
									"bgmode" : 1,
									"border" : 0,
									"clickthrough" : 0,
									"enablehscroll" : 0,
									"enablevscroll" : 0,
									"id" : "obj-50",
									"lockeddragscroll" : 0,
									"maxclass" : "bpatcher",
									"name" : "vz.fractalizr.maxpat",
									"numinlets" : 5,
									"numoutlets" : 1,
									"offset" : [ 0.0, 0.0 ],
									"outlettype" : [ "" ],
									"patching_rect" : [ 517.0, 249.0, 258.0, 130.0 ],
									"prototypename" : "pixl",
									"varname" : "fractalizr",
									"viewvisibility" : 1
								}

							}
, 							{
								"box" : 								{
									"id" : "obj-36",
									"maxclass" : "newobj",
									"numinlets" : 1,
									"numoutlets" : 2,
									"outlettype" : [ "jit_matrix", "" ],
									"patching_rect" : [ 535.0, 24.0, 137.0, 22.0 ],
									"text" : "jit.matrix 4 char 432 100"
								}

							}
 ],
						"lines" : [ 							{
								"patchline" : 								{
									"destination" : [ "obj-36", 0 ],
									"source" : [ "obj-1", 0 ]
								}

							}
, 							{
								"patchline" : 								{
									"destination" : [ "obj-117", 0 ],
									"order" : 1,
									"source" : [ "obj-101", 0 ]
								}

							}
, 							{
								"patchline" : 								{
									"destination" : [ "obj-92", 0 ],
									"order" : 0,
									"source" : [ "obj-101", 0 ]
								}

							}
, 							{
								"patchline" : 								{
									"destination" : [ "obj-118", 0 ],
									"source" : [ "obj-116", 0 ]
								}

							}
, 							{
								"patchline" : 								{
									"destination" : [ "obj-116", 2 ],
									"source" : [ "obj-117", 3 ]
								}

							}
, 							{
								"patchline" : 								{
									"destination" : [ "obj-116", 1 ],
									"source" : [ "obj-117", 2 ]
								}

							}
, 							{
								"patchline" : 								{
									"destination" : [ "obj-116", 0 ],
									"source" : [ "obj-117", 1 ]
								}

							}
, 							{
								"patchline" : 								{
									"destination" : [ "obj-120", 0 ],
									"source" : [ "obj-118", 0 ]
								}

							}
, 							{
								"patchline" : 								{
									"destination" : [ "obj-119", 0 ],
									"order" : 0,
									"source" : [ "obj-120", 0 ]
								}

							}
, 							{
								"patchline" : 								{
									"destination" : [ "obj-150", 1 ],
									"order" : 1,
									"source" : [ "obj-120", 0 ]
								}

							}
, 							{
								"patchline" : 								{
									"destination" : [ "obj-151", 0 ],
									"source" : [ "obj-149", 0 ]
								}

							}
, 							{
								"patchline" : 								{
									"destination" : [ "obj-152", 0 ],
									"source" : [ "obj-150", 0 ]
								}

							}
, 							{
								"patchline" : 								{
									"destination" : [ "obj-152", 1 ],
									"source" : [ "obj-151", 0 ]
								}

							}
, 							{
								"patchline" : 								{
									"destination" : [ "obj-2", 0 ],
									"source" : [ "obj-33", 0 ]
								}

							}
, 							{
								"patchline" : 								{
									"destination" : [ "obj-51", 0 ],
									"source" : [ "obj-36", 0 ]
								}

							}
, 							{
								"patchline" : 								{
									"destination" : [ "obj-56", 0 ],
									"source" : [ "obj-50", 0 ]
								}

							}
, 							{
								"patchline" : 								{
									"destination" : [ "obj-50", 0 ],
									"source" : [ "obj-51", 0 ]
								}

							}
, 							{
								"patchline" : 								{
									"destination" : [ "obj-33", 0 ],
									"source" : [ "obj-56", 0 ]
								}

							}
, 							{
								"patchline" : 								{
									"destination" : [ "obj-149", 0 ],
									"order" : 1,
									"source" : [ "obj-6", 0 ]
								}

							}
, 							{
								"patchline" : 								{
									"destination" : [ "obj-150", 0 ],
									"order" : 0,
									"source" : [ "obj-6", 0 ]
								}

							}
, 							{
								"patchline" : 								{
									"destination" : [ "obj-93", 2 ],
									"source" : [ "obj-92", 3 ]
								}

							}
, 							{
								"patchline" : 								{
									"destination" : [ "obj-93", 1 ],
									"source" : [ "obj-92", 2 ]
								}

							}
, 							{
								"patchline" : 								{
									"destination" : [ "obj-93", 0 ],
									"source" : [ "obj-92", 1 ]
								}

							}
, 							{
								"patchline" : 								{
									"destination" : [ "obj-97", 0 ],
									"source" : [ "obj-93", 0 ]
								}

							}
, 							{
								"patchline" : 								{
									"destination" : [ "obj-151", 1 ],
									"order" : 0,
									"source" : [ "obj-94", 0 ]
								}

							}
, 							{
								"patchline" : 								{
									"destination" : [ "obj-95", 0 ],
									"order" : 1,
									"source" : [ "obj-94", 0 ]
								}

							}
, 							{
								"patchline" : 								{
									"destination" : [ "obj-94", 0 ],
									"source" : [ "obj-97", 0 ]
								}

							}
, 							{
								"patchline" : 								{
									"destination" : [ "obj-120", 0 ],
									"midpoints" : [ 61.5, 606.0, 233.0, 606.0, 233.0, 477.0, 247.0, 477.0 ],
									"order" : 0,
									"source" : [ "obj-98", 0 ]
								}

							}
, 							{
								"patchline" : 								{
									"destination" : [ "obj-94", 0 ],
									"order" : 1,
									"source" : [ "obj-98", 0 ]
								}

							}
 ],
						"styles" : [ 							{
								"name" : "AudioStatus_Menu",
								"default" : 								{
									"bgfillcolor" : 									{
										"type" : "color",
										"color" : [ 0.294118, 0.313726, 0.337255, 1 ],
										"color1" : [ 0.454902, 0.462745, 0.482353, 0.0 ],
										"color2" : [ 0.290196, 0.309804, 0.301961, 1.0 ],
										"angle" : 270.0,
										"proportion" : 0.39,
										"autogradient" : 0
									}

								}
,
								"parentstyle" : "",
								"multi" : 0
							}
, 							{
								"name" : "newobjBlue-1",
								"default" : 								{
									"accentcolor" : [ 0.317647, 0.654902, 0.976471, 1.0 ]
								}
,
								"parentstyle" : "",
								"multi" : 0
							}
, 							{
								"name" : "newobjBronze",
								"default" : 								{
									"accentcolor" : [ 0.654902, 0.572549, 0.376471, 1.0 ]
								}
,
								"parentstyle" : "newobjYellow",
								"multi" : 0
							}
, 							{
								"name" : "newobjCyan-1",
								"default" : 								{
									"accentcolor" : [ 0.022882, 0.848654, 0.85423, 1.0 ]
								}
,
								"parentstyle" : "",
								"multi" : 0
							}
, 							{
								"name" : "newobjGold-1",
								"default" : 								{
									"accentcolor" : [ 0.764706, 0.592157, 0.101961, 1.0 ]
								}
,
								"parentstyle" : "",
								"multi" : 0
							}
, 							{
								"name" : "newobjMagenta-1",
								"default" : 								{
									"accentcolor" : [ 0.840663, 0.060168, 0.769195, 1.0 ]
								}
,
								"parentstyle" : "",
								"multi" : 0
							}
, 							{
								"name" : "newobjRed-1",
								"default" : 								{
									"accentcolor" : [ 0.784314, 0.145098, 0.023529, 1.0 ]
								}
,
								"parentstyle" : "",
								"multi" : 0
							}
, 							{
								"name" : "newobjYellow-1",
								"default" : 								{
									"accentcolor" : [ 0.82517, 0.78181, 0.059545, 1.0 ],
									"fontsize" : [ 12.059008 ]
								}
,
								"parentstyle" : "",
								"multi" : 0
							}
, 							{
								"name" : "numberB-1",
								"default" : 								{
									"accentcolor" : [ 0.011765, 0.396078, 0.752941, 1.0 ]
								}
,
								"parentstyle" : "",
								"multi" : 0
							}
, 							{
								"name" : "numberG-1",
								"default" : 								{
									"accentcolor" : [ 0.0, 0.533333, 0.168627, 1.0 ]
								}
,
								"parentstyle" : "",
								"multi" : 0
							}
, 							{
								"name" : "numberGold-1",
								"default" : 								{
									"accentcolor" : [ 0.764706, 0.592157, 0.101961, 1.0 ]
								}
,
								"parentstyle" : "",
								"multi" : 0
							}
, 							{
								"name" : "numberR-1",
								"default" : 								{
									"accentcolor" : [ 0.784314, 0.145098, 0.023529, 1.0 ]
								}
,
								"parentstyle" : "",
								"multi" : 0
							}
 ]
					}
,
					"patching_rect" : [ 522.0, 734.0, 68.0, 22.0 ],
					"saved_object_attributes" : 					{
						"description" : "",
						"digest" : "",
						"globalpatchername" : "",
						"tags" : ""
					}
,
					"text" : "patcher fx2",
					"varname" : "fx1[1]"
				}

			}
, 			{
				"box" : 				{
					"id" : "obj-23",
					"linecount" : 4,
					"maxclass" : "message",
					"numinlets" : 2,
					"numoutlets" : 1,
					"outlettype" : [ "" ],
					"patching_rect" : [ 163.0, 919.0, 50.0, 62.0 ],
					"text" : "jit_gl_texture u828012442"
				}

			}
, 			{
				"box" : 				{
					"id" : "obj-18",
					"maxclass" : "newobj",
					"numinlets" : 1,
					"numoutlets" : 2,
					"outlettype" : [ "jit_gl_texture", "" ],
					"patching_rect" : [ 137.0, 867.0, 70.0, 22.0 ],
					"text" : "jit.gl.texture"
				}

			}
, 			{
				"box" : 				{
					"fontface" : 0,
					"fontname" : "Arial",
					"fontsize" : 12.0,
					"id" : "obj-162",
					"maxclass" : "jit.fpsgui",
					"numinlets" : 1,
					"numoutlets" : 2,
					"outlettype" : [ "", "" ],
					"patching_rect" : [ 878.0, 906.0, 80.0, 35.0 ]
				}

			}
, 			{
				"box" : 				{
					"id" : "obj-161",
					"maxclass" : "newobj",
					"numinlets" : 3,
					"numoutlets" : 2,
					"outlettype" : [ "jit_matrix", "" ],
					"patching_rect" : [ 844.5, 648.0, 164.0, 22.0 ],
					"text" : "jit.glue @rows 3 @columns 1"
				}

			}
, 			{
				"box" : 				{
					"id" : "obj-160",
					"maxclass" : "jit.pwindow",
					"numinlets" : 1,
					"numoutlets" : 2,
					"outlettype" : [ "", "" ],
					"patching_rect" : [ 1252.0, 672.0, 260.0, 165.0 ]
				}

			}
, 			{
				"box" : 				{
					"id" : "obj-153",
					"maxclass" : "newobj",
					"numinlets" : 1,
					"numoutlets" : 1,
					"outlettype" : [ "" ],
					"patcher" : 					{
						"fileversion" : 1,
						"appversion" : 						{
							"major" : 8,
							"minor" : 0,
							"revision" : 3,
							"architecture" : "x64",
							"modernui" : 1
						}
,
						"classnamespace" : "box",
						"rect" : [ 34.0, 162.0, 1374.0, 909.0 ],
						"bglocked" : 0,
						"openinpresentation" : 0,
						"default_fontsize" : 12.0,
						"default_fontface" : 0,
						"default_fontname" : "Arial",
						"gridonopen" : 1,
						"gridsize" : [ 15.0, 15.0 ],
						"gridsnaponopen" : 1,
						"objectsnaponopen" : 1,
						"statusbarvisible" : 2,
						"toolbarvisible" : 1,
						"lefttoolbarpinned" : 0,
						"toptoolbarpinned" : 0,
						"righttoolbarpinned" : 0,
						"bottomtoolbarpinned" : 0,
						"toolbars_unpinned_last_save" : 0,
						"tallnewobj" : 0,
						"boxanimatetime" : 200,
						"enablehscroll" : 1,
						"enablevscroll" : 1,
						"devicewidth" : 0.0,
						"description" : "",
						"digest" : "",
						"tags" : "",
						"style" : "",
						"subpatcher_template" : "",
						"visible" : 1,
						"boxes" : [ 							{
								"box" : 								{
									"format" : 6,
									"id" : "obj-14",
									"maxclass" : "flonum",
									"numinlets" : 1,
									"numoutlets" : 2,
									"outlettype" : [ "", "bang" ],
									"parameter_enable" : 0,
									"patching_rect" : [ 1236.0, 473.0, 50.0, 22.0 ]
								}

							}
, 							{
								"box" : 								{
									"id" : "obj-12",
									"maxclass" : "message",
									"numinlets" : 2,
									"numoutlets" : 1,
									"outlettype" : [ "" ],
									"patching_rect" : [ 1239.0, 571.0, 74.0, 22.0 ],
									"text" : "recall 1 2 $1"
								}

							}
, 							{
								"box" : 								{
									"id" : "obj-9",
									"maxclass" : "message",
									"numinlets" : 2,
									"numoutlets" : 1,
									"outlettype" : [ "" ],
									"patching_rect" : [ 1121.0, 570.0, 45.0, 22.0 ],
									"text" : "store 2"
								}

							}
, 							{
								"box" : 								{
									"id" : "obj-10",
									"maxclass" : "message",
									"numinlets" : 2,
									"numoutlets" : 1,
									"outlettype" : [ "" ],
									"patching_rect" : [ 1174.0, 570.0, 29.5, 22.0 ],
									"text" : "2"
								}

							}
, 							{
								"box" : 								{
									"id" : "obj-8",
									"maxclass" : "message",
									"numinlets" : 2,
									"numoutlets" : 1,
									"outlettype" : [ "" ],
									"patching_rect" : [ 991.0, 574.0, 45.0, 22.0 ],
									"text" : "store 1"
								}

							}
, 							{
								"box" : 								{
									"id" : "obj-5",
									"maxclass" : "message",
									"numinlets" : 2,
									"numoutlets" : 1,
									"outlettype" : [ "" ],
									"patching_rect" : [ 1044.0, 574.0, 29.5, 22.0 ],
									"text" : "1"
								}

							}
, 							{
								"box" : 								{
									"active" : 									{
										"fractalizr" : 0,
										"fractalizr::interp_mode" : 0,
										"fractalizr::tint_mode" : 0,
										"fractalizr::horiz" : 0,
										"fractalizr::vert" : 0,
										"scramblr" : 0,
										"scramblr::prob" : 0,
										"scramblr::probmono" : 0,
										"scramblr::horiz" : 0,
										"scramblr::vert" : 0,
										"zamplr" : 0,
										"zamplr::horizontal" : 0,
										"zamplr::vertical" : 0,
										"zamplr::mode[1]" : 0,
										"primr" : 0,
										"primr::bgcolor" : 0,
										"primr[1]" : 0,
										"primr[1]::bgcolor" : 0
									}
,
									"id" : "obj-3",
									"maxclass" : "newobj",
									"numinlets" : 1,
									"numoutlets" : 1,
									"outlettype" : [ "" ],
									"patching_rect" : [ 891.0, 617.0, 73.0, 22.0 ],
									"saved_object_attributes" : 									{
										"client_rect" : [ 637, 425, 1593, 974 ],
										"parameter_enable" : 0,
										"parameter_mappable" : 0,
										"storage_rect" : [ 583, 69, 1034, 197 ]
									}
,
									"text" : "pattrstorage",
									"varname" : "u444013731"
								}

							}
, 							{
								"box" : 								{
									"annotation" : "## Create a dutone image ##",
									"bgmode" : 1,
									"border" : 0,
									"clickthrough" : 0,
									"enablehscroll" : 0,
									"enablevscroll" : 0,
									"id" : "obj-33",
									"lockeddragscroll" : 0,
									"maxclass" : "bpatcher",
									"name" : "vz.2tonr.maxpat",
									"numinlets" : 9,
									"numoutlets" : 1,
									"offset" : [ 0.0, 0.0 ],
									"outlettype" : [ "" ],
									"patching_rect" : [ 542.0, 558.0, 228.0, 130.0 ],
									"prototypename" : "pixl",
									"varname" : "2toner",
									"viewvisibility" : 1
								}

							}
, 							{
								"box" : 								{
									"comment" : "",
									"id" : "obj-2",
									"index" : 1,
									"maxclass" : "outlet",
									"numinlets" : 1,
									"numoutlets" : 0,
									"patching_rect" : [ 740.0, 790.0, 30.0, 30.0 ]
								}

							}
, 							{
								"box" : 								{
									"comment" : "",
									"id" : "obj-1",
									"index" : 1,
									"maxclass" : "inlet",
									"numinlets" : 0,
									"numoutlets" : 1,
									"outlettype" : [ "jit_matrix" ],
									"patching_rect" : [ 535.0, -22.0, 30.0, 30.0 ]
								}

							}
, 							{
								"box" : 								{
									"annotation" : "## Interpolate and resample video input ##",
									"bgmode" : 1,
									"border" : 0,
									"clickthrough" : 0,
									"enablehscroll" : 0,
									"enablevscroll" : 0,
									"id" : "obj-56",
									"lockeddragscroll" : 0,
									"maxclass" : "bpatcher",
									"name" : "vz.resamplr.maxpat",
									"numinlets" : 4,
									"numoutlets" : 1,
									"offset" : [ 0.0, 0.0 ],
									"outlettype" : [ "" ],
									"patching_rect" : [ 552.0, 393.0, 188.0, 130.0 ],
									"prototypename" : "pixl",
									"varname" : "zamplr",
									"viewvisibility" : 1
								}

							}
, 							{
								"box" : 								{
									"annotation" : "## Divide a video and scramble the pieces ##",
									"bgmode" : 1,
									"border" : 0,
									"clickthrough" : 0,
									"enablehscroll" : 0,
									"enablevscroll" : 0,
									"id" : "obj-51",
									"lockeddragscroll" : 0,
									"maxclass" : "bpatcher",
									"name" : "vz.scramblr.maxpat",
									"numinlets" : 6,
									"numoutlets" : 1,
									"offset" : [ 0.0, 0.0 ],
									"outlettype" : [ "" ],
									"patching_rect" : [ 535.0, 94.5, 228.0, 140.0 ],
									"prototypename" : "pixl",
									"varname" : "scramblr",
									"viewvisibility" : 1
								}

							}
, 							{
								"box" : 								{
									"annotation" : "## Create video \"meta images\"## ",
									"bgmode" : 1,
									"border" : 0,
									"clickthrough" : 0,
									"enablehscroll" : 0,
									"enablevscroll" : 0,
									"id" : "obj-50",
									"lockeddragscroll" : 0,
									"maxclass" : "bpatcher",
									"name" : "vz.fractalizr.maxpat",
									"numinlets" : 5,
									"numoutlets" : 1,
									"offset" : [ 0.0, 0.0 ],
									"outlettype" : [ "" ],
									"patching_rect" : [ 517.0, 249.0, 258.0, 130.0 ],
									"prototypename" : "pixl",
									"varname" : "fractalizr",
									"viewvisibility" : 1
								}

							}
, 							{
								"box" : 								{
									"id" : "obj-36",
									"maxclass" : "newobj",
									"numinlets" : 1,
									"numoutlets" : 2,
									"outlettype" : [ "jit_matrix", "" ],
									"patching_rect" : [ 535.0, 24.0, 137.0, 22.0 ],
									"text" : "jit.matrix 4 char 432 100"
								}

							}
 ],
						"lines" : [ 							{
								"patchline" : 								{
									"destination" : [ "obj-36", 0 ],
									"source" : [ "obj-1", 0 ]
								}

							}
, 							{
								"patchline" : 								{
									"destination" : [ "obj-3", 0 ],
									"source" : [ "obj-10", 0 ]
								}

							}
, 							{
								"patchline" : 								{
									"destination" : [ "obj-3", 0 ],
									"source" : [ "obj-12", 0 ]
								}

							}
, 							{
								"patchline" : 								{
									"destination" : [ "obj-12", 0 ],
									"source" : [ "obj-14", 0 ]
								}

							}
, 							{
								"patchline" : 								{
									"destination" : [ "obj-2", 0 ],
									"source" : [ "obj-33", 0 ]
								}

							}
, 							{
								"patchline" : 								{
									"destination" : [ "obj-51", 0 ],
									"source" : [ "obj-36", 0 ]
								}

							}
, 							{
								"patchline" : 								{
									"destination" : [ "obj-3", 0 ],
									"source" : [ "obj-5", 0 ]
								}

							}
, 							{
								"patchline" : 								{
									"destination" : [ "obj-56", 0 ],
									"source" : [ "obj-50", 0 ]
								}

							}
, 							{
								"patchline" : 								{
									"destination" : [ "obj-50", 0 ],
									"source" : [ "obj-51", 0 ]
								}

							}
, 							{
								"patchline" : 								{
									"destination" : [ "obj-33", 0 ],
									"source" : [ "obj-56", 0 ]
								}

							}
, 							{
								"patchline" : 								{
									"destination" : [ "obj-3", 0 ],
									"source" : [ "obj-8", 0 ]
								}

							}
, 							{
								"patchline" : 								{
									"destination" : [ "obj-3", 0 ],
									"source" : [ "obj-9", 0 ]
								}

							}
 ],
						"styles" : [ 							{
								"name" : "AudioStatus_Menu",
								"default" : 								{
									"bgfillcolor" : 									{
										"type" : "color",
										"color" : [ 0.294118, 0.313726, 0.337255, 1 ],
										"color1" : [ 0.454902, 0.462745, 0.482353, 0.0 ],
										"color2" : [ 0.290196, 0.309804, 0.301961, 1.0 ],
										"angle" : 270.0,
										"proportion" : 0.39,
										"autogradient" : 0
									}

								}
,
								"parentstyle" : "",
								"multi" : 0
							}
, 							{
								"name" : "newobjBlue-1",
								"default" : 								{
									"accentcolor" : [ 0.317647, 0.654902, 0.976471, 1.0 ]
								}
,
								"parentstyle" : "",
								"multi" : 0
							}
, 							{
								"name" : "newobjBronze",
								"default" : 								{
									"accentcolor" : [ 0.654902, 0.572549, 0.376471, 1.0 ]
								}
,
								"parentstyle" : "newobjYellow",
								"multi" : 0
							}
, 							{
								"name" : "newobjCyan-1",
								"default" : 								{
									"accentcolor" : [ 0.022882, 0.848654, 0.85423, 1.0 ]
								}
,
								"parentstyle" : "",
								"multi" : 0
							}
, 							{
								"name" : "newobjGold-1",
								"default" : 								{
									"accentcolor" : [ 0.764706, 0.592157, 0.101961, 1.0 ]
								}
,
								"parentstyle" : "",
								"multi" : 0
							}
, 							{
								"name" : "newobjMagenta-1",
								"default" : 								{
									"accentcolor" : [ 0.840663, 0.060168, 0.769195, 1.0 ]
								}
,
								"parentstyle" : "",
								"multi" : 0
							}
, 							{
								"name" : "newobjRed-1",
								"default" : 								{
									"accentcolor" : [ 0.784314, 0.145098, 0.023529, 1.0 ]
								}
,
								"parentstyle" : "",
								"multi" : 0
							}
, 							{
								"name" : "newobjYellow-1",
								"default" : 								{
									"accentcolor" : [ 0.82517, 0.78181, 0.059545, 1.0 ],
									"fontsize" : [ 12.059008 ]
								}
,
								"parentstyle" : "",
								"multi" : 0
							}
, 							{
								"name" : "numberB-1",
								"default" : 								{
									"accentcolor" : [ 0.011765, 0.396078, 0.752941, 1.0 ]
								}
,
								"parentstyle" : "",
								"multi" : 0
							}
, 							{
								"name" : "numberG-1",
								"default" : 								{
									"accentcolor" : [ 0.0, 0.533333, 0.168627, 1.0 ]
								}
,
								"parentstyle" : "",
								"multi" : 0
							}
, 							{
								"name" : "numberGold-1",
								"default" : 								{
									"accentcolor" : [ 0.764706, 0.592157, 0.101961, 1.0 ]
								}
,
								"parentstyle" : "",
								"multi" : 0
							}
, 							{
								"name" : "numberR-1",
								"default" : 								{
									"accentcolor" : [ 0.784314, 0.145098, 0.023529, 1.0 ]
								}
,
								"parentstyle" : "",
								"multi" : 0
							}
 ]
					}
,
					"patching_rect" : [ 522.0, 691.0, 68.0, 22.0 ],
					"saved_object_attributes" : 					{
						"description" : "",
						"digest" : "",
						"globalpatchername" : "",
						"tags" : ""
					}
,
					"text" : "patcher fx1",
					"varname" : "fx1"
				}

			}
, 			{
				"box" : 				{
					"id" : "obj-9",
					"maxclass" : "newobj",
					"numinlets" : 2,
					"numoutlets" : 1,
					"outlettype" : [ "bang" ],
					"patching_rect" : [ 447.0, 443.0, 41.0, 22.0 ],
					"text" : "del 20"
				}

			}
, 			{
				"box" : 				{
					"id" : "obj-12",
					"maxclass" : "button",
					"numinlets" : 1,
					"numoutlets" : 1,
					"outlettype" : [ "bang" ],
					"parameter_enable" : 0,
					"patching_rect" : [ 447.0, 403.0, 24.0, 24.0 ]
				}

			}
, 			{
				"box" : 				{
					"id" : "obj-6",
					"maxclass" : "newobj",
					"numinlets" : 1,
					"numoutlets" : 1,
					"outlettype" : [ "" ],
					"patching_rect" : [ 3.0, 393.0, 105.0, 22.0 ],
					"text" : "loadmess compile"
				}

			}
, 			{
				"box" : 				{
					"id" : "obj-35",
					"maxclass" : "jit.pwindow",
					"numinlets" : 1,
					"numoutlets" : 2,
					"outlettype" : [ "", "" ],
					"patching_rect" : [ 11.0, 678.0, 258.0, 55.0 ]
				}

			}
, 			{
				"box" : 				{
					"id" : "obj-34",
					"maxclass" : "jit.pwindow",
					"numinlets" : 1,
					"numoutlets" : 2,
					"outlettype" : [ "", "" ],
					"patching_rect" : [ 11.0, 613.0, 258.0, 55.0 ]
				}

			}
, 			{
				"box" : 				{
					"id" : "obj-33",
					"maxclass" : "jit.pwindow",
					"numinlets" : 1,
					"numoutlets" : 2,
					"outlettype" : [ "", "" ],
					"patching_rect" : [ 11.0, 549.0, 258.0, 55.0 ]
				}

			}
, 			{
				"box" : 				{
					"id" : "obj-32",
					"maxclass" : "newobj",
					"numinlets" : 4,
					"numoutlets" : 4,
					"outlettype" : [ "", "", "", "" ],
					"patching_rect" : [ 317.5, 393.0, 66.0, 22.0 ],
					"text" : "route 1 2 3"
				}

			}
, 			{
				"box" : 				{
					"id" : "obj-31",
					"maxclass" : "newobj",
					"numinlets" : 0,
					"numoutlets" : 1,
					"outlettype" : [ "" ],
					"patching_rect" : [ 323.0, 359.0, 55.0, 22.0 ],
					"text" : "r phases"
				}

			}
, 			{
				"box" : 				{
					"id" : "obj-30",
					"maxclass" : "newobj",
					"numinlets" : 3,
					"numoutlets" : 1,
					"outlettype" : [ "jit_matrix" ],
					"patching_rect" : [ 304.0, 469.0, 71.0, 22.0 ],
					"text" : "repositioner"
				}

			}
, 			{
				"box" : 				{
					"id" : "obj-29",
					"maxclass" : "newobj",
					"numinlets" : 3,
					"numoutlets" : 1,
					"outlettype" : [ "jit_matrix" ],
					"patching_rect" : [ 209.0, 469.0, 71.0, 22.0 ],
					"text" : "repositioner"
				}

			}
, 			{
				"box" : 				{
					"id" : "obj-28",
					"maxclass" : "newobj",
					"numinlets" : 1,
					"numoutlets" : 0,
					"patching_rect" : [ 122.666664123535156, 165.0, 57.0, 22.0 ],
					"text" : "s phases"
				}

			}
, 			{
				"box" : 				{
					"id" : "obj-27",
					"maxclass" : "newobj",
					"numinlets" : 3,
					"numoutlets" : 1,
					"outlettype" : [ "jit_matrix" ],
					"patching_rect" : [ 117.0, 465.0, 71.0, 22.0 ],
					"text" : "repositioner"
				}

			}
, 			{
				"box" : 				{
					"id" : "obj-25",
					"maxclass" : "newobj",
					"numinlets" : 1,
					"numoutlets" : 4,
					"outlettype" : [ "jit_matrix", "jit_matrix", "jit_matrix", "" ],
					"patching_rect" : [ 126.0, 379.0, 115.0, 22.0 ],
					"text" : "jit.scissors @rows 3"
				}

			}
, 			{
				"box" : 				{
					"id" : "obj-5",
					"maxclass" : "newobj",
					"numinlets" : 1,
					"numoutlets" : 1,
					"outlettype" : [ "bang" ],
					"patching_rect" : [ 828.0, 74.0, 60.0, 22.0 ],
					"text" : "loadbang"
				}

			}
, 			{
				"box" : 				{
					"id" : "obj-21",
					"maxclass" : "message",
					"numinlets" : 2,
					"numoutlets" : 1,
					"outlettype" : [ "" ],
					"patching_rect" : [ 363.0, 208.0, 52.0, 22.0 ],
					"text" : "logData"
				}

			}
, 			{
				"box" : 				{
					"id" : "obj-19",
					"maxclass" : "newobj",
					"numinlets" : 1,
					"numoutlets" : 2,
					"outlettype" : [ "jit_matrix", "" ],
					"patching_rect" : [ 60.0, 335.0, 125.0, 22.0 ],
					"text" : "jit.matrix 1 char 432 3"
				}

			}
, 			{
				"box" : 				{
					"id" : "obj-17",
					"maxclass" : "toggle",
					"numinlets" : 1,
					"numoutlets" : 1,
					"outlettype" : [ "int" ],
					"parameter_enable" : 0,
					"patching_rect" : [ 300.0, 223.0, 24.0, 24.0 ]
				}

			}
, 			{
				"box" : 				{
					"id" : "obj-16",
					"maxclass" : "newobj",
					"numinlets" : 2,
					"numoutlets" : 1,
					"outlettype" : [ "bang" ],
					"patching_rect" : [ 300.0, 268.0, 63.0, 22.0 ],
					"text" : "qmetro 33"
				}

			}
, 			{
				"box" : 				{
					"id" : "obj-13",
					"maxclass" : "newobj",
					"numinlets" : 1,
					"numoutlets" : 1,
					"outlettype" : [ "" ],
					"patching_rect" : [ 247.0, 183.0, 95.0, 22.0 ],
					"text" : "prepend pattern"
				}

			}
, 			{
				"box" : 				{
					"id" : "obj-11",
					"maxclass" : "newobj",
					"numinlets" : 1,
					"numoutlets" : 1,
					"outlettype" : [ "" ],
					"patching_rect" : [ 17.0, 183.0, 91.0, 22.0 ],
					"text" : "prepend hitInfo"
				}

			}
, 			{
				"box" : 				{
					"id" : "obj-8",
					"maxclass" : "newobj",
					"numinlets" : 1,
					"numoutlets" : 4,
					"outlettype" : [ "", "", "", "" ],
					"patching_rect" : [ 60.0, 112.0, 207.0, 22.0 ],
					"text" : "OSC-route /hitInfo /phaseVal /pattern"
				}

			}
, 			{
				"box" : 				{
					"fontsize" : 11.0,
					"id" : "obj-52",
					"maxclass" : "newobj",
					"numinlets" : 1,
					"numoutlets" : 3,
					"outlettype" : [ "", "", "OSCTimeTag" ],
					"patching_rect" : [ 67.5, 48.500061000000002, 132.0, 21.0 ],
					"text" : "OpenSoundControl 6000"
				}

			}
, 			{
				"box" : 				{
					"fontsize" : 11.0,
					"id" : "obj-53",
					"maxclass" : "newobj",
					"numinlets" : 1,
					"numoutlets" : 1,
					"outlettype" : [ "" ],
					"patching_rect" : [ 67.5, 14.5, 149.0, 21.0 ],
					"text" : "udpreceive 5432 cnmat"
				}

			}
, 			{
				"box" : 				{
					"id" : "obj-7",
					"maxclass" : "message",
					"numinlets" : 2,
					"numoutlets" : 1,
					"outlettype" : [ "" ],
					"patching_rect" : [ 859.0, 276.0, 85.0, 22.0 ],
					"text" : "fillplane 0 128"
				}

			}
, 			{
				"box" : 				{
					"id" : "obj-4",
					"maxclass" : "jit.pwindow",
					"numinlets" : 1,
					"numoutlets" : 2,
					"outlettype" : [ "", "" ],
					"patching_rect" : [ 516.0, 335.0, 80.0, 60.0 ]
				}

			}
, 			{
				"box" : 				{
					"id" : "obj-3",
					"maxclass" : "newobj",
					"numinlets" : 1,
					"numoutlets" : 2,
					"outlettype" : [ "jit_matrix", "" ],
					"patching_rect" : [ 642.0, 304.0, 179.0, 22.0 ],
					"text" : "jit.matrix grey 1 char 1000 1000"
				}

			}
, 			{
				"box" : 				{
					"id" : "obj-140",
					"maxclass" : "jit.pwindow",
					"numinlets" : 1,
					"numoutlets" : 2,
					"outlettype" : [ "", "" ],
					"patching_rect" : [ 516.0, 255.0, 80.0, 60.0 ]
				}

			}
, 			{
				"box" : 				{
					"id" : "obj-139",
					"maxclass" : "jit.pwindow",
					"numinlets" : 1,
					"numoutlets" : 2,
					"outlettype" : [ "", "" ],
					"patching_rect" : [ 511.0, 187.0, 80.0, 60.0 ]
				}

			}
, 			{
				"box" : 				{
					"id" : "obj-138",
					"maxclass" : "button",
					"numinlets" : 1,
					"numoutlets" : 1,
					"outlettype" : [ "bang" ],
					"parameter_enable" : 0,
					"patching_rect" : [ 840.0, 144.0, 24.0, 24.0 ]
				}

			}
, 			{
				"box" : 				{
					"id" : "obj-136",
					"maxclass" : "message",
					"numinlets" : 2,
					"numoutlets" : 1,
					"outlettype" : [ "" ],
					"patching_rect" : [ 878.0, 229.0, 86.0, 22.0 ],
					"text" : "fillplane 0 255"
				}

			}
, 			{
				"box" : 				{
					"id" : "obj-129",
					"maxclass" : "message",
					"numinlets" : 2,
					"numoutlets" : 1,
					"outlettype" : [ "" ],
					"patching_rect" : [ 878.0, 183.0, 69.0, 22.0 ],
					"text" : "fillplane 0 0"
				}

			}
, 			{
				"box" : 				{
					"id" : "obj-126",
					"maxclass" : "newobj",
					"numinlets" : 1,
					"numoutlets" : 2,
					"outlettype" : [ "jit_matrix", "" ],
					"patching_rect" : [ 638.0, 255.0, 181.0, 22.0 ],
					"text" : "jit.matrix white 1 char 1000 1000"
				}

			}
, 			{
				"box" : 				{
					"id" : "obj-125",
					"maxclass" : "newobj",
					"numinlets" : 1,
					"numoutlets" : 2,
					"outlettype" : [ "jit_matrix", "" ],
					"patching_rect" : [ 638.0, 210.0, 177.0, 22.0 ],
					"text" : "jit.matrix black 1 char 1000 100"
				}

			}
, 			{
				"box" : 				{
					"id" : "obj-2",
					"maxclass" : "newobj",
					"numinlets" : 1,
					"numoutlets" : 1,
					"outlettype" : [ "" ],
					"patching_rect" : [ 60.0, 293.0, 195.0, 22.0 ],
					"saved_object_attributes" : 					{
						"filename" : "phaseVisuals2.js",
						"parameter_enable" : 0
					}
,
					"text" : "js phaseVisuals2.js phaseTemplate"
				}

			}
, 			{
				"box" : 				{
					"id" : "obj-1",
					"maxclass" : "newobj",
					"numinlets" : 1,
					"numoutlets" : 2,
					"outlettype" : [ "jit_matrix", "" ],
					"patching_rect" : [ 539.0, 107.0, 217.0, 22.0 ],
					"text" : "jit.matrix phaseTemplate 1 char 1000 3"
				}

			}
 ],
		"lines" : [ 			{
				"patchline" : 				{
					"destination" : [ "obj-2", 0 ],
					"source" : [ "obj-11", 0 ]
				}

			}
, 			{
				"patchline" : 				{
					"destination" : [ "obj-9", 0 ],
					"source" : [ "obj-12", 0 ]
				}

			}
, 			{
				"patchline" : 				{
					"destination" : [ "obj-139", 0 ],
					"source" : [ "obj-125", 0 ]
				}

			}
, 			{
				"patchline" : 				{
					"destination" : [ "obj-140", 0 ],
					"source" : [ "obj-126", 0 ]
				}

			}
, 			{
				"patchline" : 				{
					"destination" : [ "obj-125", 0 ],
					"source" : [ "obj-129", 0 ]
				}

			}
, 			{
				"patchline" : 				{
					"destination" : [ "obj-2", 0 ],
					"source" : [ "obj-13", 0 ]
				}

			}
, 			{
				"patchline" : 				{
					"destination" : [ "obj-126", 0 ],
					"source" : [ "obj-136", 0 ]
				}

			}
, 			{
				"patchline" : 				{
					"destination" : [ "obj-125", 0 ],
					"order" : 2,
					"source" : [ "obj-138", 0 ]
				}

			}
, 			{
				"patchline" : 				{
					"destination" : [ "obj-126", 0 ],
					"order" : 1,
					"source" : [ "obj-138", 0 ]
				}

			}
, 			{
				"patchline" : 				{
					"destination" : [ "obj-3", 0 ],
					"order" : 0,
					"source" : [ "obj-138", 0 ]
				}

			}
, 			{
				"patchline" : 				{
					"destination" : [ "obj-161", 1 ],
					"source" : [ "obj-14", 0 ]
				}

			}
, 			{
				"patchline" : 				{
					"destination" : [ "obj-161", 2 ],
					"source" : [ "obj-15", 0 ]
				}

			}
, 			{
				"patchline" : 				{
					"destination" : [ "obj-161", 0 ],
					"source" : [ "obj-153", 0 ]
				}

			}
, 			{
				"patchline" : 				{
					"destination" : [ "obj-2", 0 ],
					"source" : [ "obj-16", 0 ]
				}

			}
, 			{
				"patchline" : 				{
					"destination" : [ "obj-162", 0 ],
					"source" : [ "obj-160", 0 ]
				}

			}
, 			{
				"patchline" : 				{
					"destination" : [ "obj-160", 0 ],
					"source" : [ "obj-161", 0 ]
				}

			}
, 			{
				"patchline" : 				{
					"destination" : [ "obj-12", 0 ],
					"order" : 0,
					"source" : [ "obj-17", 0 ]
				}

			}
, 			{
				"patchline" : 				{
					"destination" : [ "obj-16", 0 ],
					"order" : 1,
					"source" : [ "obj-17", 0 ]
				}

			}
, 			{
				"patchline" : 				{
					"destination" : [ "obj-23", 1 ],
					"source" : [ "obj-18", 0 ]
				}

			}
, 			{
				"patchline" : 				{
					"destination" : [ "obj-25", 0 ],
					"source" : [ "obj-19", 0 ]
				}

			}
, 			{
				"patchline" : 				{
					"destination" : [ "obj-19", 0 ],
					"source" : [ "obj-2", 0 ]
				}

			}
, 			{
				"patchline" : 				{
					"destination" : [ "obj-2", 0 ],
					"source" : [ "obj-21", 0 ]
				}

			}
, 			{
				"patchline" : 				{
					"destination" : [ "obj-37", 0 ],
					"source" : [ "obj-24", 0 ]
				}

			}
, 			{
				"patchline" : 				{
					"destination" : [ "obj-27", 0 ],
					"source" : [ "obj-25", 0 ]
				}

			}
, 			{
				"patchline" : 				{
					"destination" : [ "obj-29", 0 ],
					"source" : [ "obj-25", 1 ]
				}

			}
, 			{
				"patchline" : 				{
					"destination" : [ "obj-30", 0 ],
					"source" : [ "obj-25", 2 ]
				}

			}
, 			{
				"patchline" : 				{
					"destination" : [ "obj-153", 0 ],
					"order" : 0,
					"source" : [ "obj-27", 0 ]
				}

			}
, 			{
				"patchline" : 				{
					"destination" : [ "obj-18", 0 ],
					"order" : 1,
					"source" : [ "obj-27", 0 ]
				}

			}
, 			{
				"patchline" : 				{
					"destination" : [ "obj-33", 0 ],
					"midpoints" : [ 126.5, 517.5, 20.5, 517.5 ],
					"order" : 2,
					"source" : [ "obj-27", 0 ]
				}

			}
, 			{
				"patchline" : 				{
					"destination" : [ "obj-14", 0 ],
					"order" : 0,
					"source" : [ "obj-29", 0 ]
				}

			}
, 			{
				"patchline" : 				{
					"destination" : [ "obj-34", 0 ],
					"midpoints" : [ 218.5, 529.5, 20.5, 529.5 ],
					"order" : 1,
					"source" : [ "obj-29", 0 ]
				}

			}
, 			{
				"patchline" : 				{
					"destination" : [ "obj-4", 0 ],
					"source" : [ "obj-3", 0 ]
				}

			}
, 			{
				"patchline" : 				{
					"destination" : [ "obj-15", 0 ],
					"order" : 0,
					"source" : [ "obj-30", 0 ]
				}

			}
, 			{
				"patchline" : 				{
					"destination" : [ "obj-35", 0 ],
					"midpoints" : [ 313.5, 541.0, 20.5, 541.0 ],
					"order" : 1,
					"source" : [ "obj-30", 0 ]
				}

			}
, 			{
				"patchline" : 				{
					"destination" : [ "obj-32", 0 ],
					"source" : [ "obj-31", 0 ]
				}

			}
, 			{
				"patchline" : 				{
					"destination" : [ "obj-27", 1 ],
					"source" : [ "obj-32", 0 ]
				}

			}
, 			{
				"patchline" : 				{
					"destination" : [ "obj-29", 1 ],
					"source" : [ "obj-32", 1 ]
				}

			}
, 			{
				"patchline" : 				{
					"destination" : [ "obj-30", 1 ],
					"source" : [ "obj-32", 2 ]
				}

			}
, 			{
				"patchline" : 				{
					"destination" : [ "obj-39", 0 ],
					"order" : 1,
					"source" : [ "obj-38", 0 ]
				}

			}
, 			{
				"patchline" : 				{
					"destination" : [ "obj-40", 1 ],
					"source" : [ "obj-38", 1 ]
				}

			}
, 			{
				"patchline" : 				{
					"destination" : [ "obj-45", 1 ],
					"order" : 0,
					"source" : [ "obj-38", 0 ]
				}

			}
, 			{
				"patchline" : 				{
					"destination" : [ "obj-40", 0 ],
					"source" : [ "obj-39", 0 ]
				}

			}
, 			{
				"patchline" : 				{
					"destination" : [ "obj-41", 0 ],
					"source" : [ "obj-40", 0 ]
				}

			}
, 			{
				"patchline" : 				{
					"destination" : [ "obj-37", 0 ],
					"order" : 1,
					"source" : [ "obj-41", 0 ]
				}

			}
, 			{
				"patchline" : 				{
					"destination" : [ "obj-43", 1 ],
					"order" : 0,
					"source" : [ "obj-41", 0 ]
				}

			}
, 			{
				"patchline" : 				{
					"destination" : [ "obj-129", 0 ],
					"order" : 1,
					"source" : [ "obj-5", 0 ]
				}

			}
, 			{
				"patchline" : 				{
					"destination" : [ "obj-136", 0 ],
					"order" : 0,
					"source" : [ "obj-5", 0 ]
				}

			}
, 			{
				"patchline" : 				{
					"destination" : [ "obj-138", 0 ],
					"order" : 3,
					"source" : [ "obj-5", 0 ]
				}

			}
, 			{
				"patchline" : 				{
					"destination" : [ "obj-7", 0 ],
					"order" : 2,
					"source" : [ "obj-5", 0 ]
				}

			}
, 			{
				"patchline" : 				{
					"destination" : [ "obj-8", 0 ],
					"source" : [ "obj-52", 1 ]
				}

			}
, 			{
				"patchline" : 				{
					"destination" : [ "obj-52", 0 ],
					"source" : [ "obj-53", 0 ]
				}

			}
, 			{
				"patchline" : 				{
					"destination" : [ "obj-2", 0 ],
					"source" : [ "obj-6", 0 ]
				}

			}
, 			{
				"patchline" : 				{
					"destination" : [ "obj-3", 0 ],
					"source" : [ "obj-7", 0 ]
				}

			}
, 			{
				"patchline" : 				{
					"destination" : [ "obj-11", 0 ],
					"source" : [ "obj-8", 0 ]
				}

			}
, 			{
				"patchline" : 				{
					"destination" : [ "obj-13", 0 ],
					"source" : [ "obj-8", 2 ]
				}

			}
, 			{
				"patchline" : 				{
					"destination" : [ "obj-28", 0 ],
					"source" : [ "obj-8", 1 ]
				}

			}
, 			{
				"patchline" : 				{
					"destination" : [ "obj-27", 2 ],
					"order" : 2,
					"source" : [ "obj-9", 0 ]
				}

			}
, 			{
				"patchline" : 				{
					"destination" : [ "obj-29", 2 ],
					"order" : 1,
					"source" : [ "obj-9", 0 ]
				}

			}
, 			{
				"patchline" : 				{
					"destination" : [ "obj-30", 2 ],
					"order" : 0,
					"source" : [ "obj-9", 0 ]
				}

			}
 ],
		"parameters" : 		{
			"obj-153::obj-51::obj-29" : [ "vertical[3]", "vertical", 0 ],
			"obj-14::obj-50::obj-16" : [ "horizontal[4]", "horizontal", 0 ],
			"obj-14::obj-51::obj-29" : [ "vertical", "vertical", 0 ],
			"obj-15::obj-50::obj-2" : [ "range[29]", "range", 0 ],
			"obj-15::obj-117::obj-31" : [ "pictctrl[118]", "pictctrl[1]", 0 ],
			"obj-14::obj-56::obj-28" : [ "pictctrl[71]", "pictctrl[1]", 0 ],
			"obj-14::obj-92::obj-117" : [ "textbutton[4]", "textbutton[1]", 0 ],
			"obj-15::obj-56::obj-50" : [ "pictctrl[125]", "pictctrl[1]", 0 ],
			"obj-153::obj-33::obj-12" : [ "pictctrl[91]", "pictctrl[1]", 0 ],
			"obj-15::obj-50::obj-53" : [ "pictctrl[133]", "pictctrl[1]", 0 ],
			"obj-15::obj-33::obj-64" : [ "pictctrl[112]", "pictctrl[1]", 0 ],
			"obj-153::obj-50::obj-53" : [ "pictctrl[42]", "pictctrl[1]", 0 ],
			"obj-14::obj-50::obj-51" : [ "pictctrl[211]", "pictctrl[1]", 0 ],
			"obj-14::obj-50::obj-41" : [ "pictctrl[213]", "pictctrl[1]", 0 ],
			"obj-14::obj-92::obj-8" : [ "pictctrl[102]", "pictctrl[1]", 0 ],
			"obj-14::obj-117::obj-31" : [ "pictctrl[23]", "pictctrl[1]", 0 ],
			"obj-153::obj-56::obj-28" : [ "pictctrl[40]", "pictctrl[1]", 0 ],
			"obj-15::obj-33::obj-27" : [ "swatch[11]", "swatch[1]", 0 ],
			"obj-153::obj-33::obj-45" : [ "slider", "slider", 0 ],
			"obj-14::obj-50::obj-53" : [ "pictctrl[214]", "pictctrl[1]", 0 ],
			"obj-14::obj-117::obj-93" : [ "swatch[9]", "swatch", 0 ],
			"obj-15::obj-92::obj-117" : [ "textbutton[6]", "textbutton[1]", 0 ],
			"obj-153::obj-56::obj-16" : [ "range[4]", "range", 0 ],
			"obj-14::obj-51::obj-107" : [ "pictctrl[55]", "pictctrl[1]", 0 ],
			"obj-14::obj-33::obj-54" : [ "pictctrl[6]", "pictctrl[1]", 0 ],
			"obj-15::obj-51::obj-8" : [ "FreqMode[10]", "FreqMode", 0 ],
			"obj-153::obj-50::obj-41" : [ "pictctrl[43]", "pictctrl[1]", 0 ],
			"obj-14::obj-33::obj-73" : [ "pictctrl[95]", "pictctrl[1]", 0 ],
			"obj-15::obj-92::obj-85" : [ "pictctrl[123]", "pictctrl[1]", 0 ],
			"obj-14::obj-51::obj-14" : [ "range[3]", "range", 0 ],
			"obj-15::obj-51::obj-121" : [ "offsetprob[3]", "offset probability", 0 ],
			"obj-14::obj-56::obj-98" : [ "vertical[1]", "vertical", 0 ],
			"obj-14::obj-33::obj-62" : [ "pictctrl[97]", "pictctrl[1]", 0 ],
			"obj-15::obj-117::obj-117" : [ "textbutton[5]", "textbutton[1]", 0 ],
			"obj-153::obj-33::obj-27" : [ "swatch[1]", "swatch[1]", 0 ],
			"obj-14::obj-117::obj-37" : [ "pictctrl[19]", "pictctrl[1]", 0 ],
			"obj-153::obj-51::obj-116" : [ "tilingprob[1]", "tiling probatility", 0 ],
			"obj-15::obj-117::obj-37" : [ "pictctrl[113]", "pictctrl[1]", 0 ],
			"obj-14::obj-51::obj-13" : [ "pictctrl[52]", "pictctrl[1]", 0 ],
			"obj-14::obj-92::obj-37" : [ "pictctrl[104]", "pictctrl[1]", 0 ],
			"obj-14::obj-117::obj-36" : [ "pictctrl[22]", "pictctrl[1]", 0 ],
			"obj-15::obj-56::obj-37" : [ "umenu[13]", "umenu", 0 ],
			"obj-153::obj-51::obj-68" : [ "horizontal[3]", "horizontal", 0 ],
			"obj-14::obj-50::obj-2" : [ "range[27]", "range", 0 ],
			"obj-15::obj-50::obj-41" : [ "pictctrl[136]", "pictctrl[1]", 0 ],
			"obj-14::obj-92::obj-82" : [ "pictctrl[103]", "pictctrl[1]", 0 ],
			"obj-15::obj-56::obj-16" : [ "range[12]", "range", 0 ],
			"obj-153::obj-33::obj-49" : [ "pictctrl[92]", "pictctrl[1]", 0 ],
			"obj-15::obj-50::obj-94" : [ "umenu[8]", "umenu", 0 ],
			"obj-15::obj-33::obj-3" : [ "range[11]", "range", 0 ],
			"obj-153::obj-50::obj-51" : [ "pictctrl[44]", "pictctrl[1]", 0 ],
			"obj-153::obj-56::obj-50" : [ "pictctrl[57]", "pictctrl[1]", 0 ],
			"obj-14::obj-50::obj-47" : [ "pictctrl[212]", "pictctrl[1]", 0 ],
			"obj-14::obj-117::obj-117" : [ "textbutton[14]", "textbutton[1]", 0 ],
			"obj-14::obj-33::obj-53" : [ "pictctrl[4]", "pictctrl[1]", 0 ],
			"obj-15::obj-33::obj-58" : [ "pictctrl[108]", "pictctrl[1]", 0 ],
			"obj-153::obj-50::obj-54" : [ "umenu[7]", "umenu", 0 ],
			"obj-14::obj-33::obj-28" : [ "swatch", "swatch", 0 ],
			"obj-15::obj-92::obj-37" : [ "pictctrl[119]", "pictctrl[1]", 0 ],
			"obj-153::obj-51::obj-110" : [ "pictctrl[9]", "pictctrl[1]", 0 ],
			"obj-14::obj-51::obj-115" : [ "pictctrl[54]", "pictctrl[1]", 0 ],
			"obj-15::obj-51::obj-115" : [ "pictctrl[132]", "pictctrl[1]", 0 ],
			"obj-14::obj-33::obj-27" : [ "swatch[8]", "swatch[1]", 0 ],
			"obj-14::obj-51::obj-68" : [ "horizontal", "horizontal", 0 ],
			"obj-15::obj-51::obj-110" : [ "pictctrl[129]", "pictctrl[1]", 0 ],
			"obj-153::obj-51::obj-13" : [ "pictctrl[60]", "pictctrl[1]", 0 ],
			"obj-14::obj-50::obj-54" : [ "umenu[3]", "umenu", 0 ],
			"obj-15::obj-117::obj-82" : [ "pictctrl[116]", "pictctrl[1]", 0 ],
			"obj-153::obj-51::obj-14" : [ "range[5]", "range", 0 ],
			"obj-15::obj-50::obj-16" : [ "horizontal[11]", "horizontal", 0 ],
			"obj-15::obj-117::obj-8" : [ "pictctrl[114]", "pictctrl[1]", 0 ],
			"obj-14::obj-92::obj-36" : [ "pictctrl[100]", "pictctrl[1]", 0 ],
			"obj-15::obj-56::obj-79" : [ "pictctrl[126]", "pictctrl[1]", 0 ],
			"obj-153::obj-33::obj-28" : [ "swatch[7]", "swatch", 0 ],
			"obj-15::obj-50::obj-17" : [ "vertical[11]", "vertical", 0 ],
			"obj-15::obj-33::obj-45" : [ "slider[2]", "slider", 0 ],
			"obj-15::obj-33::obj-49" : [ "pictctrl[106]", "pictctrl[1]", 0 ],
			"obj-14::obj-92::obj-276" : [ "FreqMode[6]", "FreqMode", 0 ],
			"obj-153::obj-56::obj-79" : [ "pictctrl[58]", "pictctrl[1]", 0 ],
			"obj-153::obj-33::obj-73" : [ "pictctrl[2]", "pictctrl[1]", 0 ],
			"obj-15::obj-33::obj-28" : [ "swatch[12]", "swatch", 0 ],
			"obj-153::obj-50::obj-16" : [ "horizontal[5]", "horizontal", 0 ],
			"obj-14::obj-117::obj-82" : [ "pictctrl[89]", "pictctrl[1]", 0 ],
			"obj-15::obj-92::obj-276" : [ "FreqMode[9]", "FreqMode", 0 ],
			"obj-153::obj-33::obj-64" : [ "pictctrl[7]", "pictctrl[1]", 0 ],
			"obj-15::obj-51::obj-13" : [ "pictctrl[130]", "pictctrl[1]", 0 ],
			"obj-153::obj-51::obj-8" : [ "FreqMode[3]", "FreqMode", 0 ],
			"obj-14::obj-33::obj-58" : [ "pictctrl[96]", "pictctrl[1]", 0 ],
			"obj-15::obj-92::obj-36" : [ "pictctrl[121]", "pictctrl[1]", 0 ],
			"obj-14::obj-56::obj-37" : [ "umenu[1]", "umenu", 0 ],
			"obj-15::obj-51::obj-14" : [ "range[28]", "range", 0 ],
			"obj-14::obj-33::obj-64" : [ "pictctrl[87]", "pictctrl[1]", 0 ],
			"obj-15::obj-117::obj-276" : [ "FreqMode[8]", "FreqMode", 0 ],
			"obj-153::obj-51::obj-115" : [ "pictctrl[72]", "pictctrl[1]", 0 ],
			"obj-14::obj-56::obj-99" : [ "horizontal[1]", "horizontal", 0 ],
			"obj-15::obj-117::obj-93" : [ "swatch[13]", "swatch", 0 ],
			"obj-14::obj-92::obj-93" : [ "swatch[10]", "swatch", 0 ],
			"obj-15::obj-56::obj-99" : [ "horizontal[9]", "horizontal", 0 ],
			"obj-153::obj-33::obj-54" : [ "pictctrl[93]", "pictctrl[1]", 0 ],
			"obj-14::obj-56::obj-16" : [ "range[24]", "range", 0 ],
			"obj-15::obj-50::obj-54" : [ "umenu[14]", "umenu", 0 ],
			"obj-15::obj-33::obj-62" : [ "pictctrl[109]", "pictctrl[1]", 0 ],
			"obj-14::obj-51::obj-110" : [ "pictctrl[53]", "pictctrl[1]", 0 ],
			"obj-14::obj-92::obj-31" : [ "pictctrl[101]", "pictctrl[1]", 0 ],
			"obj-15::obj-56::obj-98" : [ "vertical[9]", "vertical", 0 ],
			"obj-153::obj-56::obj-98" : [ "vertical[2]", "vertical", 0 ],
			"obj-15::obj-33::obj-73" : [ "pictctrl[105]", "pictctrl[1]", 0 ],
			"obj-153::obj-50::obj-94" : [ "umenu[6]", "umenu", 0 ],
			"obj-14::obj-117::obj-8" : [ "pictctrl[90]", "pictctrl[1]", 0 ],
			"obj-15::obj-92::obj-31" : [ "pictctrl[120]", "pictctrl[1]", 0 ],
			"obj-153::obj-56::obj-99" : [ "horizontal[2]", "horizontal", 0 ],
			"obj-14::obj-50::obj-94" : [ "umenu[12]", "umenu", 0 ],
			"obj-14::obj-33::obj-12" : [ "pictctrl[5]", "pictctrl[1]", 0 ],
			"obj-15::obj-51::obj-29" : [ "vertical[10]", "vertical", 0 ],
			"obj-15::obj-33::obj-54" : [ "pictctrl[111]", "pictctrl[1]", 0 ],
			"obj-153::obj-50::obj-2" : [ "range[6]", "range", 0 ],
			"obj-14::obj-56::obj-79" : [ "pictctrl[74]", "pictctrl[1]", 0 ],
			"obj-15::obj-92::obj-82" : [ "pictctrl[124]", "pictctrl[1]", 0 ],
			"obj-15::obj-51::obj-68" : [ "horizontal[10]", "horizontal", 0 ],
			"obj-14::obj-33::obj-49" : [ "pictctrl[88]", "pictctrl[1]", 0 ],
			"obj-14::obj-51::obj-116" : [ "tilingprob", "tiling probatility", 0 ],
			"obj-15::obj-51::obj-100" : [ "pictctrl[131]", "pictctrl[1]", 0 ],
			"obj-153::obj-51::obj-121" : [ "offsetprob[1]", "offset probability", 0 ],
			"obj-15::obj-117::obj-36" : [ "pictctrl[117]", "pictctrl[1]", 0 ],
			"obj-14::obj-51::obj-100" : [ "pictctrl[56]", "pictctrl[1]", 0 ],
			"obj-153::obj-51::obj-100" : [ "pictctrl[59]", "pictctrl[1]", 0 ],
			"obj-15::obj-50::obj-47" : [ "pictctrl[135]", "pictctrl[1]", 0 ],
			"obj-14::obj-92::obj-85" : [ "pictctrl[99]", "pictctrl[1]", 0 ],
			"obj-15::obj-56::obj-28" : [ "pictctrl[127]", "pictctrl[1]", 0 ],
			"obj-153::obj-33::obj-53" : [ "pictctrl[94]", "pictctrl[1]", 0 ],
			"obj-14::obj-51::obj-121" : [ "offsetprob", "offset probability", 0 ],
			"obj-15::obj-50::obj-51" : [ "pictctrl[134]", "pictctrl[1]", 0 ],
			"obj-15::obj-33::obj-12" : [ "pictctrl[107]", "pictctrl[1]", 0 ],
			"obj-153::obj-50::obj-17" : [ "vertical[5]", "vertical", 0 ],
			"obj-153::obj-56::obj-37" : [ "umenu[5]", "umenu", 0 ],
			"obj-153::obj-33::obj-58" : [ "pictctrl[3]", "pictctrl[1]", 0 ],
			"obj-14::obj-51::obj-8" : [ "FreqMode[15]", "FreqMode", 0 ],
			"obj-15::obj-33::obj-53" : [ "pictctrl[110]", "pictctrl[1]", 0 ],
			"obj-153::obj-50::obj-47" : [ "pictctrl[41]", "pictctrl[1]", 0 ],
			"obj-14::obj-117::obj-85" : [ "pictctrl[98]", "pictctrl[1]", 0 ],
			"obj-15::obj-92::obj-8" : [ "pictctrl[122]", "pictctrl[1]", 0 ],
			"obj-153::obj-33::obj-62" : [ "pictctrl[8]", "pictctrl[1]", 0 ],
			"obj-14::obj-117::obj-276" : [ "FreqMode[4]", "FreqMode", 0 ],
			"obj-15::obj-51::obj-107" : [ "pictctrl[128]", "pictctrl[1]", 0 ],
			"obj-14::obj-56::obj-50" : [ "pictctrl[70]", "pictctrl[1]", 0 ],
			"obj-14::obj-33::obj-3" : [ "range[10]", "range", 0 ],
			"obj-15::obj-92::obj-93" : [ "swatch[14]", "swatch", 0 ],
			"obj-153::obj-33::obj-3" : [ "range[1]", "range", 0 ],
			"obj-15::obj-51::obj-116" : [ "tilingprob[3]", "tiling probatility", 0 ],
			"obj-153::obj-51::obj-107" : [ "pictctrl[61]", "pictctrl[1]", 0 ],
			"obj-14::obj-50::obj-17" : [ "vertical[4]", "vertical", 0 ],
			"obj-14::obj-33::obj-45" : [ "slider[1]", "slider", 0 ],
			"obj-15::obj-117::obj-85" : [ "pictctrl[115]", "pictctrl[1]", 0 ],
			"parameterbanks" : 			{

			}

		}
,
		"dependency_cache" : [ 			{
				"name" : "phaseVisuals2.js",
				"bootpath" : "~/MUS7100_Fall_2017/Interface-2/hyperphase",
				"patcherrelativepath" : ".",
				"type" : "TEXT",
				"implicit" : 1
			}
, 			{
				"name" : "repositioner.maxpat",
				"bootpath" : "~/MUS7100_Fall_2017/Interface-2/hyperphase",
				"patcherrelativepath" : ".",
				"type" : "JSON",
				"implicit" : 1
			}
, 			{
				"name" : "helpargs.js",
				"bootpath" : "C74:/help/resources",
				"type" : "TEXT",
				"implicit" : 1
			}
, 			{
				"name" : "vz.fractalizr.maxpat",
				"bootpath" : "~/Documents/Max 8/Packages/Vizzie/patchers",
				"patcherrelativepath" : "../../../Documents/Max 8/Packages/Vizzie/patchers",
				"type" : "JSON",
				"implicit" : 1
			}
, 			{
				"name" : "data-handler.maxpat",
				"bootpath" : "~/Documents/Max 8/Packages/Vizzie/patchers",
				"patcherrelativepath" : "../../../Documents/Max 8/Packages/Vizzie/patchers",
				"type" : "JSON",
				"implicit" : 1
			}
, 			{
				"name" : "vzgl-object.maxpat",
				"bootpath" : "~/Documents/Max 8/Packages/Vizzie/patchers",
				"patcherrelativepath" : "../../../Documents/Max 8/Packages/Vizzie/patchers",
				"type" : "JSON",
				"implicit" : 1
			}
, 			{
				"name" : "vizzie-global.js",
				"bootpath" : "~/Documents/Max 8/Packages/Vizzie/code",
				"patcherrelativepath" : "../../../Documents/Max 8/Packages/Vizzie/code",
				"type" : "TEXT",
				"implicit" : 1
			}
, 			{
				"name" : "video-handler.maxpat",
				"bootpath" : "~/Documents/Max 8/Packages/Vizzie/patchers",
				"patcherrelativepath" : "../../../Documents/Max 8/Packages/Vizzie/patchers",
				"type" : "JSON",
				"implicit" : 1
			}
, 			{
				"name" : "eclipse.genjit",
				"bootpath" : "~/Library/Application Support/Cycling '74/Max 8/Examples/jitter-examples/gen",
				"patcherrelativepath" : "../../../Library/Application Support/Cycling '74/Max 8/Examples/jitter-examples/gen",
				"type" : "gJIT",
				"implicit" : 1
			}
, 			{
				"name" : "vzgl-routemat.maxpat",
				"bootpath" : "~/Documents/Max 8/Packages/Vizzie/patchers",
				"patcherrelativepath" : "../../../Documents/Max 8/Packages/Vizzie/patchers",
				"type" : "JSON",
				"implicit" : 1
			}
, 			{
				"name" : "vzgl-disable.maxpat",
				"bootpath" : "~/Documents/Max 8/Packages/Vizzie/patchers",
				"patcherrelativepath" : "../../../Documents/Max 8/Packages/Vizzie/patchers",
				"type" : "JSON",
				"implicit" : 1
			}
, 			{
				"name" : "vz.scramblr.maxpat",
				"bootpath" : "~/Documents/Max 8/Packages/Vizzie/patchers",
				"patcherrelativepath" : "../../../Documents/Max 8/Packages/Vizzie/patchers",
				"type" : "JSON",
				"implicit" : 1
			}
, 			{
				"name" : "vzgl-routegl.maxpat",
				"bootpath" : "~/Documents/Max 8/Packages/Vizzie/patchers",
				"patcherrelativepath" : "../../../Documents/Max 8/Packages/Vizzie/patchers",
				"type" : "JSON",
				"implicit" : 1
			}
, 			{
				"name" : "vz.resamplr.maxpat",
				"bootpath" : "~/Documents/Max 8/Packages/Vizzie/patchers",
				"patcherrelativepath" : "../../../Documents/Max 8/Packages/Vizzie/patchers",
				"type" : "JSON",
				"implicit" : 1
			}
, 			{
				"name" : "vz.2tonr.maxpat",
				"bootpath" : "~/Documents/Max 8/Packages/Vizzie/patchers",
				"patcherrelativepath" : "../../../Documents/Max 8/Packages/Vizzie/patchers",
				"type" : "JSON",
				"implicit" : 1
			}
, 			{
				"name" : "vz.primr.maxpat",
				"bootpath" : "~/Documents/Max 8/Packages/Vizzie/patchers",
				"patcherrelativepath" : "../../../Documents/Max 8/Packages/Vizzie/patchers",
				"type" : "JSON",
				"implicit" : 1
			}
, 			{
				"name" : "data-handler-L.maxpat",
				"bootpath" : "~/Documents/Max 8/Packages/Vizzie/patchers",
				"patcherrelativepath" : "../../../Documents/Max 8/Packages/Vizzie/patchers",
				"type" : "JSON",
				"implicit" : 1
			}
, 			{
				"name" : "OpenSoundControl.mxo",
				"type" : "iLaX"
			}
, 			{
				"name" : "OSC-route.mxo",
				"type" : "iLaX"
			}
, 			{
				"name" : "jit.!-.mxo",
				"type" : "iLaX"
			}
 ],
		"autosave" : 0,
		"styles" : [ 			{
				"name" : "AudioStatus_Menu",
				"default" : 				{
					"bgfillcolor" : 					{
						"type" : "color",
						"color" : [ 0.294118, 0.313726, 0.337255, 1 ],
						"color1" : [ 0.454902, 0.462745, 0.482353, 0.0 ],
						"color2" : [ 0.290196, 0.309804, 0.301961, 1.0 ],
						"angle" : 270.0,
						"proportion" : 0.39,
						"autogradient" : 0
					}

				}
,
				"parentstyle" : "",
				"multi" : 0
			}
, 			{
				"name" : "newobjBlue-1",
				"default" : 				{
					"accentcolor" : [ 0.317647, 0.654902, 0.976471, 1.0 ]
				}
,
				"parentstyle" : "",
				"multi" : 0
			}
, 			{
				"name" : "newobjBronze",
				"default" : 				{
					"accentcolor" : [ 0.654902, 0.572549, 0.376471, 1.0 ]
				}
,
				"parentstyle" : "newobjYellow",
				"multi" : 0
			}
, 			{
				"name" : "newobjCyan-1",
				"default" : 				{
					"accentcolor" : [ 0.022882, 0.848654, 0.85423, 1.0 ]
				}
,
				"parentstyle" : "",
				"multi" : 0
			}
, 			{
				"name" : "newobjGold-1",
				"default" : 				{
					"accentcolor" : [ 0.764706, 0.592157, 0.101961, 1.0 ]
				}
,
				"parentstyle" : "",
				"multi" : 0
			}
, 			{
				"name" : "newobjMagenta-1",
				"default" : 				{
					"accentcolor" : [ 0.840663, 0.060168, 0.769195, 1.0 ]
				}
,
				"parentstyle" : "",
				"multi" : 0
			}
, 			{
				"name" : "newobjRed-1",
				"default" : 				{
					"accentcolor" : [ 0.784314, 0.145098, 0.023529, 1.0 ]
				}
,
				"parentstyle" : "",
				"multi" : 0
			}
, 			{
				"name" : "newobjYellow-1",
				"default" : 				{
					"accentcolor" : [ 0.82517, 0.78181, 0.059545, 1.0 ],
					"fontsize" : [ 12.059008 ]
				}
,
				"parentstyle" : "",
				"multi" : 0
			}
, 			{
				"name" : "numberB-1",
				"default" : 				{
					"accentcolor" : [ 0.011765, 0.396078, 0.752941, 1.0 ]
				}
,
				"parentstyle" : "",
				"multi" : 0
			}
, 			{
				"name" : "numberG-1",
				"default" : 				{
					"accentcolor" : [ 0.0, 0.533333, 0.168627, 1.0 ]
				}
,
				"parentstyle" : "",
				"multi" : 0
			}
, 			{
				"name" : "numberGold-1",
				"default" : 				{
					"accentcolor" : [ 0.764706, 0.592157, 0.101961, 1.0 ]
				}
,
				"parentstyle" : "",
				"multi" : 0
			}
, 			{
				"name" : "numberR-1",
				"default" : 				{
					"accentcolor" : [ 0.784314, 0.145098, 0.023529, 1.0 ]
				}
,
				"parentstyle" : "",
				"multi" : 0
			}
 ]
	}

}
